<?xml version="1.0" encoding="utf-8"?>
<!-- Generator: Adobe Illustrator 23.1.1, SVG Export Plug-In . SVG Version: 6.00 Build 0)  -->
<svg version="1.1" id="Capa_1" xmlns="http://www.w3.org/2000/svg" xmlns:xlink="http://www.w3.org/1999/xlink" x="0px" y="0px"
	 viewBox="0 0 200 120" style="enable-background:new 0 0 200 120;" xml:space="preserve">
<style type="text/css">
	.st0{fill:#FFFFFF;}
</style>
<g>
	<polygon class="st0" points="179.8,90 95.9,114.1 200,89.5 	"/>
	<path class="st0" d="M12,87.2H0l95.9,26.9C95.9,114.1,14.2,86.7,12,87.2z"/>
	<path class="st0" d="M15.1,54.8c1.9-0.9,4.1-3.3,4.5-4c0.3-0.5-1.2,2.7,0.7,7.9h0c3,7.2,5.6,8.4,8.1,13.7c2.5,5.3-1.6,6.6-1.6,6.6
		s-0.4,0.1-1,0.4c-1.7,0.4-2.5-0.7-2.7,0.8c-0.3,1.8,0,3.6,0.5,3.4c0.4-0.1,2-0.1,3,0c0.2,0,0.4,0,0.6,0c0.7,0,1.3-0.1,1.9-0.4
		c0,0,0,0.1,0,0.1c0.5,1.1-0.6,0.2-0.5,1.8c0.1,1.6-0.2,2,3.4,3.7c3.3,1.5,14.9,2.2,16.9,2.3v0c0,0,0.1,0,0.1,0c0.1,0,0.1,0,0.1,0v0
		c2-0.1,13.6-0.8,16.9-2.3c3.6-1.7,3.3-2.1,3.4-3.7c0.1-1.6-1-0.6-0.5-1.8c0.5-1.1,1.1-4.4-0.7-6.5c-1.8-2-4.5-4-4.9-4.3
		c-0.1-0.1-0.1-0.2-0.1-0.5l23.7,6.7c-1.2,1.7-2.4,3.2-2.6,3.9c-0.1,0.4-0.1,0.9-0.1,1.4L44.7,95.5L84.6,86
		c-0.5,0.4-3.2,2.3-4.9,4.3c-1.8,2.1-1.1,5.4-0.7,6.6c0.5,1.2-0.6,0.2-0.5,1.8c0.1,1.6-0.2,2,3.5,3.7c3.4,1.5,15.1,2.2,17.1,2.3v0
		c0,0,0.1,0,0.1,0c0.1,0,0.1,0,0.1,0v0c2-0.1,13.8-0.8,17.1-2.3c3.7-1.7,3.4-2.1,3.5-3.7c0.1-1.6-1-0.6-0.5-1.8
		c0.5-1.2,1.1-4.5-0.7-6.6c-1.4-1.7-3.5-3.2-4.4-4l36.4,10.2c0,0-17.7-5.9-36.8-12.2c0.1-0.6,0.2-1.2,0-1.7c-0.2-0.6-1.1-1.7-2-3.1
		l15-3.5c0,0,0,0,0,0c-0.2,0.2-0.5,0.5-0.7,0.7c-1.8,2-1.1,5.3-0.7,6.5c0.5,1.1-0.6,0.2-0.5,1.8c0.1,1.6-0.2,2,3.4,3.7
		c1.1,0.5,3.3,0.9,5.7,1.3c3.5,0.7,9.5,1.1,10.7,1.1v0c0,0,0,0,0.1,0c0.1,0,0.1,0,0.1,0v0c0.9,0,4.4-0.2,7.7-0.7
		c3.8-0.4,8.1-0.9,9.9-1.8c3.6-1.7,3.3-2.1,3.4-3.7c0.1-1.6-1-0.6-0.5-1.8c0.5-1.1,1.1-4.4-0.7-6.5c-1.8-2-4.5-4-4.9-4.3
		c-0.4-0.3,0.5-2.1,0.1-3.3c-0.1-0.4-0.6-1.1-1.2-2c0-0.1,0-0.1-0.1-0.2c-0.1-0.2-0.1-0.5-0.2-0.8c0.1-0.1,0.1-0.2,0.2-0.3
		c1.3-2.5,2-5.1,2.2-7.8c0.2-3.4-1.2-6.1-3.5-8.5c-0.9-0.9-1.7-2-2.5-3c-0.1-0.1-0.2-0.3-0.2-0.5c-0.2-0.5-0.1-1,0.1-1.4
		c0.5,0.4,1,0.7,2,1.1c1.8,0.8,2.8-0.5,2.8-0.5s0.1-1.3,0-1.6c0-0.3,0.3-0.2,0.7-0.5c0.4-0.2,0.6-2.3,0.7-2.8
		c0.1-0.5,0.4-0.7,0.9-1.1c0.4-0.4-0.3-1.2-0.4-1.3c-0.1-0.1-1.9-2.4-1.9-2.4s0.1-0.6,0.2-1.3c0-0.2,0-0.3,0-0.5
		c-0.3,1-1.1,0.7-1.4,1.3c-0.3-1.1,0.3-1.7,0.5-2.4c-0.3-0.4-0.5-0.9-0.8-1.5c0,0,0.8-0.1,0.8,0.5c0,0.5,0.3-1-0.4-1.5
		c-0.7-0.4-1-1.1-0.8-1.5c0.2-0.3,0-1.2-1-1.2c-1-0.1-0.6-1.5-1.6-1.7c0,0,0.5,0.7,0,0.7c-0.5,0-1.4-0.8-2.2-0.6
		c-0.8,0.2-1,0.2-1.2,0.5c-0.2,0.2-1.2-0.5-1.7-0.6c-0.6-0.1,1.1,0.7,0,0.4c-0.2-0.1-0.4,0.1-0.5,0.4c-0.1,0-0.2-0.1-0.4-0.2
		c-0.7-0.4-1-0.3-1.2,0.3c-1.3-0.4-2-0.3-2.9,0c-0.6,0.2-1.2,0.4-1.8,0.5c-1.2,0.3-2.5,0.2-3.4,1.3c-0.1,0.1-0.3,0.2-0.5,0.2
		c-0.6,0.3-1.2,0.6-1.9,0.8c-2.4,0.6-3.2,2.3-3.4,3.8c0.6-0.9,1.8-1.7,3.2-1.4c-0.2,0.1-2.4,1.5-2.6,1.6c-1,0.7-2,1.6-2.1,2.8
		c-0.1,0.7-0.3,1.2-0.7,1.7c-0.4,0.7-1,1.3-1.2,2.1c-0.3,1.1-0.6,2.3-0.2,3.8c-0.1-1.6,0.9-2.6,0.9-2.4c0.1,1.2-0.4,5.4,0.2,6.6
		c0.8,1.5,0.4,2.9-0.7,4.3c0,0-0.1,1.2-1.1,2.4c-1,1.2-0.4,4.5-0.4,3.7c0-0.8,2.1-2,1.8-1.3c-0.3,0.7-0.7,1.2-0.9,2.8
		c-0.2,1.6,2.7,5,2.2,4.2c-0.5-0.9-0.1-3.3-0.1-3.3s1,1.7,1.5,3.4c0,0.1,0,0.3,0,0.4c-1.3,2-2.8,3.8-3.1,4.5
		c-0.2,0.7-0.1,1.5,0.1,2.2l-2.6,0.1L110,76.7c-0.5-0.8-0.9-1.5-1.1-2.3c-1.2-3.2-2.6-11.2-2.5-20c0.1-8.9,0-9.9,0-9.9
		s3.1-0.1,4.4-1.5c1.3-1.4,1.9-2.9,1.1-3.2c-0.8-0.3-3.3-0.7-3.7-1.6c-0.4-0.9,0.7-1.3-0.2-2c-0.8-0.7-1.3-0.1-1.3-2
		c0-1.9,1.1-3,1.9-4.7c0.9-1.7,3.4-7.1,2.8-9.7c-0.7-2.6-3.9-2.9-9.7-3.1c0,0,0.1-1.3-0.3-2c-0.4-0.6-0.5-1.5-0.5-1.7
		c-0.1-0.2,1.3-0.5,1.7,0c0.5,0.5,1.1,0.5,1.3,0.5c0.8-0.2,0.6-4.2,0-4.2c-0.6,0-2,0.9-2.4,1s-1.1-0.4-0.4-1s1.4-0.7,1.4-1.7
		s-0.4-1-0.8-1c-0.3,0-1.8,0-2.3,0v0c0,0-0.1,0-0.1,0c-0.1,0-0.1,0-0.1,0v0c-0.6,0-1.7,0-2,0c-0.4,0-1.1,0-1.1,1s0.7,1.1,1.4,1.7
		s0,1.1-0.4,1c-0.4-0.1-1.8-1-2.4-1c-0.6,0-0.8,3.7,0,4.2c0.2,0.1,0.9,0,1.3-0.5c0.5-0.5,1.8-0.2,1.7,0c-0.1,0.2-0.1,1.1-0.5,1.7
		c-0.4,0.6-0.3,2-0.3,2c-5.8,0.1-9,0.5-9.7,3.1c-0.7,2.6,1.9,8.1,2.8,9.7c0.9,1.7,1.9,2.8,1.9,4.7c0,1.9-0.5,1.3-1.3,2
		c-0.8,0.7,0.2,1.1-0.2,2c-0.4,0.9-2.9,1.3-3.7,1.6c-0.8,0.3-0.3,1.8,1.1,3.2c1.3,1.4,4.4,1.5,4.4,1.5s-0.1,1,0,9.9
		c0.1,8.9-1.3,16.8-2.5,20c-0.2,0.6-0.5,1.2-0.8,1.8c-12.1-3.9-21.3-6.7-22-6.5h-3.1c0-0.1,0-0.3-0.1-0.4c-0.1-0.4-0.6-1.1-1.2-2
		c0-0.1,0-0.1-0.1-0.2c-0.6-2.3-0.1-6.3,0.9-7.8c1-1.5,3.2-7.1,3.2-7.1c1.4-1.6,3-5.1,4.2-8.9c0.5-1.5,0.9-3.1,1.2-4.7c0,0,0,0,0,0
		c0-0.1,0-0.2,0.1-0.3c0.1-0.4,0.2-0.9,0.4-1.6c0.3-0.3,0.6-0.7,1.2-1.4c2.3-2.5,4.5-2.5,1.7-5.6c-2.7-3.1-0.9-4.1-5.4-7
		c-0.9-0.6-1.6-1.1-2.2-1.6c-2.9-3-6.2-5.8-8.3-6.3C56,14.2,49,13.5,45.7,15l-3.3,1.5c0,0-2.7-1.4-5.5-1.1c-2.8,0.3-5.3,1.1-6.8,2.3
		c-1.5,1.2-2.8,4.2-4.1,5.7c-1.3,1.5-3,3.9-3,5c-0.1,1,0.2,4.3-0.2,6.3c-0.5,2-2.4,8.4-2.5,9.9c-0.1,1.9-3.2,5.7-4.9,6.9
		c-1.7,1.2-3.5,2.5-6.9,3.1C10,55.9,13.2,55.7,15.1,54.8z M160.7,39.8c0.1-0.1,0.5-0.3,0.7-0.3c-0.2,0.2-0.4,0.4-0.5,0.8
		c0,0.1,0,0.2-0.1,0.3c-0.1,0.1-0.4,0.5-0.4,1C160.4,41.1,160.2,40.3,160.7,39.8z M160,39.7c0.5,0.6-0.1,2.4,0,1.6
		c0.1-0.8-0.6-1.3-1.3-1.6c-0.7-0.3-0.9-0.8-0.9-0.8S159.5,39.2,160,39.7z M159.2,41.8c0.3,0,0.8,0.3,0.7,1
		c-0.1,0.7-0.8-0.2-1.6,0.2c-0.8,0.4-2.4,0.8-3.1,0.8c-0.7,0-1.6-0.5-1.6-1V42c0.4,0.3,1.7,1.4,2.5,1.4
		C156.8,43.3,158.9,41.8,159.2,41.8z M152.8,32.5c1.2-0.2,2.5-0.2,2.8,0.4c0.4,0.6,0.8,1.9,1.5,2.3c0,0,0,0-0.1,0
		c-0.6-0.2-2.2-0.3-3.5-0.7c-1.6-0.6-2.2-1.6-3.5-1.6C150,32.9,151.6,32.7,152.8,32.5z M131.7,74.5c0,0-1.7,4.5,3.8,5.5
		c10.1,2,19.7,0.2,28.5-1.9c2.1,2.6,2.8,5.7-12.1,6.6c-14.9,0.9-24.1-0.7-25.2-2.3c-1-1.5-1.6-2.9,0.9-5.6
		C130.3,74.1,131.9,73.1,131.7,74.5z M102.2,83L102.2,83c0.2-0.2,0.4-0.3,0.6-0.5c0.1-0.1,0.3-0.2,0.4-0.3c1-0.7,2.1-1.9,2.2-4.2
		c0,0,0,0,0,0h0c0-0.2,0-0.3,0-0.5c0-2.9,0.7-2.3,0.7-2.3c0.5-0.1,1.3,0.8,2.1,2h0c0.1,0.2,0.2,0.4,0.4,0.6c0,0.1,0.1,0.1,0.1,0.2
		c0.1,0.2,0.2,0.4,0.3,0.5c0,0.1,0.1,0.1,0.1,0.2c0.1,0.2,0.2,0.4,0.3,0.6c0,0,0,0.1,0.1,0.1c0.1,0.2,0.2,0.5,0.3,0.7
		c0.3,0.9,0.5,1.7,0.4,2.3c0,0.2-0.1,0.4-0.1,0.6c-0.2,0.5-0.7,0.9-1.2,1.2c0,0-0.1,0-0.1,0c-0.2,0.1-0.4,0.2-0.6,0.2h0
		c-1.5,0.5-3.4,0.5-4.8,0.4C101.2,84.8,101.4,83.7,102.2,83z M47.2,42.9c0.6-2.5,2.5-8.6,2.2-6.3c-0.4,2.6-0.5,7.1-0.2,9.8
		c0.3,1,1,2.1,3.3,1.7c3.8-0.5,4.9-1.7,7.3-4c2.5-2.3,3.9-3.8,6-4c2.1-0.2,3.2-0.9,3.2-0.9s2.3-0.3-3.8,2.7c-6.2,3-3.6,4-7.4,6.3
		c-3.8,2.3-9.3,3.4-10.7,1.5C46.4,49.1,46.6,45.5,47.2,42.9z M67.4,78.2c2.1,2.6,2.8,5.7-12.1,6.6c-14.9,0.9-24.1-0.7-25.2-2.3l0,0
		l0,0c0.3-0.9,3.4-1.3,3.9-8.3c0.7-0.4,1.1-0.3,1,0.4c0,0-3.3,4.6,2.1,6.3C44.7,83.3,61.4,81.8,67.4,78.2z M38,29.7
		c1.8,1-3.2,4.5-5,0C33,29.7,36.2,28.8,38,29.7z M35.2,48.2c0,0,1.2-1.2,1.9-2.6c0.7-1.4,0.1,2.4,0,3.6v0c-0.5,3-0.7,7.1,0.4,11.4
		c0.4,1.6,0.4,3,0.2,4.2c0,0,0.1,3.9-0.8,4.8c-0.9,0.9-0.9,1.6-1.3,2.6c-0.2,0.7-1.1,1.8-1.6,1.2c0-1.4,0-3.1-0.2-5
		c0-0.3-0.1-0.5-0.1-0.8c0-0.1,0-0.2,0-0.2c0-0.1,0-0.3-0.1-0.4c-0.7-3.5-2.5-5.7-2.5-5.7c-0.6-0.9-1.4-2.5-1.7-3.8
		C35.1,54.7,35.2,48.2,35.2,48.2z M29.7,49.9c0.6,0,2.2-0.6,2.2-0.6s0.6,1.8-0.9,3.9c-0.6,0.8-1.2,1.8-2,2.7
		C28.1,53.1,28.5,50.9,29.7,49.9z"/>
</g>
<path d="M21,44.6c0,0.1,0,0.5,0,0.5l-0.1-0.7c0,0,0-0.7,0-0.7"/>
</svg>
