<?xml version="1.0" encoding="utf-8"?>
<!-- Generator: Adobe Illustrator 23.1.1, SVG Export Plug-In . SVG Version: 6.00 Build 0)  -->
<svg version="1.1" id="Capa_1" xmlns="http://www.w3.org/2000/svg" xmlns:xlink="http://www.w3.org/1999/xlink" x="0px" y="0px"
	 viewBox="0 0 149 250" style="enable-background:new 0 0 149 250;" xml:space="preserve">
<style type="text/css">
	.st0{fill:#3E3F3C;}
	.st1{fill:#0B0F0D;}
</style>
<path class="st0" d="M125.7,201.5c-3.9-1.1-4.7-4.5-4.4-7.8c0-0.5-0.5-0.7-0.9-0.5c-14.3,5.7-25.1,7.6-46,7.6
	c-22.1,0-31.1-3-44.6-7.6c-0.5-0.2-1,0-0.9,0.5c0.3,3.2-0.4,6.7-4.4,7.8c-0.1,0-0.2,0.1-0.3,0.2c-0.8,1-3.6,9.6,50.9,10.4
	c54.5-0.8,51.6-9.4,50.9-10.4C125.9,201.6,125.8,201.5,125.7,201.5"/>
<path class="st1" d="M75.1,213.1c-31.3-0.4-49.3-3.6-51.9-9.1c-0.6-1.3-0.3-2.4,0.2-3c0.2-0.2,0.5-0.4,0.8-0.5
	c2.8-0.8,3.9-2.9,3.6-6.6c0-0.5,0.2-1,0.6-1.3c0.5-0.4,1.1-0.5,1.8-0.2c13.3,4.5,22.1,7.5,44.2,7.5c20.4,0,31.1-1.7,45.6-7.5
	c0.6-0.2,1.3-0.2,1.8,0.2c0.4,0.3,0.7,0.8,0.6,1.4c-0.3,3.7,0.9,5.9,3.6,6.6c0.3,0.1,0.6,0.3,0.8,0.5c0.5,0.6,0.8,1.7,0.2,3
	C124.4,209.5,106.4,212.7,75.1,213.1 M25,202.5c0,0.1,0,0.4,0.1,0.7c0.9,1.7,7.2,7.2,50,7.8c42.7-0.6,49-6.1,49.9-7.8
	c0.2-0.3,0.2-0.6,0.1-0.7c-2.5-0.8-5.2-2.8-5-8c-14.5,5.7-25.3,7.4-45.8,7.4c-22.2,0-31.6-3.1-44.4-7.4
	C30.2,199.7,27.5,201.7,25,202.5 M24.8,202.5C24.8,202.5,24.8,202.5,24.8,202.5C24.8,202.5,24.8,202.5,24.8,202.5 M120.3,193.7
	L120.3,193.7L120.3,193.7z M30,193.6L30,193.6L30,193.6z"/>
<path class="st0" d="M142.7,227.3c-6-5.2-10.9-14.4-10.9-14.4s-2.6-4.4-6-4.3c-0.1,0-0.1,0-0.2,0c-3.4,0.2-3.8,7.1-50.5,7.1
	c-45.6,0-47.1-6.9-50.5-7.1c-0.1,0-0.1,0-0.2,0c-3.4-0.1-6,4.3-6,4.3s-4.9,9.2-10.9,14.4c-6,5.2,3.6,11.3,8.3,13.1
	c5.2,2.1,23.2,7,59.3,7c36.1,0,54.1-4.9,59.3-7C139,238.6,148.6,232.5,142.7,227.3"/>
<path class="st1" d="M75.1,248.5c-40.9,0-57.9-6.3-59.7-7c-3.4-1.4-10-5.1-10.8-9.7c-0.2-1.3,0-3.3,2.2-5.2
	c5.8-5,10.6-14.1,10.6-14.1c0.1-0.2,2.9-4.9,6.8-4.9c0.1,0,0.1,0,0.2,0c1.1,0.1,1.9,0.4,2.9,1c3.5,1.8,11.8,6.1,47.8,6.1h0
	c36.9,0,44.6-4.3,47.9-6.1c0.9-0.5,1.7-0.9,2.6-1l0.1,0l0.2,0c3.9-0.2,6.7,4.6,6.9,4.8c0.1,0.1,4.9,9.2,10.6,14.2
	c2.2,1.9,2.4,3.9,2.2,5.2c-0.8,4.5-7.4,8.3-10.8,9.7C133,242.2,116.1,248.5,75.1,248.5 M24.4,209.6c-2.3,0-4.4,2.7-5.1,3.8
	c-0.2,0.3-5,9.4-11.1,14.7c-1.2,1.1-1.7,2.1-1.5,3.3c0.5,3.1,5.9,6.6,9.5,8.1c1.8,0.7,18.3,6.9,58.9,6.9c40.6,0,57.1-6.2,58.9-6.9
	c3.6-1.4,8.9-4.9,9.5-8.1c0.2-1.2-0.3-2.3-1.5-3.3c-6-5.3-10.9-14.4-11.1-14.7c-0.6-1-2.7-3.7-4.9-3.7c0,0-0.1,0-0.1,0l-0.1-1.1
	l-0.1,1c-0.4,0-0.8,0.3-1.6,0.7c-3.4,1.9-11.4,6.4-48.9,6.4h0c-36.5,0-45.1-4.5-48.8-6.4C25.5,209.9,25,209.7,24.4,209.6
	C24.5,209.6,24.5,209.6,24.4,209.6"/>
<path class="st0" d="M142.4,86.7c-9.9-7.1-35.5-3.1-49.2-8.6c-13.7-5.6-9.7-19.8-7.3-24.7s25.3-2.2,25.3-12.3
	c0-6.6-11.1-9.7-18.9-11.1c-4.2-0.7-7.4-4.2-7.8-8.5c-1.9-20-9.4-17.5-9.4-17.5s-7.5-2.5-9.4,17.5c-0.4,4.3-3.6,7.8-7.8,8.5
	C50.1,31.2,39,34.3,39,41c0,10.2,22.8,7.4,25.3,12.3c2.5,4.9,6.4,19.1-7.3,24.7c-13.7,5.6-39.3,1.5-49.2,8.6
	c-9.9,7.1,3.4,21.6,9.6,37.7c4.8,12.4,12.7,29.1,15.2,37.5c1,3.3,3.6,5.7,6.9,6.5c7.3,1.7,19.7,4.1,32.2,4
	c13.2-0.1,29.6-2.8,38.6-4.4c3.5-0.6,6.3-3.2,7.4-6.6c2.6-8.5,10.3-24.8,15-37C139,108.3,152.3,93.8,142.4,86.7"/>
<path class="st1" d="M70.9,173.4c-12,0-23.8-2.2-31.6-4.1c-3.7-0.9-6.6-3.6-7.7-7.2c-1.4-4.8-4.7-12.5-8.2-20.6
	c-2.4-5.7-5-11.6-7-16.8c-1.8-4.6-4.1-9.1-6.4-13.4C4.4,100.6-0.5,91.4,7.2,85.8c5.6-4,15.5-4.6,26-5.2c8.5-0.5,17.3-1,23.5-3.5
	c4.1-1.7,6.9-4.3,8.2-7.8c2.1-5.6,0.1-12.4-1.5-15.5c-0.7-1.5-5.2-2.3-9.2-3C47,49.5,38,48,38,41c0-7.2,10.7-10.5,19.7-12.1
	c3.7-0.7,6.6-3.8,6.9-7.6c0.9-9.4,3.2-15.3,6.7-17.6c1.7-1.1,3.1-1,3.8-0.9c0.7-0.1,2.1-0.2,3.8,0.9c3.5,2.3,5.7,8.2,6.7,17.6
	c0.4,3.8,3.2,6.9,6.9,7.6c9,1.6,19.7,5,19.7,12.1c0,7-9,8.6-16.2,9.8c-4,0.7-8.4,1.5-9.2,3c-1.5,3.1-3.6,9.8-1.5,15.5
	c1.3,3.5,4.1,6.1,8.2,7.8c6.2,2.5,15,3,23.5,3.5c10.5,0.6,20.4,1.2,26,5.2c7.7,5.6,2.9,14.8-2.8,25.5c-2.3,4.3-4.6,8.8-6.4,13.4
	c-2,5.2-4.5,11.1-7,16.8c-3.4,7.9-6.6,15.3-8.1,20.2c-1.2,3.8-4.3,6.6-8.2,7.3c-8.7,1.6-25.4,4.3-38.8,4.4
	C71.5,173.4,71.2,173.4,70.9,173.4 M74.3,4.9c-0.4,0-1.1,0.1-1.9,0.7c-1.6,1.1-4.5,4.6-5.6,16c-0.5,4.7-4,8.6-8.7,9.4
	c-6.7,1.2-18,4-18,10c0,5.2,7.7,6.6,14.5,7.8c5.3,0.9,9.5,1.7,10.7,4.1c0.5,0.9,4.5,9.4,1.6,17.1c-1.5,4.1-4.7,7.1-9.4,9
	C51,81.6,42,82.2,33.3,82.7c-10.2,0.6-19.8,1.2-24.8,4.8c-6,4.3-2.6,11.5,3.4,22.8c2.3,4.4,4.7,8.9,6.5,13.6c2,5.1,4.5,11,6.9,16.7
	c3.5,8.2,6.8,15.9,8.3,20.9c0.8,2.9,3.2,5.1,6.1,5.8c6.5,1.5,19.3,4.1,32,4c13.2-0.1,29.8-2.8,38.4-4.4c3.1-0.6,5.6-2.8,6.6-5.9
	c1.5-5,4.7-12.5,8.1-20.4c2.4-5.7,5-11.6,6.9-16.7c1.8-4.7,4.2-9.2,6.5-13.6c6-11.4,9.4-18.5,3.4-22.8v0c-5.1-3.7-14.7-4.2-24.8-4.8
	c-8.7-0.5-17.7-1.1-24.1-3.7c-4.7-1.9-7.8-4.9-9.4-9c-2.9-7.8,1.1-16.2,1.6-17.1c1.2-2.4,5.4-3.2,10.7-4.1
	c6.8-1.2,14.5-2.5,14.5-7.8c0-6-11.3-8.9-18-10c-4.6-0.8-8.2-4.7-8.7-9.4c-1.1-11.3-4-14.9-5.6-16c-1.3-0.9-2.4-0.6-2.4-0.6L75.1,5
	l-0.3-0.1C74.8,4.9,74.6,4.9,74.3,4.9"/>
<path class="st0" d="M78.5,176c14.4,0.1,28.7-3.1,35.1-4.7c2-0.5,4.1,0.1,5.6,1.5c0,0,0,0,0,0c0.9,0.9,1.9,1.9,3,2.7
	c0.9,0.9,1.5,1.8,1.3,2.6c-0.1,0.3-0.2,0.5-0.3,0.7c-0.1,0.1-0.2,0.2-0.3,0.3c-0.3,0.3-0.7,0.5-1.1,0.7c-0.4,0.2-0.7,0.4-0.9,0.6
	c-8.6,4.8-25.3,6.6-45.7,7c-20.4-0.4-37.1-2.2-45.7-7c-0.3-0.2-0.6-0.3-0.9-0.6c-0.4-0.2-0.8-0.5-1.1-0.7c-0.1-0.1-0.2-0.2-0.3-0.3
	c-0.1-0.2-0.3-0.4-0.3-0.7c-0.1-0.8,0.5-1.6,1.3-2.6c1.1-0.8,2.1-1.8,3-2.7c0,0,0,0,0,0c1.5-1.4,3.6-2,5.6-1.5
	c6.4,1.7,20.8,4.9,35.1,4.7H78.5z"/>
<path class="st1" d="M75.1,188.3c-23.3-0.4-38.4-2.8-46.3-7.1c-0.3-0.2-0.5-0.3-0.7-0.4l-0.2-0.1c-0.5-0.3-0.9-0.6-1.2-0.8
	c-0.2-0.1-0.3-0.3-0.4-0.4c-0.3-0.4-0.5-0.7-0.6-1.1c-0.3-1.4,0.7-2.7,1.6-3.6c1-0.8,1.9-1.7,2.9-2.7c1.9-1.7,4.4-2.4,6.7-1.8
	c7,1.8,20.9,4.9,34.8,4.7h6.7c13.9,0.1,27.8-2.9,34.8-4.7c2.3-0.6,4.8,0,6.6,1.7c1.1,1.1,2,2,2.9,2.7c1,1,2,2.2,1.7,3.6
	c-0.1,0.5-0.3,0.8-0.6,1.1c-0.2,0.2-0.3,0.3-0.5,0.5c-0.4,0.3-0.7,0.5-1.1,0.7l-0.4,0.2c-0.2,0.1-0.4,0.2-0.6,0.4
	C113.5,185.5,98.3,187.9,75.1,188.3 M35.2,172.1c-1.2,0-2.5,0.5-3.5,1.4c-1.1,1.1-2.1,2-3,2.8c-1,1-1,1.5-1,1.5c0,0,0.1,0.1,0.1,0.2
	c0.4,0.3,0.7,0.5,1.1,0.7l0.3,0.2c0.3,0.2,0.6,0.3,0.8,0.5c7.5,4.1,22.3,6.4,45.1,6.8c22.8-0.4,37.6-2.7,45.2-6.9
	c0.1-0.1,0.4-0.3,0.7-0.4l0.2-0.1c0.4-0.2,0.7-0.4,1-0.7c0.2-0.2,0.2-0.3,0.2-0.4c0,0,0-0.4-1.1-1.5c-0.8-0.6-1.9-1.6-3-2.7
	c-1.3-1.2-3-1.6-4.6-1.2c-7.1,1.8-21.3,4.9-35.4,4.8h-6.7c-14.2,0.2-28.3-2.9-35.4-4.8C36,172.2,35.6,172.1,35.2,172.1"/>
<path class="st0" d="M122.3,186.1c-0.5-0.1-0.9-0.1-1.4,0c-3.6,1.1-21,6.9-45.8,6.4c-24.7,0.5-42.1-5.3-45.8-6.4
	c-0.5-0.1-0.9-0.1-1.4,0c-1.5,0.4-4.4,1.1-1.2,2.4c5.4,2.3,25.9,7.4,48.3,7c22.5,0.4,42.9-4.7,48.3-7
	C126.6,187.2,123.8,186.5,122.3,186.1"/>
<path class="st1" d="M72.8,196.5c-22.3,0-41.7-5.1-46.4-7.1c-0.6-0.3-2.2-0.9-2.1-2.2c0.1-1.3,1.7-1.8,3.2-2.2
	c0.8-0.2,1.5-0.2,2.1,0l0.9,0.3c5.3,1.6,21.7,6.5,44.5,6c22.9,0.5,39.2-4.4,44.5-6l0.9-0.3c0.6-0.2,1.3-0.2,2,0l-0.3,1l0.5-1
	c1.5,0.4,3.1,0.9,3.2,2.2c0.1,1.3-1.4,1.9-2.1,2.2c-4.9,2-25.4,7.4-48.8,7.1C74.3,196.5,73.6,196.5,72.8,196.5 M27,187.4
	c0,0,0.1,0,0.1,0.1c4.8,2,24.9,7.3,47.9,6.9c23,0.4,43.2-4.9,48-6.9c0.1,0,0.1,0,0.1-0.1c-0.4-0.1-0.8-0.2-1-0.3l-0.2-0.1
	c-0.3-0.1-0.5-0.1-0.8,0l-0.9,0.3c-5.4,1.6-22,6.6-45.1,6.1C51.9,194,35.4,189,30,187.4l-0.9-0.3c-0.3-0.1-0.6-0.1-0.8,0
	C27.9,187.2,27.4,187.3,27,187.4"/>
</svg>
