<?xml version="1.0" encoding="utf-8"?>
<!-- Generator: Adobe Illustrator 23.1.1, SVG Export Plug-In . SVG Version: 6.00 Build 0)  -->
<svg version="1.1" id="Capa_1" xmlns="http://www.w3.org/2000/svg" xmlns:xlink="http://www.w3.org/1999/xlink" x="0px" y="0px"
	 viewBox="0 0 250 250" style="enable-background:new 0 0 250 250;" xml:space="preserve">
<style type="text/css">
	.st0{fill:#382517;}
	.st1{fill:#FFFFFF;}
	.st2{opacity:0.25;}
	.st3{fill:#E7D5B6;}
	.st4{opacity:0.25;enable-background:new    ;}
	.st5{opacity:0.25;fill:#E7D5B6;enable-background:new    ;}
</style>
<g>
	<circle class="st0" cx="126.6" cy="18.8" r="7.5"/>
	<path class="st1" d="M126.6,32.3c-7.5,0-13.5-6.1-13.5-13.5c0-7.5,6.1-13.5,13.5-13.5s13.5,6.1,13.5,13.5
		C140.1,26.3,134,32.3,126.6,32.3z M126.6,17.3c-0.8,0-1.5,0.7-1.5,1.5c0,0.8,0.7,1.5,1.5,1.5s1.5-0.7,1.5-1.5
		C128.1,17.9,127.4,17.3,126.6,17.3z"/>
</g>
<g>
	<g>
		<path class="st1" d="M161.5,59c-1-1.7-2.7-2.8-4.7-3c-0.6-0.1-1.1-0.7-1-1.3c0-1.1-0.2-2.2-0.7-3.1c-2.1-4.1-6.7-8.5-14.2-15.7
			c-3.8-3.6-8.2-8-13.3-13c-0.5-0.5-1.2-0.5-1.7-0.1c-2.9,2.6-5.8,5.1-8.8,7.6c-16.5,14-33.7,28.5-33.7,50.8
			c0,16.8,5,29.6,16.6,42.5c1.5,1.6,3.6,2.5,5.7,2.5l38.3,0c2.1,0,4-0.8,5.5-2.3c9.2-9.1,18.3-25.6,18.3-42.8
			C167.8,73.2,165.6,65.6,161.5,59z M126.1,39.6c2,1.9,3.8,3.7,5.6,5.4l0.2,0.1c3.7,3.6,7.3,7,9.5,9.5c0.3,0.4,0.4,0.9,0.2,1.4
			c-3.1,6.3-9.1,14.8-15,21.4c-2.1,2.3-2.6,5.7-1.3,8.5c1.4,3,3.3,5.6,3.5,5.9c1.7,2.3,4.7,3.2,7.4,2.2c5.1-1.8,11.3-8.7,16.4-15.3
			c0.7-0.9,2.2-0.5,2.3,0.7c0,0.5,0.1,1.1,0.1,1.6c0,11.9-6.3,24.3-12.6,31.6c-0.2,0.3-0.6,0.4-1,0.4h-32.6c-0.4,0-0.7-0.2-1-0.5
			c-8.1-9.7-11.4-18.9-11.4-31.5c0-16.2,14.1-28.2,29.1-40.9L126.1,39.6z"/>
	</g>
	<g>
		<path class="st1" d="M183.7,197.4c-5-26.9-36.8-34-38.2-35.4l-1.8-1.7h-39l-1.8,1.7c-1.4,1.4-32.9,7.3-37.7,35.4
			c-5.1,3-9.4,8.5-9.4,18.1v8.1h6.1h131.3v-7.8C193.2,206.6,188.7,200.6,183.7,197.4z"/>
	</g>
	<g>
		<path class="st0" d="M178.1,201.3c-2.6-25.6-36.9-34.9-36.9-34.9h-34.1c0,0-34,8-36.3,35c-4.4,1.6-8.9,5.5-8.9,14l125.1,0.2
			C187.1,207.3,182,202.9,178.1,201.3z"/>
	</g>
	<g>
		<rect x="104.4" y="132" class="st1" width="40.3" height="34.4"/>
	</g>
	<g>
		<rect x="110.6" y="128.1" class="st0" width="28" height="32.2"/>
	</g>
	<g>
		<g>
			<path class="st0" d="M127.7,32c-0.7-0.7-1.8-0.7-2.6-0.1C109.5,45,88.8,60.3,88.8,81.1c0,13.8,4.4,25.5,16.3,38.5h39.4
				c8.1-7.8,16.8-23.1,16.8-38.5c0-6.8-2-13.2-5.4-18.7c-4.4,7.4-15.3,19.3-20.7,24.3c-0.7,0.7-1.8,0.5-2.3-0.3
				c-0.5-0.8-1.1-1.7-1.6-2.8c-0.4-0.8-0.3-1.7,0.3-2.3c6-7.2,14-17.5,17.6-26.9C147,50.1,140,43.5,127.7,32z"/>
		</g>
	</g>
	<g class="st2">
		<g>
			<path class="st3" d="M125.1,31.9C109.5,45,88.8,60.3,88.8,81.1c0,13.8,4.4,25.5,16.3,38.5h10C87.8,74.2,125.8,31.3,125.1,31.9z"
				/>
		</g>
	</g>
	<g class="st4">
		<path class="st3" d="M107.1,166.4c-10.8,2.9-34.3,12.4-36.2,35c-4.4,1.6-8.9,5.5-8.9,14l38.9,0.1
			C88.9,197.5,96.7,180.6,107.1,166.4z"/>
	</g>
	<path class="st1" d="M200.2,227.1L200.2,227.1c0-0.9,0-2.4-0.5-3.9c-1.9-6.2-6.8-9.8-13.6-9.8H66.5h-1.2c-0.9,0-1.8,0-2.6,0
		c-8.4,0.1-14,5.8-14,14.2v5c0,1.2,0,4.7,2.6,7.4c2.6,2.6,6.2,2.6,7.3,2.6h131.9c5.7,0,9.6-3.9,9.6-9.6v-1.1
		C200.3,230.3,200.3,228.7,200.2,227.1z"/>
	<path class="st0" d="M124.5,236.4c-21.9,0-43.9,0-65.8,0c-2.9,0-3.8-1-3.8-3.9c0-1.7,0-3.3,0-5c0-4.9,3-8,7.9-8c1.2,0,2.5,0,3.7,0
		c39.9,0,79.7,0,119.6,0c4,0,6.7,1.9,7.8,5.4c0.2,0.7,0.2,1.5,0.2,2.3c0,1.9,0,3.8,0,5.7c0,2.4-1.1,3.5-3.5,3.5
		C168.6,236.4,146.6,236.4,124.5,236.4z"/>
	<path class="st5" d="M102.4,219.5c-11.3,0-24.6,0-35.9,0c-1.2,0-2.5,0-3.7,0c-4.9,0.1-7.9,3.1-7.9,8c0,1.7,0,3.3,0,5
		c0,2.9,1,3.9,3.8,3.9c10.4,0,43.3,0,53.7,0C108.7,231.8,105.7,227.1,102.4,219.5z"/>
	<g>
		<g>
			<path class="st1" d="M155.6,120.3H93.4c-6.5,0-11.7,5.3-11.7,11.7c0,6.5,5.3,11.7,11.7,11.7h62.3c6.5,0,11.7-5.3,11.7-11.7
				C167.3,125.6,162.1,120.3,155.6,120.3z"/>
		</g>
		<g>
			<path class="st0" d="M93.4,137.6h62.3c3.1,0,5.6-2.5,5.6-5.6c0-3.1-2.5-5.6-5.6-5.6H93.4c-3.1,0-5.6,2.5-5.6,5.6
				C87.8,135.1,90.3,137.6,93.4,137.6z"/>
		</g>
		<g class="st4">
			<path class="st3" d="M93.4,137.6h13.5c1-4.2,2.9-7.8,6.8-11.2H93.4c-3.1,0-5.6,2.5-5.6,5.6C87.8,135.1,90.3,137.6,93.4,137.6z"/>
		</g>
	</g>
</g>
<g>
	<circle class="st0" cx="126.6" cy="18.8" r="7.5"/>
</g>
</svg>
