<?xml version="1.0" encoding="utf-8"?>
<!-- Generator: Adobe Illustrator 23.1.1, SVG Export Plug-In . SVG Version: 6.00 Build 0)  -->
<svg version="1.1" id="Capa_1" xmlns="http://www.w3.org/2000/svg" xmlns:xlink="http://www.w3.org/1999/xlink" x="0px" y="0px"
	 viewBox="0 0 250 250" style="enable-background:new 0 0 250 250;" xml:space="preserve">
<style type="text/css">
	.st0{fill:#382517;}
	.st1{fill:#FBF5EA;}
	.st2{opacity:0.7;fill:#E7D5B6;}
</style>
<g>
	<path class="st0" d="M183.7,196.4c-5-26.9-36.8-58-38.2-59.4l-1.8-1.7h-39l-1.8,1.7c-1.4,1.4-32.9,31.3-37.7,59.4
		c-5.1,3-9.4,8.5-9.4,18.1l0,8.1h6.1l131.3,0v-7.8C193.2,205.6,188.7,199.6,183.7,196.4z"/>
	<path class="st1" d="M178.1,200.3c-2.6-25.6-36.9-58.9-36.9-58.9h-34.1c0,0-34,32-36.3,59c-4.4,1.6-8.9,5.5-8.9,14l125.1,0.2
		C187.1,206.3,182,201.9,178.1,200.3z"/>
	<rect x="104.4" y="97" class="st0" width="40.3" height="34.4"/>
	<rect x="110.6" y="103.1" class="st1" width="28" height="22.2"/>
	<path class="st0" d="M138.7,17.6c-1.6-6.5-7.4-11.2-14.2-11.2c-6.8,0-12.6,4.7-14.2,11.2c-14.2,5.7-23.7,19.7-23.7,35.1
		c0,14.1,5.4,24.5,14.7,37.7l1.8,2.6h41.6l1.8-2.9c0.5-0.9,1.2-1.9,2-3l0.1-0.1c5.1-7.7,13.7-20.7,13.7-34.3
		C162.3,37.4,152.9,23.4,138.7,17.6z"/>
	<path class="st1" d="M132.8,22.1c0-0.4,0.1-0.7,0.1-1.1c0-4.7-3.8-8.4-8.4-8.4c-4.7,0-8.4,3.8-8.4,8.4c0,0.4,0,0.8,0.1,1.1
		c-13.5,3.7-23.4,16-23.4,30.6c0,12.3,4.8,21.7,13.6,34.2c0,0,31.4,0,35,0c4.2-6.6,14.9-20.5,14.9-34.2
		C156.2,38.1,146.3,25.8,132.8,22.1z"/>
	<path class="st2" d="M105.7,142.8c-7.8,7.9-32.9,35-34.8,57.6c-4.4,1.6-8.9,5.5-8.9,14l38.9,0.1C88.9,196.5,95.3,157,105.7,142.8z"
		/>
	<path class="st0" d="M200.2,226.1L200.2,226.1c0-0.9,0-2.4-0.5-3.9c-1.9-6.2-6.8-9.8-13.6-9.8l-119.6,0l-1.2,0c-0.9,0-1.8,0-2.6,0
		c-8.4,0.1-14,5.8-14,14.2l0,5c0,1.2,0,4.7,2.6,7.4c2.6,2.6,6.2,2.6,7.3,2.6h131.9c5.7,0,9.6-3.9,9.6-9.6l0-1.1
		C200.3,229.3,200.3,227.7,200.2,226.1z"/>
	<path class="st1" d="M124.5,235.4c-21.9,0-43.9,0-65.8,0c-2.9,0-3.8-1-3.8-3.9c0-1.7,0-3.3,0-5c0-4.9,3-8,7.9-8c1.2,0,2.5,0,3.7,0
		c39.9,0,79.7,0,119.6,0c4,0,6.7,1.9,7.8,5.4c0.2,0.7,0.2,1.5,0.2,2.3c0,1.9,0,3.8,0,5.7c0,2.4-1.1,3.5-3.5,3.5
		C168.6,235.4,146.6,235.4,124.5,235.4z"/>
	<path class="st2" d="M101.4,66.8c0-20.6,13.1-38.2,31.4-44.8c0-0.3,0.1-0.7,0.1-1c0-4.7-3.8-8.4-8.4-8.4c-4.7,0-8.4,3.8-8.4,8.4
		c0,0.4,0,0.8,0.1,1.1c-13.5,3.7-23.4,16-23.4,30.6c0,11.7,4.3,20.7,12.3,32.3C102.7,79.4,101.4,73.3,101.4,66.8z"/>
	<path class="st2" d="M102.4,218.5c-11.3,0-24.6,0-35.9,0c-1.2,0-2.5,0-3.7,0c-4.9,0.1-7.9,3.1-7.9,8c0,1.7,0,3.3,0,5
		c0,2.9,1,3.9,3.8,3.9c10.4,0,43.3,0,53.7,0C108.7,230.8,105.7,226.1,102.4,218.5z"/>
	<g>
		<path class="st0" d="M155.6,83H93.4c-6.5,0-11.7,5.3-11.7,11.7c0,6.5,5.3,11.7,11.7,11.7h62.3c6.5,0,11.7-5.3,11.7-11.7
			C167.3,88.3,162.1,83,155.6,83z"/>
		<path class="st1" d="M93.4,100.3h62.3c3.1,0,5.6-2.5,5.6-5.6c0-3.1-2.5-5.6-5.6-5.6H93.4c-3.1,0-5.6,2.5-5.6,5.6
			C87.8,97.8,90.3,100.3,93.4,100.3z"/>
		<path class="st2" d="M93.4,100.3h13.5c1-4.2,2.9-7.8,6.8-11.2H93.4c-3.1,0-5.6,2.5-5.6,5.6S90.3,100.3,93.4,100.3z"/>
	</g>
	<g>
		<path class="st0" d="M155.6,126.6H93.4c-6.5,0-11.7,5.3-11.7,11.7c0,6.5,5.3,11.7,11.7,11.7h62.3c6.5,0,11.7-5.3,11.7-11.7
			C167.3,131.8,162.1,126.6,155.6,126.6z"/>
		<path class="st1" d="M93.4,143.8h62.3c3.1,0,5.6-2.5,5.6-5.6s-2.5-5.6-5.6-5.6H93.4c-3.1,0-5.6,2.5-5.6,5.6S90.3,143.8,93.4,143.8
			z"/>
		<path class="st2" d="M93.4,143.8h13.5c1-4.2,2.9-7.8,6.8-11.2H93.4c-3.1,0-5.6,2.5-5.6,5.6S90.3,143.8,93.4,143.8z"/>
	</g>
</g>
</svg>
