<?xml version="1.0" encoding="utf-8"?>
<!-- Generator: Adobe Illustrator 23.1.1, SVG Export Plug-In . SVG Version: 6.00 Build 0)  -->
<svg version="1.1" id="Capa_1" xmlns="http://www.w3.org/2000/svg" xmlns:xlink="http://www.w3.org/1999/xlink" x="0px" y="0px"
	 viewBox="0 0 170 250" style="enable-background:new 0 0 170 250;" xml:space="preserve">
<style type="text/css">
	.st0{fill:#3E3F3C;}
	.st1{fill:#0B0F0E;}
	.st2{fill:#FFFFFF;}
</style>
<path class="st0" d="M122,199.4c-3.9-1.1-4.6-4.5-4.3-7.6c0-0.5-0.5-0.8-0.9-0.5c-9.4,6.8-24,10-44.6,10c-21.7,0-35.2-3.2-44.6-10
	c-0.4-0.3-1,0-0.9,0.5c0.3,3.2-0.4,6.6-4.3,7.6c-0.1,0-0.2,0.1-0.3,0.2c-0.8,0.9-3.6,9.5,50.1,10.2c53.7-0.7,50.9-9.3,50.1-10.2
	C122.2,199.4,122.1,199.4,122,199.4"/>
<path class="st1" d="M72.2,210.8c-30.9-0.4-48.5-3.5-51.1-9c-0.6-1.3-0.3-2.4,0.2-2.9c0.2-0.2,0.5-0.4,0.8-0.5
	c2.7-0.8,3.9-2.9,3.6-6.5c-0.1-0.6,0.3-1.2,0.8-1.5c0.6-0.3,1.3-0.3,1.8,0.1c9.3,6.8,22.9,9.8,44,9.8c20.6,0,35-3.2,44-9.8
	c0.5-0.4,1.2-0.4,1.8-0.1c0.5,0.3,0.9,0.9,0.8,1.5c-0.3,3.6,0.8,5.8,3.6,6.5c0.3,0.1,0.6,0.3,0.8,0.5c0.5,0.6,0.8,1.7,0.2,2.9
	C120.7,207.3,103,210.4,72.2,210.8 M22.8,200.3c0,0.1,0,0.4,0.1,0.7c0.9,1.7,7.1,7.1,49.2,7.7c42.1-0.6,48.3-6.1,49.2-7.7
	c0.2-0.3,0.2-0.6,0.1-0.7c-2.4-0.7-5-2.7-4.9-7.7c-9.4,6.5-24,9.6-44.4,9.6c-21,0-34.8-3-44.4-9.6C27.8,197.6,25.2,199.6,22.8,200.3
	"/>
<path class="st0" d="M138.7,224.8c-5.9-5.1-10.7-14.2-10.7-14.2s-2.6-4.3-5.9-4.2c-0.1,0-0.1,0-0.2,0c-3.4,0.2-3.7,7-49.8,7
	c-44.9,0-46.4-6.8-49.8-7c-0.1,0-0.1,0-0.2,0c-3.3-0.1-5.9,4.2-5.9,4.2s-4.8,9.1-10.7,14.2c-5.9,5.1,3.6,11.1,8.1,12.9
	c5.1,2.1,22.9,6.9,58.4,6.9s53.3-4.8,58.4-6.9C135.1,235.9,144.6,229.9,138.7,224.8"/>
<path class="st1" d="M72.2,245.6c-40.3,0-57-6.2-58.8-6.9c-3.3-1.3-9.8-5.1-10.6-9.5c-0.2-1.3,0-3.3,2.2-5.2
	c5.7-4.9,10.4-13.8,10.5-13.9c0.1-0.2,2.9-5,6.8-4.8c1.1,0,1.8,0.4,2.8,1c3.5,1.8,11.6,6,47.1,6l0,0c36.4,0,43.9-4.2,47.1-6
	c0.9-0.5,1.6-0.9,2.6-1h0.1h0.2c3.8-0.2,6.6,4.5,6.8,4.7c0.1,0.1,4.8,9,10.5,14c2.2,1.9,2.4,3.9,2.2,5.2c-0.8,4.5-7.3,8.2-10.6,9.5
	C129.2,239.4,112.5,245.6,72.2,245.6 M22.2,207.4c-2.3,0-4.4,2.7-5,3.7c-0.2,0.3-4.9,9.3-10.9,14.5c-1.2,1-1.7,2.1-1.5,3.3
	c0.5,3.1,5.8,6.5,9.3,7.9c1.7,0.7,18,6.8,58,6.8c39.9,0,56.3-6.1,58-6.8c3.6-1.4,8.8-4.8,9.3-7.9c0.2-1.2-0.3-2.2-1.5-3.3
	c-6-5.2-10.7-14.1-10.9-14.5c-0.6-1-2.8-3.7-4.9-3.7l-0.1-1l-0.1,1c-0.3,0-0.8,0.2-1.6,0.7c-3.4,1.9-11.3,6.3-48.2,6.3l0,0
	c-35.9,0-44.4-4.4-48-6.3C23.3,207.7,22.8,207.4,22.2,207.4C22.3,207.4,22.2,207.4,22.2,207.4"/>
<path class="st1" d="M41.8,16c-4.1,0-7.5,2.7-7.5,6.1s3.4,6.1,7.5,6.1s7.5-2.7,7.5-6.1S46,16,41.8,16"/>
<path class="st0" d="M166,68.9c-0.6-0.9-1.2-1.8-1.9-2.6c-8.1-9.5-17.2-17.9-28-24.3c-7-4.1-14.4-6.6-22.7-5.6
	c-2.5,0.3-9,1.1-14.3,6c-2.3,2.2-3.7,4.5-4.6,6c-2.6,4.3-3.7,8.2-4.3,10.9c-0.5,4.9-0.9,12.4,0,21.4c1.6,15.5,6.2,27.1,13.8,44.3
	c6.4,14.6,12.8,26.8,12.8,26.8S81.6,95.7,86.4,59.4c-1.7-5.3-3.4-10.6-5.1-15.9c0,0,0.2-1.8,1.3-3.7c2.6-4.2,3-8.7,2.4-13.3
	c-0.1-0.7-0.5-1.3-0.5-2.1c0.2-4.4,0.5-8.9,0.1-13.3c-0.5-5.5-4.5-7.5-9.5-5.2c-4.1,1.9-7.5,4.6-10.3,8.2c-0.6,0.8-1.3,1.6-1.7,2.2
	c-0.8-0.8-1.5-1.6-2.4-2.2c-3.2-2.4-6.8-3.9-10.6-5.1c-4.4-1.4-8.9-2-13.5-0.9c-4.7,1.1-9,3.2-13.2,5.5c-4.2,2.2-8.2,4.6-11.5,8.2
	c-2,2.1-3.1,4.7-2.3,7.5c1.3,4.7,2.8,9.4,6.6,12.8c4.6,4.2,9.2,8.5,14,12.6c1.8,1.5,2.7,3.3,2.3,5.5c-0.5,3-2,11.1-2,11.1
	C41.2,71,48,92.4,48,92.4s-3.2-4.3-6-7.9c-2.7-3.6-4.9-5.8-7.7-7.9c-2.1-1.6-7.1-2.3-7.1-2.3c-0.9,0-2.2,0.3-2.6,0.9
	c-1.2,2.1-2.2,4.2-2.8,6.5c-1,3.7,0.2,7.2,1.9,10.4c1.9,3.6,2.4,7.4,2.3,11.4c-0.2,8.3-1.9,16.4-2.9,24.6
	c-0.8,6.3-1.7,12.7-1.1,19.1c0,0,1.5,36.7,7.1,40.7c3.2,2.3,12.5,5.8,15.8,6.4c8.3,1.4,12.5,2.3,30.2,2.2
	c15.7-0.1,28.4-3.8,34.9-7.6c1.1-0.7,4-2.7,5.1-3.5c7.2-7,10.4-29.3,13.8-38.3c2.7-9.7,5.2-13.1,6-23.2c0.6-8.6,1.2-17.3,2-25.9
	c0.5-5.3,2-10.4,4-15.4c1.6-4,4.4-6.8,8.7-7.9c2.5-0.6,5.1-1.1,7.7-1.6c2.5-0.5,5-0.8,7.4-1.4C166.6,71.3,166.9,70.3,166,68.9"/>
<path class="st1" d="M72.6,197.5c-15.2,0-19.5-0.8-27.1-2.1l-0.7-0.1c-3.3-0.6-12.8-4.1-16.2-6.6c-5.9-4.2-7.4-37.7-7.5-41.5
	c-0.6-6.1,0.2-12.2,0.9-18.1l0.1-1.1c0.3-2.5,0.7-5,1.1-7.5c0.8-5.6,1.7-11.3,1.9-17c0.1-4.5-0.6-7.9-2.2-10.9
	c-1.4-2.7-3.2-6.7-2-11.1c0.7-2.5,1.9-4.9,2.9-6.7c0.7-1.2,2.8-1.4,3.4-1.4c0.4,0,5.5,0.8,7.8,2.5c2.9,2.2,5.2,4.4,7.9,8.1
	c0.4,0.5,0.7,1,1.1,1.5c-2.9-5.9-7.6-13.1-13.4-13h-1.3l0.2-1.2c0,0,1.4-8.1,2-11.1c0.3-1.7-0.3-3.1-2-4.5
	c-4.3-3.6-8.4-7.5-12.5-11.2l-1.6-1.4c-3.9-3.6-5.5-8.3-6.9-13.3C7.7,27,8.6,24,11,21.3c3.4-3.7,7.7-6.2,11.8-8.4s8.5-4.4,13.4-5.6
	c4.3-1,8.9-0.7,14.1,0.9c4.5,1.4,8,3.1,10.9,5.2c0.6,0.4,1.1,0.9,1.7,1.5c0.3-0.4,0.7-0.8,1-1.2c2.8-3.6,6.4-6.5,10.7-8.5
	c2.8-1.3,5.5-1.4,7.6-0.3c1.4,0.8,3.1,2.5,3.5,6.3c0.3,3.5,0.2,7.2,0,10.7c0,0.9-0.1,1.8-0.1,2.7c0,0.3,0.1,0.6,0.2,1
	c0.1,0.3,0.2,0.6,0.3,1c0.7,5.6-0.2,10.1-2.6,14c-0.7,1.3-1,2.6-1.1,3.1c1.5,4.8,3,9.6,4.6,14.4l0.5,1.5v0.2
	c-1.3,9.7,0.4,21,3.5,32.2c-0.8-3.5-1.4-7.1-1.7-10.9c-0.7-7.2-0.7-14.4,0-21.6c0.9-4.1,2.4-7.9,4.4-11.3c0.9-1.5,2.4-4,4.8-6.2
	c5.5-5.1,12.3-5.9,14.8-6.3c7.7-0.9,15.3,0.9,23.4,5.7c10.2,6.1,19.4,14.1,28.3,24.5c0.8,0.9,1.4,1.8,2,2.7c0.7,1.1,0.8,2,0.5,2.8
	s-1.1,1.3-2.2,1.6c-1.6,0.4-3.2,0.6-4.7,0.9c-0.9,0.2-1.9,0.3-2.8,0.5l-1,0.2c-2.2,0.4-4.5,0.9-6.7,1.4c-3.8,1-6.4,3.3-8,7.3
	c-2.2,5.4-3.5,10.3-4,15.1c-0.7,7-1.2,14.1-1.7,20.9L136,124c-0.5,6.9-1.8,10.6-3.4,15.3c-0.8,2.3-1.7,4.8-2.6,8
	c-1.1,2.9-2.2,7.1-3.3,11.6c-2.6,10.4-5.7,22.2-10.8,27.2l-1.4,1c-1.4,1-3.1,2.1-3.9,2.6c-6.3,3.7-18.9,7.7-35.4,7.8
	C74.3,197.5,73.4,197.5,72.6,197.5 M27.1,75.3c-0.6,0-1.4,0.3-1.5,0.4c-0.9,1.6-2.1,3.9-2.7,6.2c-0.7,2.8-0.2,5.9,1.9,9.6
	c1.8,3.3,2.5,7,2.4,11.9c-0.1,5.9-1,11.7-1.9,17.3c-0.4,2.5-0.8,4.9-1.1,7.4l-0.1,1.1c-0.7,5.8-1.5,11.8-0.9,17.7
	c0.6,14.1,2.9,37.3,6.7,40c3.1,2.2,12.3,5.7,15.4,6.3l0.7,0.1c7.9,1.4,12.2,2.1,29.3,2c16.2-0.1,28.6-4.1,34.4-7.5
	c0.8-0.4,2.5-1.7,3.8-2.5l1.3-0.9c4.5-4.5,7.6-16.5,10.1-26.1c1.2-4.5,2.2-8.8,3.4-11.7c0.9-3.2,1.8-5.8,2.6-8.1
	c1.6-4.6,2.9-8.2,3.3-14.8l0.4-4.9c0.5-6.9,1-14,1.7-21c0.5-4.9,1.8-10,4.1-15.6c1.8-4.5,5-7.4,9.4-8.5c2.3-0.6,4.6-1,6.8-1.5l1-0.2
	c0.9-0.2,1.9-0.3,2.9-0.5c1.5-0.3,3.1-0.5,4.5-0.9c0.6-0.1,0.7-0.3,0.8-0.4c0-0.1,0-0.4-0.3-0.9c-0.5-0.8-1.1-1.6-1.8-2.5
	c-8.7-10.2-17.8-18.1-27.8-24.1c-7.7-4.6-14.8-6.4-22-5.5c-2.4,0.3-8.7,1.1-13.7,5.7c-2.2,2.1-3.6,4.3-4.5,5.8
	c-2,3.3-3.4,6.8-4.2,10.6c-0.7,6.9-0.7,14.1,0,21.1c1.6,15.7,6.3,27.1,13.7,44c6.3,14.4,12.7,26.7,12.8,26.8l-1.8,1
	c-0.1-0.1-9-14.3-17.1-32.8C87.9,95,83.4,74.7,85.3,59.5L85,58.4c-1.6-4.9-3.2-9.7-4.7-14.6l-0.1-0.2v-0.2c0-0.1,0.3-2.1,1.4-4.1
	c2.2-3.5,2.9-7.6,2.3-12.7c0-0.2-0.1-0.4-0.2-0.6c-0.2-0.4-0.3-1-0.3-1.7c0-0.9,0.1-1.8,0.1-2.8c0.2-3.4,0.3-7,0-10.4
	c-0.2-2.3-1-3.9-2.4-4.7s-3.4-0.7-5.7,0.3c-4,1.9-7.3,4.5-9.9,7.9c-0.4,0.6-0.9,1.1-1.3,1.6L63,17.7L62.4,17
	c-0.3-0.3-0.5-0.5-0.8-0.8c-0.5-0.5-1-1-1.5-1.3c-2.8-2-6-3.6-10.3-4.9c-4.8-1.5-9-1.8-13-0.9c-4.7,1.1-9,3.2-12.9,5.4
	c-3.9,2.1-8,4.5-11.2,8c-2,2.2-2.7,4.4-2.1,6.5c1.4,4.9,2.8,9.1,6.3,12.3l1.6,1.4c4,3.7,8.2,7.5,12.4,11.1c2.2,1.9,3.1,4,2.7,6.4
	c-0.4,2.3-1.3,7.6-1.8,10c10.5,1.3,17,21,17.2,21.8l1.9,5.8L47.2,93c0,0-3.2-4.3-6-7.9c-2.7-3.5-4.7-5.6-7.5-7.7
	C32.2,76.3,28.4,75.5,27.1,75.3"/>
<path class="st2" d="M41.8,28.3c-4.1,0-7.5-2.7-7.5-6.1s3.4-6.1,7.5-6.1s7.5,2.7,7.5,6.1S46,28.3,41.8,28.3"/>
<path class="st2" d="M76.5,36.3c-3.7,2.3-8.8-6.8-8.8-6.8s-2.9-7.4,0-11.9s7.1-10.3,9.9-10.1c2.9,0.2,5,1.2,5,7
	C82.6,20.4,80.2,34,76.5,36.3"/>
</svg>
