<?xml version="1.0" encoding="utf-8"?>
<!-- Generator: Adobe Illustrator 23.1.1, SVG Export Plug-In . SVG Version: 6.00 Build 0)  -->
<svg version="1.1" id="Capa_1" xmlns="http://www.w3.org/2000/svg" xmlns:xlink="http://www.w3.org/1999/xlink" x="0px" y="0px"
	 viewBox="0 0 250 250" style="enable-background:new 0 0 250 250;" xml:space="preserve">
<style type="text/css">
	.st0{fill:#382517;}
	.st1{fill:#FBF5EA;}
	.st2{opacity:0.7;fill:#E7D5B6;}
	.st3{opacity:0.7;}
</style>
<g>
	<path class="st0" d="M74.6,53.6c-1.3-1.7-3.2-2.8-5.3-3.1c-2.1-0.3-4.3,0.3-6,1.6c-11,8.5-15.4,17.3-14.2,28.7l7-0.7c0,0,0,0,0,0
		L74.9,80c0,0,0,0,0,0l6.9,1.3C83.6,71.7,81.2,62.3,74.6,53.6z"/>
	<path class="st1" d="M74.9,80c1.4-7.1,0-14.4-5.9-22.2c-0.3-0.4-1-0.5-1.4-0.2C57.6,65.3,55.2,72,56.1,80.1"/>
	<path class="st0" d="M216.2,37L216.2,37c-11.2-16.1-28.8-24.2-52.3-24.2c-0.3,0-0.7,0-1,0c-34.4,0.3-54.7,24.6-61.5,45.3
		c-0.2,0.5-0.5,1.6-0.9,3.1c-0.5-2-1.7-3.8-3.4-4.9c-1.8-1.2-4-1.6-6.1-1.1c-11.4,2.5-18.7,7.2-23,15.1c-10.2,0.1-18.4,2.9-25.2,8.5
		c-7.8,6.5-12.3,16-15.4,23.5l-0.2,0.7c-1.1,3.9-1.7,6.1-2.3,9.5c-1.8,10.3,7.1,13.8,11.9,15.6c1.9,0.7,4.3,1.4,7.2,2.2
		c0.9,0.3,2.1,0.6,3.4,1c-1.6,1.3-2.7,3.1-3.3,5.3c-1.7,7.2,3.7,16.7,6.4,19.9c3.3,3.8,7.9,7.3,14.2,10.7c1.5,8,3.4,15.9,6.2,23.4
		c-6.5,1.7-14.2,7-14.2,19.3v8H63l24.5,0c0.5,0.8,1,1.7,1.4,2.4l2,3.5H95c0,0,0,0,48.2-0.4l0.7,0c6.2-0.7,11.7-2.5,16.6-5.5l23.6,0
		v-7.8c0-7.1-2.9-12.1-6.5-15.4c5-15.7,4.7-37.2-1.2-63.2c-1.7-7.6-6.8-30.6-5.2-41.7c0.7-4.7,4.7-15.1,11.9-15.1
		c8.3,0,15,6.9,16.1,16.8l1.3,11.1l9.4-6.1c7-4.5,11.8-12.1,13.7-21.8C226.1,61.7,223.2,47,216.2,37z"/>
	<path class="st1" d="M210.4,41c-11.3-16.1-28.8-21.4-47.6-21.2c-33.5,0.3-49.8,25-55,40.5c-4.4,13.3-5.6,42.1,14.9,70.4
		c-7.2-8.5-16.7-11.6-27.9-12.8c2-13.2,0-24.6-5.9-30.8c-0.6-0.7-0.1-1.1,0.4-1.8c4.2-5.8,6.1-13.1,4.2-22.5
		c-0.1-0.6-0.7-0.9-1.2-0.8c-12.3,2.7-17.3,7.7-20,15.4c-22.7-1.7-31.6,10.5-38.6,27.5c-1.1,3.7-1.6,5.6-2.1,8.7
		c-0.6,3.3,0.4,5.1,7.5,7.9c5.1,1.9,19.1,4.6,22.2,8.2c2.1,3.4,3.7,7.3,5,11.4c-7,0.4-8.7-6.8-13.9-4.9c-4,1.6,0.2,11.7,3.4,15.6
		c3.8,4.4,9.7,8,15.1,10.7c3,16.1,6.7,33.4,19.9,47.3c0.5,0.5,4.2,7.1,4.2,7.1c0,0,48.1-0.4,48.1-0.4c27.4-2.9,37.7-32.7,26.4-83.4
		c-3.7-16.5-6.8-34.1-5.3-44.3c1.2-8.2,7.3-21.1,18.9-21.1c11.5,0,21.6,9.5,23.1,22.9C220.7,81.1,220.2,54.9,210.4,41z"/>
	<path class="st2" d="M122.8,130.7c-20.5-28.3-19.3-57.1-14.9-70.4c5.1-15.5,21.5-40.2,55-40.5c18.8-0.2,36.3,5.1,47.6,21.2
		c3.5,5,5.8,11.5,6.6,18.3c-17.6-31.7-61.7-27.2-77.6-11.5C121.5,65.6,112.6,86.2,122.8,130.7z"/>
	<path class="st1" d="M63,209.7c0-11.3,8.8-13.7,13-13.7c0.9,0,1.8,0,2.7,0c29.2,0,58.5,0,87.7,0c2.9,0,11.3,3.6,11.3,13.9L63,209.7
		z"/>
	<path class="st2" d="M61.3,129.6c2.1,3.4,3.7,7.3,5,11.4c-7,0.4-8.7-6.8-13.9-4.9c-4,1.6,0.2,11.7,3.4,15.6
		c3.8,4.4,9.7,8,15.1,10.7c2.1,11.1,4.5,22.9,10.1,33.6c-1.3,0-2.1,0-2.3,0c-0.9,0-1.8,0-2.7,0c-4.3,0-13,2.4-13,13.7l36.8,0
		C97,184.2,81.1,142.6,61.3,129.6z"/>
	<path class="st0" d="M190.2,220.4c0-0.9,0-2.3-0.5-3.8c-1.8-5.9-6.7-9.4-13.1-9.4l-109.6,0l-1.1,0c-0.8,0-1.6,0-2.4,0
		c-7.9,0.1-13.4,5.7-13.4,13.6l0,4.6c0,3,0.9,5.4,2.6,7.2c1.7,1.8,4.2,2.6,7.2,2.6h120.9c5.6,0,9.4-3.8,9.5-9.4l0-1
		C190.3,223.3,190.3,221.9,190.2,220.4z"/>
	<path class="st1" d="M120.3,229c-20.1,0-40.2,0-60.3,0c-2.6,0-3.5-0.9-3.5-3.6c0-1.5,0-3,0-4.6c0-4.5,2.7-7.3,7.3-7.4
		c1.1,0,2.3,0,3.4,0c36.5,0,73.1,0,109.6,0c3.7,0,6.1,1.7,7.1,5c0.2,0.7,0.2,1.4,0.2,2.1c0,1.7,0,3.5,0,5.2c0,2.2-1,3.2-3.2,3.2
		C160.7,229,140.5,229,120.3,229z"/>
	<g class="st3">
		<path class="st2" d="M93.6,62.9c0,0,0-0.1,0-0.1c-0.1-0.6-0.7-0.9-1.2-0.8c-12.3,2.7-17.3,7.7-20,15.4
			c-22.7-1.7-31.6,10.5-38.6,27.5c-1.1,3.7-1.6,5.6-2.1,8.7c-0.6,3.3,0.4,5.1,7.5,7.9c2.5,0.9,7,2.1,11.5,3.4
			C44.4,102.3,67,78.2,93.6,62.9z"/>
	</g>
	<path class="st2" d="M99.8,213.5c-3.8,0-28.8,0-32.7,0c-1.1,0-2.3,0-3.4,0c-4.5,0.1-7.3,2.8-7.3,7.4c0,1.5,0,3,0,4.6
		c0,2.7,0.9,3.6,3.5,3.6c4.3,0,36.1,0,40.4,0C100.4,220.7,99.8,213.5,99.8,213.5z"/>
</g>
</svg>
