<?xml version="1.0" encoding="utf-8"?>
<!-- Generator: Adobe Illustrator 23.1.1, SVG Export Plug-In . SVG Version: 6.00 Build 0)  -->
<svg version="1.1" id="Capa_1" xmlns="http://www.w3.org/2000/svg" xmlns:xlink="http://www.w3.org/1999/xlink" x="0px" y="0px"
	 viewBox="0 0 250 250" style="enable-background:new 0 0 250 250;" xml:space="preserve">
<style type="text/css">
	.st0{fill:#382517;}
	.st1{fill:#FBF5EA;}
	.st2{fill:#E7D5B6;}
	.st3{opacity:0.7;enable-background:new    ;}
</style>
<g>
	<path class="st0" d="M213,108.5l-1.6-24.4l-8.2-24.4l-15.2-22.8L166.2,21L137,12.8l-3.1,14.7c-1.4-0.2-2.8-0.3-4.2-0.4
		c-3.9-2-9-5.1-13.2-9.3c-1.9-1.9-4.6-2.8-7.2-2.4c-2.6,0.4-5,2.1-6.2,4.4c-3.8,7.3-4.1,15-3.6,20c-4.6,2.9-9.9,6.9-14.1,10.5
		l-7.5,6.4c-6.2,5.3-17.1,11.6-25.8,16.7l-2,1.1c-8.8,5.1-14.4,9.2-13.4,18.3c-4.8,4.8-6.4,11.1-4.1,16.9
		c3.6,8.9,6.1,13.3,10.6,18.7c3,3.6,7.1,5.7,11.8,6.1c7.6,0.6,14.8-3.6,19.3-7.1c9.2,0.6,20.8-0.2,32.3-5c-1.7,1.3-3.4,2.6-5.2,3.9
		c-18.7,13.8-44.2,32.8-40.7,78.5l0.5,6.5l125.9-1.5l-1.7-8.3c-0.1-0.3-0.1-0.5-0.1-0.8l11.8,1.2l1-25.7l6-19.7l6.2-23.4L213,108.5z
		"/>
	<g>
		<path class="st1" d="M204.2,128.1l2.3-16.8l-14.4-1.1c0.1-1.8,0.2-3.6,0.3-5.4l13.3,0.6l-0.3-16.9l-14,1.1
			c-0.3-1.7-0.6-3.4-0.9-5.1l12.7-3l-4.9-16.2l-12.7,4.8c-0.6-1.2-1.3-2.4-1.9-3.6l12.2-8.5l-10.5-13.2l-10.9,9.8
			c-1.1-1.1-2.2-2.2-3.4-3.2l9.6-11.3L167.1,30l-8.4,12.7c-1.7-0.9-3.4-1.8-5.1-2.6l4.9-14.1l-16.3-4.5l-3,13.9
			c-3.8-0.8-7.6-1.3-11.5-1.4c-5.2-2.7-11.3-6.2-16.3-11.3c-0.7-0.7-1.8-0.5-2.2,0.3c-5,9.5-2.2,20.3-2.2,20.3
			c-4.8,2.6-12,7.7-17.2,12.2L82.4,62C75.2,68.1,63,75.1,53.7,80.6c-10.2,6-11.3,8-9.3,15c-4,2.5-7.1,7-5.3,11.5
			c3.4,8.5,5.6,12.2,9.5,16.8c5.8,6.9,15.7,3.2,23.5-3.7c12.8,1.2,30.3-0.4,45-12c4.1-3.3,8.5,1.2,6.8,5.5
			c-8.4,20.7-61,29-56.2,90.6l110.9-1.3c-0.7-3.4-1.2-6.8-1.4-10l13.2,1.4l0.7-16.9l-13.9,0.3c0.3-3,0.7-5.9,1.2-8.8l13.6,4.7
			l4.5-16.3l-14.6-3c0.7-2.6,1.5-5.2,2.2-7.7l13.8,4.9l4.7-16.3l-14.3-3.2c0.6-2.3,1.2-4.5,1.7-6.9L204.2,128.1z"/>
	</g>
	<g>
		<path class="st2" d="M123.9,113.7c-8.4,20.7-61,29-56.2,90.6l19.1-0.2C77.7,150.1,111.8,151.4,123.9,113.7z"/>
	</g>
	<g>
		<path class="st0" d="M178.7,196.3H77.3h-1c-0.8,0-1.5,0-2.2,0c-7.5,0-21.6,4.7-21.6,22.4v8.6H59h139.2V219
			C198.2,203.1,185.3,196.3,178.7,196.3z"/>
	</g>
	<g>
		<path class="st2" d="M61.7,126.6c-4.9,1.7-9.7,1.3-13.1-2.7c-3.9-4.6-6-8.3-9.5-16.8c-1.8-4.5,1.2-9,5.3-11.5c-2-7-0.9-9,9.3-15
			C63,75.1,75.2,68.1,82.4,62l7.5-6.4c5.2-4.5,12.4-9.6,17.2-12.2c0,0-2.8-10.8,2.2-20.3c0.4-0.8,1.6-1,2.2-0.3
			c5,5,11,8.6,16.3,11.3c3.6,0.1,7.2,0.6,10.7,1.3C120.7,74.9,57.6,70.1,61.7,126.6z"/>
	</g>
	<g>
		<path class="st1" d="M59.1,218.7c0-13,10.1-15.9,15.1-15.9c1.1,0,2.1,0,3.2,0c33.8,0,67.6,0,101.4,0c3.4,0,13,4.2,13,16.1
			L59.1,218.7z"/>
	</g>
	<g>
		<path class="st0" d="M205.5,231c0-1,0-2.5-0.5-4.1c-2-6.6-7.3-10.4-14.4-10.4H63.9h-1.2c-0.9,0-1.9,0-2.8,0
			c-8.9,0.1-14.8,6.1-14.8,15v5.3c0,1.2,0,5,2.8,7.8s6.6,2.8,7.8,2.8h139.8c6.1,0,10.2-4.1,10.2-10.2V236
			C205.5,234.4,205.5,232.7,205.5,231z"/>
	</g>
	<g>
		<path class="st1" d="M125.3,240.9c-23.3,0-46.5,0-69.8,0c-3,0-4.1-1-4.1-4.1c0-1.8,0-3.5,0-5.3c0-5.2,3.2-8.4,8.4-8.5
			c1.3,0,2.6,0,4,0c42.2,0,84.5,0,126.7,0c4.2,0,7.1,2,8.2,5.8c0.2,0.8,0.2,1.6,0.3,2.4c0,2,0,4,0,6.1c0,2.6-1.1,3.7-3.7,3.7
			C172.1,240.9,148.7,240.9,125.3,240.9z"/>
	</g>
	<g class="st3">
		<path class="st2" d="M110.1,222.9c-12,0-34.2,0-46.2,0c-1.3,0-2.7,0-4,0c-5.2,0.1-8.4,3.3-8.4,8.5c0,1.8,0,3.5,0,5.3
			c0,3.1,1,4.1,4.1,4.1c11.1,0,54.1,0,65.1,0C116.8,236,113.5,231,110.1,222.9z"/>
	</g>
	<g>
		<path class="st0" d="M108.9,68.4c0-3.9-7.1-5.1-10.7-3.2c-3.6,1.9-5.3,5-5.3,10.8C97.6,71.4,107,76,108.9,68.4z"/>
	</g>
</g>
</svg>
