<?xml version="1.0" encoding="utf-8"?>
<!-- Generator: Adobe Illustrator 23.1.1, SVG Export Plug-In . SVG Version: 6.00 Build 0)  -->
<svg version="1.1" id="Capa_1" xmlns="http://www.w3.org/2000/svg" xmlns:xlink="http://www.w3.org/1999/xlink" x="0px" y="0px"
	 viewBox="0 0 250 250" style="enable-background:new 0 0 250 250;" xml:space="preserve">
<style type="text/css">
	.st0{fill:#FFFFFF;}
	.st1{fill:#382517;}
	.st2{fill:#5E493E;}
	.st3{opacity:0.7;fill:#5E493E;}
	.st4{opacity:0.7;}
</style>
<g>
	<g>
		<path class="st0" d="M178.7,191.3l-101.4,0l-1,0c-0.8,0-1.5,0-2.2,0c-7.5,0-21.6,4.7-21.6,22.4v8.6h6.5l139.2,0v-8.3
			C198.2,198.1,185.3,191.3,178.7,191.3z"/>
		<path class="st0" d="M194.3,180.1l-2.2-8.8c-4-16-2.8-29-1.5-41.5c0.2-2.2,0.4-4.4,0.6-6.6c1.9-22.8,1.1-40.9-2.6-55.4
			c-11-43.9-44.9-54.9-55.9-57.3c-2.5-3.2-5.5-4.8-9.1-4.8c-1.8,0-5.1,0.5-7.5,3.6c-6.5,0.5-12.6,2.2-19.1,5.2l-9.3,4.2l7.8,6.6
			c0.4,0.3,0.8,0.6,1.2,0.9c0.5,0.4,0.9,0.7,1.2,1c-4,2.7-8.6,6.2-12.1,9.2L78.1,43C71,49.1,64.2,54.8,58.3,60.1
			c-1,0.9-1.9,1.7-2.8,2.4c-4.8,4.2-8.3,7.2-8.8,13.4c-1.2,2.1-3.3,6-2.6,11.4c1.5,13.5,10.8,20.7,25.4,19.8
			c3.9-0.2,11-1.2,15.6-4.9l1.4-0.2c2.4-0.3,4.7,0,7.4,0.5c2.4,0.4,5.1,0.8,8.3,0.8c0,0,0.1,0,0.1,0c-27.7,32.1-40.1,60-41.2,92.7
			l-0.1,1.5l13,0.5l0.1-1.5c0,0,0-0.1,0-0.1l97.5,1.4c0.1,0.2,0.2,0.4,0.2,0.5l0.2,0.4c0.2,0.4,0.3,0.8,0.4,1c0,0,0,0,0,0l2.8-1
			c0,0,0,0,0,0c-0.1-0.2-0.1-0.5-0.1-0.9l1.8,0l2.8,6.6l1.4-0.6c2.3-1,5.2-4.2,3.4-8.9c-0.2-0.4-0.4-1-0.7-1.7
			c-1.2-2.9-3.5-8.5-5.2-15.1c2.8,0.9,5.2,1.2,6.6,1.3L194.3,180.1z"/>
		<path class="st1" d="M67.7,199.3c0-30,15.6-66.7,49.8-102.9l0.6-0.7c0.2-0.2,0.2-0.6,0.1-1c-2.6,1.2-8.7,2-15.4,2.2
			c-6.4,0.1-11.2-2.1-17.2-1.2c-1.3,0.2-2.5,0.4-3.5,0.5c-2.4,2.9-8.2,4.2-13,4.5c-11.4,0.7-17.4-4.2-18.6-14
			c-0.5-4.2,1.6-6.9,2.6-8.8c-0.1-5.2,2.3-6.4,9.5-12.8c5.9-5.3,12.6-11,19.8-17.1l7.5-6.4c5.2-4.5,12.4-9.6,17.2-12.2
			c0,0-2.8-5.6-7.5-8.9c5.5-2.8,13.8-4.7,20.6-4.8c0.6-2.2,1.5-3.5,3.3-3.5c1.9,0,3.6,1.4,5.1,4.2c19.2,3.3,44.9,18.6,53.6,53.1
			c4.2,16.8,3.8,36.6,2.4,53.3c-1.3,14.9-3.9,30.2,1.1,50.3c0,0-14.2-1.1-15.5-10.9c-0.7,17.7,8.8,35.6,8.4,35.8"/>
		<path class="st1" d="M59.1,213.7c0-13,10.1-15.9,15.1-15.9c1.1,0,2.1,0,3.2,0c33.8,0,67.6,0,101.4,0c3.4,0,13,4.2,13,16.1
			L59.1,213.7z"/>
		<path class="st2" d="M118.1,95.6C77,139,67.7,176.2,67.7,199.2c-4.3,1.9-8.6,6-8.6,14.5l49.6,0.2
			C88.6,170.7,102.8,131.2,118.1,95.6z"/>
		<path class="st0" d="M205.5,226c0-1,0-2.5-0.5-4.1c-2-6.6-7.3-10.4-14.4-10.4l-126.7,0l-1.2,0c-0.9,0-1.9,0-2.8,0
			c-8.9,0.1-14.8,6.1-14.8,15l0,5.3c0,1.2,0,5,2.8,7.8c2.8,2.8,6.6,2.8,7.8,2.8h139.8c6.1,0,10.2-4.1,10.2-10.2l0-1.2
			C205.5,229.4,205.5,227.7,205.5,226z"/>
		<path class="st1" d="M125.3,235.9c-23.3,0-46.5,0-69.8,0c-3,0-4.1-1-4.1-4.1c0-1.8,0-3.5,0-5.3c0-5.2,3.2-8.4,8.4-8.5
			c1.3,0,2.6,0,4,0c42.2,0,84.5,0,126.7,0c4.2,0,7.1,2,8.2,5.8c0.2,0.8,0.2,1.6,0.3,2.4c0,2,0,4,0,6.1c0,2.6-1.1,3.7-3.7,3.7
			C172.1,235.9,148.7,235.9,125.3,235.9z"/>
		<path class="st3" d="M110.1,217.9c-12,0-34.2,0-46.2,0c-1.3,0-2.7,0-4,0c-5.2,0.1-8.4,3.3-8.4,8.5c0,1.8,0,3.5,0,5.3
			c0,3.1,1,4.1,4.1,4.1c11.1,0,54.1,0,65.1,0C116.8,231,113.5,226,110.1,217.9z"/>
		<g class="st4">
			<path class="st2" d="M82.2,96.1c1-0.2,2.2-0.3,3.5-0.5c0.8-0.1,1.7-0.2,2.4-0.2c-17.1-26.9,19-66.1,49.4-76.9
				c-3-1-5.9-1.8-8.7-2.2c-1.6-2.8-3.2-4.2-5.1-4.2c-1.9,0-2.8,1.3-3.3,3.5c-6.8,0.1-15.1,2-20.6,4.8c4.7,3.3,7.5,8.9,7.5,8.9
				c-4.8,2.6-11.9,7.7-17.2,12.2l-7.5,6.4c-7.2,6.1-13.9,11.8-19.8,17.1c-7.2,6.5-9.5,7.6-9.5,12.8c-1,2-3.1,4.7-2.6,8.8
				c1.1,9.8,7.2,14.7,18.6,14C74,100.3,79.8,99,82.2,96.1z"/>
		</g>
	</g>
	<path class="st0" d="M107.9,53.4c-3.8-1-6.9-1.7-11.2-2.8c4.1,6.1-0.5,8.8-2.7,12.6C98.4,60.1,102.8,57,107.9,53.4z"/>
</g>
</svg>
