<?xml version="1.0" encoding="utf-8"?>
<!-- Generator: Adobe Illustrator 23.1.1, SVG Export Plug-In . SVG Version: 6.00 Build 0)  -->
<svg version="1.1" id="Capa_1" xmlns="http://www.w3.org/2000/svg" xmlns:xlink="http://www.w3.org/1999/xlink" x="0px" y="0px"
	 viewBox="0 0 170 250" style="enable-background:new 0 0 170 250;" xml:space="preserve">
<style type="text/css">
	.st0{fill:#FFFFFF;}
	.st1{fill:#F7F7F7;}
	.st2{fill:#333333;}
</style>
<path class="st0" d="M9.7,89.2c-0.3-0.1-0.6-0.1-1-0.2c-0.7,1.1-1.3,2.2-2.1,3.6c0.5,0.8,1,1.6,1.5,2.4l1-0.8
	C9.3,92.6,9.5,90.9,9.7,89.2"/>
<g>
	<path class="st1" d="M148.5,195.2c-3.9-1.1-4.6-4.5-4.3-7.6c0-0.5-0.5-0.7-0.9-0.5c-14.1,5.6-24.7,7.5-45.3,7.5
		c-21.7,0-30.6-2.9-43.9-7.5c-0.5-0.2-1,0-0.9,0.5c0.3,3.2-0.4,6.6-4.3,7.6c-0.1,0-0.2,0.1-0.3,0.2c-0.8,0.9-3.6,9.5,50.1,10.2
		c53.7-0.7,50.9-9.3,50.1-10.2C148.7,195.3,148.6,195.3,148.5,195.2"/>
	<path class="st2" d="M98.7,206.7c-30.9-0.4-48.5-3.5-51.1-9c-0.6-1.3-0.3-2.4,0.2-2.9c0.2-0.2,0.5-0.4,0.8-0.5
		c2.7-0.8,3.9-2.9,3.6-6.5c0-0.5,0.2-1,0.6-1.3c0.5-0.4,1.1-0.5,1.7-0.2c13.1,4.5,21.8,7.4,43.6,7.4c20.1,0,30.6-1.7,44.9-7.4
		c0.6-0.2,1.3-0.2,1.7,0.2c0.4,0.3,0.6,0.8,0.6,1.4c-0.3,3.6,0.8,5.8,3.6,6.5c0.3,0.1,0.6,0.3,0.8,0.5c0.5,0.6,0.8,1.7,0.2,2.9
		C147.2,203.1,129.6,206.2,98.7,206.7 M49.4,196.2c0,0.1,0,0.4,0.1,0.7c0.9,1.7,7.1,7.1,49.2,7.7c42.1-0.6,48.3-6.1,49.2-7.7
		c0.2-0.3,0.2-0.6,0.1-0.7c-2.4-0.7-5.1-2.7-4.9-7.9c-14.3,5.6-25,7.3-45.1,7.3c-21.8,0-31.1-3.1-43.7-7.3
		C54.5,193.4,51.8,195.4,49.4,196.2 M143.2,187.5L143.2,187.5L143.2,187.5z M54.2,187.5L54.2,187.5L54.2,187.5z"/>
	<path class="st1" d="M165.2,220.7c-5.9-5.1-10.7-14.2-10.7-14.2s-2.6-4.3-5.9-4.2c-0.1,0-0.1,0-0.2,0c-3.4,0.2-3.7,7-49.8,7
		c-44.9,0-46.4-6.8-49.8-7c-0.1,0-0.1,0-0.2,0c-3.3-0.1-5.9,4.2-5.9,4.2s-4.8,9.1-10.7,14.2c-5.9,5.1,3.6,11.1,8.1,12.9
		c5.1,2.1,22.9,6.9,58.4,6.9s53.3-4.8,58.4-6.9C161.7,231.8,171.1,225.8,165.2,220.7"/>
	<path class="st2" d="M98.7,241.5c-40.3,0-57-6.2-58.8-6.9c-3.3-1.3-9.8-5-10.6-9.5c-0.2-1.3,0-3.3,2.2-5.2
		C37.2,215,41.9,206.1,42,206c0.1-0.2,2.9-4.9,6.8-4.8c1.1,0,1.8,0.4,2.8,1c3.5,1.8,11.6,6,47.1,6l0,0c36.4,0,43.9-4.2,47.2-6
		c0.9-0.5,1.6-0.9,2.6-1h0.1h0.2c3.7-0.2,6.6,4.5,6.8,4.7c0.1,0.1,4.8,9,10.5,14c2.2,1.9,2.4,3.9,2.2,5.2c-0.8,4.5-7.3,8.2-10.6,9.5
		C155.7,235.3,139,241.5,98.7,241.5 M48.8,203.2c-2.3,0-4.4,2.7-5,3.7c-0.2,0.3-4.9,9.3-10.9,14.5c-1.2,1-1.7,2.1-1.5,3.3
		c0.5,3.1,5.8,6.5,9.3,7.9c1.7,0.7,18,6.8,58,6.8c39.9,0,56.3-6.1,58-6.8c3.6-1.4,8.8-4.8,9.3-7.9c0.2-1.2-0.3-2.2-1.5-3.3
		c-6-5.2-10.7-14.1-10.9-14.5c-0.6-1-2.7-3.7-4.9-3.7h-0.1l-0.1-1l-0.1,1c-0.3,0-0.8,0.2-1.6,0.7c-3.4,1.9-11.3,6.3-48.2,6.3l0,0
		c-35.9,0-44.4-4.4-48-6.3C49.8,203.5,49.3,203.3,48.8,203.2L48.8,203.2"/>
	<path class="st1" d="M55.4,176.2c1.4-13.4,3.8-26.6,8.7-39.3c2.6-6.7,3.9-13.8,4.6-20.9c0.2-2.2,0.7-4.5,0.7-6.7c0-3.9-1.6-7.1-5-9
		c-4.8-2.7-9.9-4.2-15.5-2.1c-3.6,1.4-7.4,2.5-11.1,3.6c-3.1,0.9-5.4,2.7-7,5.6c-0.8,1.4-1.8,2.7-3,3.8c-1.5,1.4-3.5,1.7-5.5,1.1
		c-3.4-1.1-6.8-2.2-10.2-3.3c-0.5-0.2-1.2-0.6-1.3-1c-0.3-1.8-1.6-2.7-3.1-3.5c-0.4-0.2-0.7-0.9-1-1.4C5.8,101.2,5,99.3,4,97.5
		c-2.3-4-2.3-8.2-1.6-12.5c0.1-0.6,0.3-1.2,0.7-1.7c4.3-7.5,10-13.7,17.5-18c5.7-3.3,10.1-8.1,14.8-12.6c4-3.8,7.8-7.9,11.9-11.6
		c2.7-2.4,5.8-4.4,8.9-6.3c2.7-1.7,5.3-3.3,7-6.2c1.5-2.6,4.3-3.5,6.9-4.6c2.2-0.9,4.3-1.9,6.5-3c0.4-0.2,0.6-1,0.6-1.5
		c-0.1-4.7-0.2-9.3-0.3-14c0-1.7-0.4-3.6,1.8-4.3c2.1-0.6,2.7,1.3,3.5,2.7c1.5,2.7,3,5.4,4.4,8.1c1.3,2.5,2.4,5.1,3.4,7.8
		c0.5,1.3,1.6,1.5,2.4,1c1.8-1.1,3.6-0.6,5,0.2c8.1,4,16.9,6.7,23.3,13.7c3.3,3.6,6.5,7.1,8.2,11.8c1.2,3.3,3.3,6.3,4.9,9.5
		c0.9,1.8,1.8,3.6,2.5,5.5c1.4,3.8,2.9,7.6,3.7,11.5c1,4.9,3.3,9.5,4.1,14.3c1.9,11.3,3.8,22.6,4,34.1s0.9,23,1.1,34.5
		c0,0-1,20-7,24.6s-18.7,8-28.2,9c-9.4,0.9-33.6,0-44.6-2.3C58.4,184.7,54.9,181.1,55.4,176.2"/>
	<path class="st2" d="M104.5,190.8c-11.4,0-27-1-35.2-2.7c-10.8-2.2-15.5-6-14.8-11.9c1.7-15.9,4.5-28.5,8.8-39.6
		c2.3-5.8,3.7-12.2,4.6-20.7c0.1-0.8,0.2-1.5,0.3-2.3c0.2-1.5,0.4-2.9,0.4-4.3c0-3.6-1.5-6.4-4.4-8.1c-5.5-3.1-10.1-3.7-14.6-2
		c-3.3,1.3-6.7,2.3-10,3.3l-1.1,0.3c-2.9,0.9-5,2.5-6.4,5.1c-0.8,1.5-1.9,2.9-3.2,4.1c-1.8,1.6-4.1,2.1-6.5,1.3l-1.3-0.4
		c-3-1-6-1.9-9-2.9c-0.6-0.2-1.8-0.9-1.9-1.9c-0.2-1.4-1.2-2-2.5-2.7c-0.7-0.4-1.1-1.1-1.4-1.7c-0.4-0.8-0.7-1.5-1-2.2
		c-0.5-1.2-1.1-2.3-1.7-3.4c-2.9-4.6-2.6-9.2-2-13.2c0.1-0.9,0.5-1.6,0.8-2.1C7.1,74.6,13,68.6,20.3,64.4c4.5-2.6,8.2-6.2,11.8-9.8
		c0.9-0.9,1.8-1.8,2.7-2.6c1.6-1.6,3.2-3.2,4.8-4.8c2.3-2.3,4.6-4.7,7.1-6.9c2.7-2.4,5.8-4.4,8.7-6.3l0.7-0.4c2.4-1.6,4.7-3,6.2-5.5
		c1.5-2.7,4.2-3.8,6.7-4.8l0.7-0.3c2.1-0.9,4.3-1.9,6.4-3c0,0,0.1-0.4,0.1-0.6c-0.1-4.3-0.2-8.5-0.3-12.8V4.9
		c-0.1-1.6-0.2-4,2.5-4.7c2.7-0.8,3.8,1.4,4.4,2.7l0.3,0.6c0.5,1,1,1.9,1.6,2.9c1,1.7,1.9,3.5,2.8,5.3c1.2,2.5,2.4,5.1,3.5,7.8
		c0.1,0.3,0.3,0.5,0.4,0.6c0.1,0,0.3,0,0.4-0.1c2.3-1.5,4.5-0.6,6,0.1c1.9,0.9,3.8,1.8,5.7,2.7c6.3,2.8,12.8,5.8,17.8,11.3
		c3.2,3.5,6.6,7.2,8.4,12.2c0.8,2.1,1.9,4,3,6.1c0.6,1.1,1.3,2.2,1.8,3.3c0.9,1.8,1.8,3.6,2.5,5.6c0.3,0.8,0.6,1.6,0.9,2.4
		c1.1,3,2.2,6,2.9,9.2c0.5,2.3,1.2,4.6,2,6.8c0.8,2.4,1.7,5,2.1,7.6c1.9,11.1,3.9,22.7,4,34.2c0.1,6.1,0.3,12.4,0.6,18.4
		c0.2,5.3,0.4,10.7,0.6,16.1c0,0.9-1.1,20.6-7.4,25.4c-6.2,4.8-19.1,8.2-28.7,9.2C111.8,190.7,108.4,190.8,104.5,190.8 M54.4,96.1
		c4.3,0,7.9,1.7,10.6,3.2c3.6,2,5.5,5.5,5.5,9.9c0,1.6-0.2,3.1-0.4,4.6c-0.1,0.7-0.2,1.5-0.3,2.2c-0.9,8.6-2.4,15.3-4.7,21.2
		c-4.2,10.9-7,23.4-8.7,39l0,0c-0.4,3.1,0.8,7.1,13.2,9.7c10.9,2.3,34.9,3.3,44.3,2.3c9.1-0.9,21.8-4.3,27.7-8.8
		c4.6-3.5,6.3-18.4,6.6-23.8c-0.1-5.3-0.3-10.7-0.6-16c-0.2-6.1-0.5-12.3-0.6-18.5c-0.2-11.4-2.1-22.9-4-33.9
		c-0.4-2.4-1.2-4.8-2.1-7.3c-0.8-2.3-1.6-4.6-2.1-7.1c-0.6-3-1.7-6-2.8-8.8c-0.3-0.8-0.6-1.6-0.9-2.5c-0.7-1.8-1.6-3.7-2.4-5.4
		c-0.6-1.1-1.2-2.2-1.8-3.3c-1.2-2-2.4-4.1-3.2-6.4c-1.7-4.6-4.9-8.1-8-11.5c-4.7-5.2-11-8-17.2-10.8c-2-0.9-3.9-1.8-5.8-2.7
		c-1.7-0.9-2.9-0.9-4-0.2c-0.7,0.4-1.5,0.5-2.2,0.3c-0.5-0.2-1.3-0.6-1.7-1.8c-1-2.7-2.2-5.3-3.4-7.7c-0.9-1.8-1.8-3.5-2.8-5.2
		c-0.5-1-1.1-1.9-1.6-2.9c-0.1-0.2-0.2-0.4-0.3-0.6c-0.8-1.6-1.1-1.8-2-1.6c-1,0.3-1.1,0.8-1,2.6L77.8,6c0.1,4.3,0.2,8.5,0.3,12.8
		c0,0.7-0.3,2-1.2,2.5c-2.2,1.1-4.4,2.2-6.5,3.1l-0.7,0.3c-2.3,1-4.5,1.9-5.7,3.9c-1.7,3-4.3,4.6-6.9,6.3l-0.7,0.4
		c-2.9,1.9-5.9,3.8-8.5,6.1c-2.4,2.2-4.8,4.5-7,6.8c-1.6,1.6-3.2,3.2-4.9,4.8c-0.9,0.9-1.8,1.7-2.7,2.6C29.6,59.2,25.7,63,21,65.7
		c-7,4-12.6,9.8-17.2,17.7c-0.3,0.5-0.5,1-0.5,1.4c-0.2,4-0.5,8.3,1.8,12.2c0.7,1.2,1.3,2.4,1.8,3.6c0.3,0.7,0.6,1.4,1,2
		c0.2,0.3,0.4,0.8,0.5,0.9c1.3,0.7,3.2,1.7,3.6,4.2c0-0.1,0.3,0.1,0.6,0.2c3,1,6,2,8.9,2.9l1.3,0.4c1.7,0.6,3.3,0.3,4.5-0.8
		c1.1-1,2.1-2.2,2.8-3.5c1.7-3.1,4.2-5.1,7.6-6.1l1.1-0.3c3.3-1,6.7-2,9.9-3.3C50.7,96.5,52.6,96.1,54.4,96.1"/>
	<path class="st2" d="M34.5,68.2c2.6,1,9.2-3.8,9.8-6.5C41.2,63.8,38,65.9,34.5,68.2"/>
	<path class="st2" d="M78.6,18.8c0,0,1-8.5,0-13.4s7.1,11.8,6.8,15.9C85,25.4,78.2,26.8,78.6,18.8"/>
	<path class="st2" d="M52,48.3c-0.2-0.8,2.3-5.8,6.3-5.4c4,0.4,1.2,3.1-0.9,4C55.3,47.7,52,48.3,52,48.3"/>
</g>
</svg>
