<?xml version="1.0" encoding="utf-8"?>
<!-- Generator: Adobe Illustrator 23.1.1, SVG Export Plug-In . SVG Version: 6.00 Build 0)  -->
<svg version="1.1" id="Capa_1" xmlns="http://www.w3.org/2000/svg" xmlns:xlink="http://www.w3.org/1999/xlink" x="0px" y="0px"
	 viewBox="0 0 149 250" style="enable-background:new 0 0 149 250;" xml:space="preserve">
<style type="text/css">
	.st0{fill:#F7F7F7;}
	.st1{fill:#333333;}
</style>
<g>
	<path class="st0" d="M124.2,199.6c-3.9-1.1-4.6-4.5-4.3-7.6c0-0.5-0.5-0.8-0.9-0.5c-9.4,6.8-24,10-44.6,10
		c-21.7,0-35.2-3.2-44.6-10c-0.4-0.3-1,0-0.9,0.5c0.3,3.2-0.4,6.6-4.3,7.6c-0.1,0-0.2,0.1-0.3,0.2c-0.8,0.9-3.6,9.5,50.1,10.2
		c53.7-0.7,50.9-9.3,50.1-10.2C124.4,199.6,124.3,199.6,124.2,199.6"/>
	<path class="st1" d="M74.4,211c-30.9-0.4-48.5-3.5-51.1-9c-0.6-1.3-0.3-2.4,0.2-2.9c0.2-0.2,0.5-0.4,0.8-0.5
		c2.7-0.8,3.9-2.9,3.6-6.5c-0.1-0.6,0.2-1.2,0.8-1.5c0.6-0.3,1.2-0.3,1.8,0.1c9.3,6.8,22.9,9.8,44,9.8c20.6,0,35-3.2,44-9.8
		c0.5-0.4,1.2-0.4,1.8-0.1c0.6,0.3,0.9,0.9,0.8,1.5c-0.3,3.6,0.8,5.8,3.6,6.5c0.3,0.1,0.6,0.3,0.8,0.5c0.5,0.6,0.8,1.7,0.2,2.9
		C122.9,207.5,105.2,210.6,74.4,211 M25,200.5c0,0.1,0,0.4,0.1,0.7c0.9,1.7,7.1,7.1,49.2,7.7c42.1-0.6,48.3-6.1,49.2-7.7
		c0.2-0.3,0.2-0.6,0.1-0.7c-2.4-0.7-5-2.7-4.9-7.7c-9.4,6.5-24,9.6-44.4,9.6c-21,0-34.8-3-44.4-9.6C30,197.8,27.4,199.8,25,200.5
		 M118.8,191.8L118.8,191.8L118.8,191.8z M29.9,191.8L29.9,191.8L29.9,191.8z"/>
	<path class="st0" d="M140.9,225c-5.9-5.1-10.7-14.2-10.7-14.2s-2.6-4.3-5.9-4.2c-0.1,0-0.1,0-0.2,0c-3.4,0.2-3.7,7-49.8,7
		c-44.9,0-46.4-6.8-49.8-7c-0.1,0-0.1,0-0.2,0c-3.3-0.1-5.9,4.2-5.9,4.2s-4.8,9.1-10.7,14.2c-5.9,5.1,3.6,11.1,8.1,12.9
		c5.1,2.1,22.9,6.9,58.4,6.9s53.3-4.8,58.4-6.9C137.3,236.1,146.8,230.1,140.9,225"/>
	<path class="st1" d="M74.4,245.8c-40.3,0-57-6.2-58.8-6.9c-3.3-1.3-9.8-5-10.6-9.5c-0.2-1.3,0-3.3,2.2-5.2
		c5.7-4.9,10.4-13.8,10.5-13.9c0.1-0.2,2.9-4.8,6.7-4.8c0.1,0,0.1,0,0.2,0c1.1,0,1.8,0.4,2.8,1c3.5,1.8,11.6,6,47.1,6l0,0
		c36.4,0,43.9-4.2,47.2-6c0.9-0.5,1.6-0.9,2.6-1h0.1h0.2c3.8-0.1,6.6,4.5,6.8,4.7c0.1,0.1,4.8,9,10.5,14c2.2,1.9,2.4,3.9,2.2,5.2
		c-0.8,4.5-7.3,8.2-10.6,9.5C131.4,239.6,114.7,245.8,74.4,245.8 M24.4,207.6c-2.3,0-4.4,2.7-5,3.7c-0.2,0.3-4.9,9.3-10.9,14.5
		c-1.2,1-1.7,2.1-1.5,3.3c0.5,3.1,5.8,6.5,9.3,7.9c1.7,0.7,18,6.8,58,6.8c39.9,0,56.3-6.1,58-6.8c3.6-1.4,8.8-4.8,9.3-7.9
		c0.2-1.2-0.3-2.2-1.5-3.3c-6-5.2-10.7-14.1-10.9-14.5c-0.6-1-2.7-3.7-4.9-3.7l-0.1-1l-0.1,1c-0.3,0-0.8,0.2-1.6,0.7
		c-3.4,1.9-11.3,6.3-48.2,6.3l0,0c-35.9,0-44.4-4.4-48-6.3C25.5,207.9,25,207.6,24.4,207.6C24.5,207.6,24.5,207.6,24.4,207.6"/>
	<path class="st0" d="M129,158.7c-1.6-5.1-6.8-4-11-4.4s-5.5-0.9-4.8-9.5s-1.1-18.1-5.1-26.9s-8.2-12.2-15.9-16.1
		c-7.7-3.8-8.6-8-8.6-10.6s2-15.9-0.5-23.2c-2.6-7.3-1.8-7.9-1.3-11.7s7.3-8.8,9-11.1c1.6-2.4,5.3-10,5.3-10
		c6.6-12.1,5.5-20.6,5.1-27s-6.4-1.3-6.4-1.3c-11.5,6.9-17.2,16.8-21.4,26.5C69.3,43,66.2,45.6,63.6,47c-2.6,1.5-12.2,3.7-19.2,6.4
		c-6.9,2.7-13.2,11.3-15.3,14.3c-2.2,2.9-5.8,6.6-6.9,11s1.5,2,1.5,2c0,4.6,3.8,7.1,6,9c2.2,1.8,2,2.4,6.8,5.8
		c4.8,3.5,3.5,10.4,1.8,15.3c-1.6,4.9-3.7,11.7-3.7,11.7c-0.9,7.7-0.2,14.4,0.5,19.2s-2.4,11-1.1,17.7c1.3,6.8-2,12.7-3.3,19.8
		c-1.3,7,0.7,9.6,12.5,13.8c5,1.8,16,2.7,33,2.8c22.2,0,30.4-5.1,37.5-8.1c4.9-2.1,0.7-4.6,1.4-6.8c0-0.1,0.1-0.2,0.2-0.3
		c0.9-2.1,4.2-4,10.4-7C132.3,170.4,130.7,163.8,129,158.7"/>
	<path class="st1" d="M76.4,196.8h-0.2c-16.9,0-28.1-1-33.3-2.8c-12.1-4.2-14.7-7.2-13.2-15c0.4-2.3,1.1-4.5,1.7-6.6
		c1.3-4.3,2.5-8.4,1.6-12.8c-0.7-3.9-0.1-7.7,0.5-11c0.4-2.5,0.9-4.8,0.6-6.8c-0.7-4.5-1.5-11.4-0.6-19.5c0.1-0.2,2.1-7,3.7-11.9
		c2.3-7,1.8-11.8-1.5-14.2c-3.1-2.3-4.2-3.4-5.1-4.3c-0.5-0.5-0.9-1-1.7-1.6l-0.7-0.6c-2-1.6-4.8-3.9-5.5-7.5
		c-0.4,0.1-0.7,0-1.1-0.2c-1.1-0.7-0.9-2.3-0.5-3.7c0.9-3.7,3.5-6.8,5.6-9.4c0.6-0.7,1.1-1.3,1.6-2l0.3-0.4
		c2.6-3.4,8.6-11.5,15.5-14.2c3.5-1.4,7.6-2.6,11.2-3.7c3.4-1,6.6-2,7.8-2.7c2.6-1.5,5.5-4.1,9.4-13.2c4-9.3,9.8-19.7,21.8-27
		c0.2-0.2,3.5-2.9,5.9-1.8c1.3,0.5,2,1.9,2.1,4l0.1,1.4c0.4,6.2,0.9,14.8-5.3,26.2c-0.1,0.3-3.7,7.7-5.4,10.1
		c-0.6,0.9-1.7,1.9-3,3.2c-2.3,2.2-5.5,5.3-5.8,7.5c-0.1,0.6-0.2,1.1-0.2,1.5c-0.4,2.5-0.6,3.7,1.5,9.7s1.3,15.6,0.8,20.8
		c-0.1,1.3-0.2,2.3-0.2,2.8c0,1.4,0,5.7,8,9.7c7.6,3.8,12.2,7.4,16.4,16.6c4.1,8.9,5.9,18.7,5.2,27.4c-0.7,8,0.3,8.1,3.8,8.4
		c0.8,0.1,1.6,0.1,2.4,0.1c3.5,0.1,7.9,0.2,9.5,5c1.3,4,4,12.4-3.8,16.1c-5.4,2.5-9.1,4.6-9.9,6.5l-0.1,0.2c-0.1,0.4,0.1,1,0.4,1.6
		c0.4,1,0.9,2.1,0.4,3.4c-0.4,1-1.3,1.8-2.9,2.4c-0.9,0.4-1.8,0.8-2.7,1.2C104.8,192.7,95.9,196.8,76.4,196.8 M24.6,78.3v2.4
		c0,3.6,2.7,5.8,4.9,7.5l0.7,0.6c0.8,0.7,1.3,1.2,1.8,1.7c0.9,0.9,1.9,1.9,4.9,4.1c4.1,3,4.9,8.6,2.2,16.5
		c-1.6,4.9-3.6,11.6-3.6,11.7c-0.9,7.6-0.1,14.3,0.6,18.7c0.4,2.3-0.1,4.8-0.6,7.4c-0.6,3.3-1.2,6.7-0.5,10.2
		c0.9,4.8-0.3,9.2-1.7,13.7c-0.6,2.1-1.2,4.2-1.7,6.4c-1.2,6.3,0.2,8.5,11.8,12.6c5,1.7,16.3,2.7,32.7,2.7h0.2
		c19,0,27.4-3.8,34.1-6.8c1-0.4,1.9-0.8,2.8-1.2c1-0.4,1.6-0.9,1.7-1.3c0.2-0.4-0.1-1.1-0.4-1.8c-0.4-0.9-0.9-2-0.5-3.1
		c0-0.1,0.1-0.2,0.2-0.4c1.1-2.5,4.7-4.6,11-7.6c5.1-2.4,4.9-7,2.7-13.5c-1-3.2-3.5-3.5-7.5-3.6c-0.9,0-1.7,0-2.5-0.1
		c-5.1-0.4-6.4-1.9-5.7-10.6c0.7-8.4-1.1-17.7-5-26.3c-4-8.7-8.1-11.9-15.4-15.6c-6.2-3.1-9.2-6.9-9.2-11.5c0-0.6,0.1-1.6,0.2-3
		c0.4-5,1.3-14.3-0.7-19.9c-2.2-6.3-2.1-7.7-1.6-10.7c0.1-0.4,0.2-0.9,0.2-1.5c0.4-2.9,3.7-6.1,6.4-8.7c1.2-1.1,2.2-2.2,2.7-2.9
		c1.6-2.3,5.2-9.8,5.2-9.9c6-11,5.5-18.9,5.1-25.2L100,7.9c0-0.7-0.2-1.9-0.8-2.2c-0.9-0.4-2.8,0.7-3.9,1.6
		c-11.7,7.1-17.2,17.2-21.1,26.1C70,43.1,66.8,46,63.9,47.6c-1.4,0.8-4.4,1.7-8.3,2.8c-3.6,1.1-7.7,2.3-11,3.6
		C38.2,56.5,32.2,64.5,30,67.5l-0.3,0.4c-0.5,0.6-1,1.3-1.6,2c-2,2.5-4.4,5.4-5.2,8.6c-0.1,0.4-0.2,0.7-0.2,0.9L24.6,78.3z"/>
	<path class="st1" d="M38.7,71.5c0,0-0.2-5.5,3.1-5.7s6.9,0,5.5,3.7C45.9,73.1,38.7,71.5,38.7,71.5"/>
	<path class="st1" d="M71.5,49.2c0.1-0.5,3.7-14.6,9-21.7s13-14.6,15.7-16.6s4,3.1,2.6,9.1c-1.5,6-4.8,17.4-11.5,24.5
		C80.5,51.6,76.2,60.6,74,58.6C71.7,56.5,70.7,52.5,71.5,49.2"/>
</g>
</svg>
