<?xml version="1.0" encoding="utf-8"?>
<!-- Generator: Adobe Illustrator 23.1.1, SVG Export Plug-In . SVG Version: 6.00 Build 0)  -->
<svg version="1.1" id="Capa_1" xmlns="http://www.w3.org/2000/svg" xmlns:xlink="http://www.w3.org/1999/xlink" x="0px" y="0px"
	 viewBox="0 0 250 250" style="enable-background:new 0 0 250 250;" xml:space="preserve">
<style type="text/css">
	.st0{fill:#382517;}
	.st1{fill:#FBF5EA;}
	.st2{opacity:0.7;}
	.st3{opacity:0.7;fill:#E7D5B6;}
</style>
<g>
	<path class="st0" d="M193,212.5c0-0.4-0.1-0.8-0.1-1.2c-0.1-0.9-0.2-1.9-0.4-3c-1.6-9.4-10.3-16.8-19.8-16.8l-0.2,0
		c1.1-8,0.6-16.2-1.5-25c-1.6-6.9-4.1-13.7-7.5-20.7c-6.3-12.9-14.7-24.8-25.7-36.6c-2.7-2.9-4.7-5.8-6.1-8.7
		c-1.9-3.9-3.7-8-5.5-11.9c0.4,0,0.8-0.1,1.1-0.1l2.4-0.5c3-0.6,6.1-1.3,9.2-2.1c3.9-1,7-1.8,9.8-2.8c7.4-2.5,13.3-5.9,18-10.4
		c6.1-5.8,11-13.1,14.6-21.6c1.7-4,2.6-7.1,2.7-9.7l0-0.2c0.1-2.2,0.2-8.9-6.8-11.2l0,0c-1.8-0.5-3.6-0.9-5.4-1.1
		c-4.9-0.6-9.6-0.2-14,0.4c-0.4,0-0.8,0.1-1.2,0.2c0.1-1.5,0.1-3,0.1-4.4c0.1-3.3-0.1-6.9-1.6-10.6c-1.8-4.5-5-6.7-9.8-6.5
		c-4.1,0.1-7.5,1.3-10.7,2.6c-6,2.4-11.9,5.8-17.4,10.1C109,27,103.1,35,99.8,44.3c-2.4,7-3.3,14-3.9,20.7c0,0.4-0.1,0.8-0.1,1.2
		c-3.7,0.5-8.8,1.3-13.9,3.1c-9.1,3.2-15.9,8.7-20.2,16.2c-1.2,2.1-2.1,4.1-3.1,6.2l-0.1,0.1c-0.4,0.9-0.8,1.8-1.3,2.7
		c-0.6,1.3-1.3,2.6-1.9,3.9c-1.1,2.2-2.2,4.4-3.3,6.7c-1.8,3.9-1.7,8.2,0.3,12.1c1.5,2.9,3.6,5.3,6.4,7.6c5.6,4.6,12.5,7.5,21.7,9.2
		c2.6,0.5,3,1.2,3.3,1.7c0.4,0.6,0.7,1.4,1,2.3c-0.4,1.2-0.8,2.3-1.2,3.5c-0.6,1.8-1.2,3.7-1.8,5.6c-1.1,3.6-2.3,7.4-3.2,11.3
		c-1.4,5.8-2.3,11.2-2.6,16.5c-0.4,6.1,0,11.6,1.3,16.5c-0.4,0-0.8,0-1.2,0c-10.9,0.4-19.5,9-20,19.9c-0.1,1.4-0.2,4,2,6.3
		c2.1,2.2,4.8,2.2,6.1,2.2l129.6,0L193,212.5z"/>
	<path class="st1" d="M186.5,213.2c-0.7,0-1.1,0-1.6,0c-40.2,0-80.4,0-120.6,0c-1.5,0-1.5,0-1.4-1.6c0.3-7.5,6.1-13.2,13.6-13.5
		c3.1-0.1,6.3,0,9.4,0c1.1,0,1.2-0.1,0.7-1.1c-3.6-6.8-4.4-14.2-3.9-21.7c0.3-5.2,1.2-10.3,2.5-15.4c0.9-3.7,2-7.3,3.1-10.9
		c1.1-3.4,2.3-6.8,3.3-10.2c0.2-0.6,0.2-1.3,0-1.9c-0.5-1.5-1.2-3-1.9-4.4c-1.7-3.1-4.5-4.4-7.9-5c-6.8-1.3-13.2-3.4-18.7-7.8
		c-1.9-1.6-3.6-3.4-4.7-5.6c-1.1-2-1.1-4.1-0.2-6.1c1.7-3.5,3.4-7,5.1-10.5c1.4-2.9,2.6-5.9,4.2-8.6c3.7-6.6,9.6-10.7,16.6-13.2
		c5.2-1.8,10.6-2.7,16-3.2c1-0.1,1.5-0.6,1.7-1.4c0.3-1.8,0.6-3.6,0.8-5.4c0.6-6.5,1.4-12.9,3.6-19.1c3-8.5,8.2-15.3,15.3-20.8
		c4.8-3.8,10.1-6.9,15.8-9.2c2.7-1.1,5.4-2.1,8.4-2.1c2,0,2.7,0.4,3.5,2.3c1,2.6,1.1,5.3,1.1,8.1c-0.1,3.5-0.1,7-1.2,10.3
		c-1,2.9-2.1,5.9-3.5,8.6c-4.1,8.1-9.3,15.6-15.3,22.5c-4.3,5-9,9.6-14.3,13.5c-0.6,0.5-0.7,0.9-0.4,1.6c3.4,7.3,6.7,14.6,10.1,21.9
		c1.8,3.9,4.3,7.3,7.3,10.4c9.8,10.5,18.3,22,24.6,35c3,6.2,5.4,12.6,7,19.3c1.9,8,2.5,16.1,1.2,24.2c-0.2,1.5-0.6,2.9-1,4.4
		c-0.3,1.3-0.2,1.5,1.1,1.5c2.3,0,4.6,0,6.9,0c6.5,0,12.2,5.2,13.2,11.2C186.2,210.6,186.3,211.8,186.5,213.2z"/>
	<path class="st1" d="M177.5,40.9c-0.1,2.1-1.1,4.8-2.2,7.5c-3.1,7.3-7.3,13.9-13.1,19.4c-4.4,4.2-9.8,7-15.5,8.9
		c-3.1,1-6.2,1.9-9.3,2.7c-3.8,0.9-7.6,1.7-11.4,2.5c-0.4,0.1-0.7,0-1.1-0.1c0.2-0.3,0.3-0.7,0.6-0.9c4.9-4,9.4-8.5,13.5-13.4
		c4.4-5.3,8.3-10.9,11.8-16.8c2.6-4.4,4.8-8.9,6.4-13.7c0.3-0.8,0.7-1.1,1.5-1.2c4.1-0.5,8.3-0.8,12.5-0.3c1.4,0.2,2.8,0.5,4.2,0.9
		C177.1,36.8,177.6,37.7,177.5,40.9z"/>
	<path class="st1" d="M186.4,211.7c-0.3-7.5-6.1-13.2-13.6-13.5c-3.1-0.1-6.3,0-9.4,0c-0.2,0-60.2,0-77.1,0c0,0,0,0,0,0
		c0,0-0.1,0-0.1,0c-2.7,0-4.3,0-4.3,0c0,0,0,0,0,0c-1.9,0-3.7,0-5.6,0.1c-7.5,0.3-13.2,6-13.6,13.5c-0.1,1.6-0.1,1.6,1.4,1.6
		c10.3,0,20.6,0,31,0l0,0c13.5,0,76.2,0,89.7,0C186.5,213.2,186.5,213.2,186.4,211.7z"/>
	<g class="st2">
		<path class="st3" d="M150.1,28.7c0.1-1.3,0.1-2.6,0.1-3.9c0-2.7-0.1-5.5-1.1-8.1c-0.7-1.9-1.5-2.4-3.5-2.3c-3,0.1-5.7,1.1-8.4,2.1
			c-5.7,2.3-10.9,5.4-15.8,9.2c-7,5.5-12.3,12.3-15.3,20.8c-2.2,6.2-3,12.6-3.6,19.1c-0.1,1-0.2,2-0.4,3
			C110.7,48.6,128.5,33.5,150.1,28.7z"/>
	</g>
	<path class="st3" d="M64.3,213.2c-1.5,0-1.5,0-1.4-1.6c0.3-7.5,6.1-13.2,13.6-13.5c3.1-0.1,6.3,0,9.4,0c1.1,0,1.2-0.1,0.7-1.1
		c-3.6-6.8-4.4-14.2-3.9-21.7c0.3-5.2,1.2-10.3,2.5-15.4c0.9-3.7,2-7.3,3.1-10.9c1.1-3.4,2.3-6.8,3.3-10.2c0.2-0.6,0.2-1.3,0-1.9
		c-0.5-1.5-1.2-3-1.9-4.4c14.8,5.6,2.7,56.4,18.8,80.7L64.3,213.2"/>
	<path class="st3" d="M66.7,122.2c4.9-20.8,17.4-38.5,34.6-50.2c-0.3,0.2-0.6,0.3-1.1,0.4c-5.4,0.6-10.8,1.4-16,3.2
		c-7.1,2.5-12.9,6.6-16.6,13.2c-1.6,2.8-2.8,5.8-4.2,8.6c-1.7,3.5-3.5,7-5.1,10.5c-1,2-0.9,4.1,0.2,6.1c1.2,2.2,2.8,4,4.7,5.6
		C64.3,120.6,65.5,121.4,66.7,122.2z"/>
	<path class="st0" d="M199.9,224.5L199.9,224.5c0-1,0-2.4-0.5-4c-1.9-6.3-7.2-10.1-14-10.1l-118.1,0l-1.2,0c-0.9,0-1.7,0-2.6,0
		c-8.5,0.1-14.4,6.1-14.4,14.6l0,4.9c0,1.2,0,4.9,2.8,7.7c2.8,2.8,6.5,2.8,7.7,2.8h130.3c6,0,10.1-4.1,10.1-10.1l0-1
		C199.9,227.7,199.9,226.1,199.9,224.5z"/>
	<path class="st1" d="M124.6,233.7c-21.7,0-43.3,0-65,0c-2.8,0-3.8-1-3.8-3.8c0-1.6,0-3.3,0-4.9c0-4.9,3-7.9,7.8-7.9
		c1.2,0,2.5,0,3.7,0c39.4,0,78.7,0,118.1,0c3.9,0,6.6,1.8,7.7,5.4c0.2,0.7,0.2,1.5,0.2,2.2c0,1.9,0,3.8,0,5.6c0,2.4-1.1,3.4-3.4,3.4
		C168.1,233.7,146.4,233.7,124.6,233.7z"/>
	<path class="st3" d="M109.3,217c-10,0-32,0-41.9,0c-1.2,0-2.5,0-3.7,0c-4.9,0.1-7.8,3.1-7.8,7.9c0,1.6,0,3.3,0,4.9
		c0,2.9,1,3.8,3.8,3.8c6.9,0,51.7,0,58.5,0C118.2,233.7,110.9,224.5,109.3,217z"/>
</g>
</svg>
