<?xml version="1.0" encoding="utf-8"?>
<!-- Generator: Adobe Illustrator 23.1.1, SVG Export Plug-In . SVG Version: 6.00 Build 0)  -->
<svg version="1.1" id="Capa_1" xmlns="http://www.w3.org/2000/svg" xmlns:xlink="http://www.w3.org/1999/xlink" x="0px" y="0px"
	 viewBox="0 0 157 250" style="enable-background:new 0 0 157 250;" xml:space="preserve">
<style type="text/css">
	.st0{fill:#3E3F3C;}
	.st1{fill:#0B0F0E;}
	.st2{fill:#FFFFFF;}
</style>
<g>
	<path class="st0" d="M123.7,97.3c-3-11.5-6.5-22.8-9.8-34.2c-0.7-2.5-0.1-4.5,2.2-5.8c1.3-0.7,2.8-1.1,4.1-1.8
		c1.1-0.5,2.4-1,3.3-1.8c1.9-1.7,3.9-3.4,5.5-5.4c1.2-1.5,3.4-2.7,3.2-5.1c-0.3-3.5-0.8-6.8-2.4-10c-1.5-2.8-2.7-5.7-3.8-8.6
		c-2.2-5.8-5.9-10.3-11.3-13.1c-12-6.3-24.5-8.3-37.6-3.7c-1.4,0.5-3,0.3-4.6,0.5c-2.3,0.2-4.8,0-6.9,0.8c-3.4,1.3-6.6,3.2-9.9,4.8
		c-0.6,0.3-1.4,0.5-2,0.4c-6.6-0.3-12.8,1.3-18.8,3.9c-4.8,2.1-9.6,4.4-12.5,9c-3.3,5.4-6.6,10.9-9,16.8C11,49.7,9.3,55.8,7.7,61.9
		C6.2,67.8,5,73.8,3.8,79.8c-0.2,0.9,0,1.9,0.3,2.7c0.7,2.2,1.6,4.4,2.3,6.6C7,91.3,7,93.7,7.8,95.8c2.1,5.8,4.3,11.6,6.7,17.4
		c1.6,3.8,3.4,7.6,5.1,11.4c-3.3,2.1-3.1,2-2,5.8c0.4,1.5,0.4,3.3,0,4.8c-0.4,1.7-0.1,2.3,1.2,2.6c-0.1,0.9,0.1,1.8,0.3,2.6
		c0.5,1.6,1.2,3.1,1.4,4.6c0.2,2.2-0.1,4.4-0.1,6.6c-0.1,8.9,6.3,15.8,15.4,16.1c-0.1,0.6-0.1,1.1-0.2,1.5c-1.2,7,3.7,11.1,5.6,17.3
		c1.9,4.3,27,6.9,44.8,7c17.8,0.2,32.7-3.4,36.8-4.7c4.1-1.4,5.5-6.2,5.5-6.2c3.7-18.1,4-38.4,1.6-56.5
		C128.6,116.5,126.2,106.9,123.7,97.3 M34.9,146.9c-1.3,8.1-4.3,4.9-4.9-1.7c0,0-0.3-10.4-5.1-15.1
		C24.9,130.1,36.2,138.8,34.9,146.9 M45.5,83.3c-7.7,8.5-7.6,18.3-4.7,28.4c1.9,6.4,2.5,12.7,0.6,19.4c-2.2-7-4.5-14-6.7-21
		c-1-3.4-2.2-6.7-2.6-10.2c-0.3-2.6,0.3-5.4,0.8-8.1c0.4-2,1.3-3.9,1.6-5.9c0.3-1.8,1.1-2.9,2.8-3.3c2.2-0.6,4.4-1.3,6.6-1.7
		c0.7-0.1,1.4,0.3,2.2,0.5C45.9,82.1,45.9,82.9,45.5,83.3"/>
	<path class="st1" d="M87.3,194.7c-0.4,0-0.8,0-1.1,0c-11.1-0.1-43.2-1.7-45.8-7.6c-0.7-2.2-1.7-4-2.7-5.8c-1.9-3.5-3.9-7.1-3-12.1
		c0-0.1,0-0.3,0.1-0.4c-9.1-0.9-15.5-7.9-15.3-17.1c0-0.8,0.1-1.5,0.1-2.3c0.1-1.5,0.1-2.9,0-4.2c-0.1-0.9-0.4-1.8-0.8-2.8
		c-0.2-0.5-0.4-1.1-0.6-1.6c-0.2-0.8-0.4-1.5-0.4-2.2c-0.5-0.2-0.8-0.5-1-0.9c-0.5-0.9-0.3-1.9-0.1-2.7c0.3-1.3,0.3-2.9,0-4.2
		l-0.1-0.4c-1-3.6-0.9-4.3,1.8-6.1c-0.4-0.9-0.8-1.8-1.2-2.7c-1.2-2.6-2.4-5.2-3.5-7.9c-2.6-6.4-4.8-12.1-6.7-17.4
		c-0.5-1.3-0.7-2.6-0.9-3.9c-0.2-1-0.3-1.9-0.6-2.8C5,88.2,4.6,87,4.2,85.8c-0.4-1-0.7-1.9-1-2.9c-0.4-1.3-0.5-2.4-0.3-3.2l0.7-3.5
		c1-4.8,1.9-9.7,3.2-14.5C8.3,56,10,49.6,12.5,43.6c2.6-6.2,6.1-12,9.1-16.9c2.9-4.7,7.6-7,12.9-9.4c6.7-3,13-4.3,19.2-4
		c0.5,0,1.1-0.1,1.5-0.3c1.1-0.5,2.2-1.1,3.3-1.7c2.1-1.1,4.4-2.3,6.7-3.2c1.6-0.6,3.3-0.7,5-0.7c0.7,0,1.4-0.1,2.1-0.1
		c0.5-0.1,1-0.1,1.5-0.1c1,0,2-0.1,2.8-0.4c12.7-4.4,25.2-3.2,38.4,3.8c5.5,2.9,9.5,7.5,11.8,13.7c1.3,3.4,2.5,6.2,3.7,8.5
		c1.8,3.5,2.3,7.2,2.5,10.4c0.2,2.3-1.2,3.7-2.4,4.8c-0.4,0.4-0.7,0.7-1,1.1c-1.7,2.1-3.7,3.9-5.6,5.6c-0.9,0.8-1.9,1.2-2.9,1.7
		l-0.6,0.3c-0.6,0.3-1.1,0.5-1.7,0.7c-0.8,0.3-1.6,0.6-2.3,1c-1.8,1-2.3,2.5-1.7,4.6c1,3.5,2,6.9,3,10.3c2.3,7.8,4.7,15.9,6.8,23.9
		c2.7,10.3,5,19.5,6.3,29.1c2.5,19.2,2,39.4-1.6,56.8c-0.1,0.3-1.6,5.4-6.2,7C119.5,191.2,104.9,194.7,87.3,194.7 M52.2,15.3
		c-5.4,0-11,1.3-16.9,3.9c-5,2.2-9.4,4.4-12,8.6c-3,4.8-6.4,10.6-9,16.6c-2.5,5.8-4.2,12.2-5.6,17.8c-1.3,4.7-2.2,9.6-3.2,14.4
		L4.8,80c-0.1,0.5,0,1.3,0.3,2.2c0.3,1,0.6,1.9,1,2.8c0.5,1.2,0.9,2.5,1.3,3.8c0.3,1,0.4,2,0.6,3c0.2,1.3,0.4,2.5,0.8,3.6
		c1.9,5.3,4.1,11,6.7,17.3c1.1,2.6,2.3,5.3,3.5,7.8c0.5,1.2,1.1,2.3,1.6,3.5l0.4,0.8l-0.8,0.5c-2.5,1.6-2.5,1.6-1.7,4.3l0.1,0.4
		c0.5,1.7,0.5,3.7,0,5.3c-0.2,0.9-0.1,1.1-0.1,1.1s0.1,0.1,0.5,0.2l0.9,0.2l-0.1,0.9c0,0.7,0,1.4,0.3,2.2c0.1,0.5,0.3,1,0.5,1.5
		c0.4,1.1,0.8,2.2,0.9,3.3c0.1,1.5,0.1,3.1,0,4.5c0,0.7-0.1,1.5-0.1,2.2c-0.1,8.4,5.9,14.7,14.4,15.1h1.1l-0.2,1.7
		c0,0.4-0.1,0.7-0.1,1.1c-0.7,4.2,1,7.4,2.8,10.7c1,1.9,2.1,3.8,2.8,6.1c1.3,3,22.6,6.1,43.9,6.3c17.9,0.1,32.7-3.4,36.5-4.7
		c3.6-1.2,4.8-5.4,4.8-5.5c3.5-17.1,4.1-37.1,1.5-56c-1.4-9.5-3.7-18.7-6.3-28.9c-2.1-8-4.5-16.1-6.8-23.9c-1-3.5-2-6.9-3-10.4
		c-0.9-3.1,0-5.5,2.7-7c0.8-0.5,1.7-0.8,2.6-1.2c0.5-0.2,1.1-0.4,1.6-0.7l0.7-0.3c0.9-0.4,1.8-0.8,2.4-1.3c1.9-1.6,3.8-3.4,5.4-5.3
		c0.4-0.4,0.8-0.9,1.2-1.3c1.1-1.1,1.8-1.9,1.7-3.1c-0.3-3.8-0.8-6.8-2.3-9.6c-1.3-2.5-2.5-5.2-3.8-8.8c-2.1-5.7-5.7-9.9-10.8-12.5
		c-12.7-6.6-24.7-7.8-36.8-3.6C76.3,9,75.1,9.1,74,9.1c-0.5,0-1,0-1.4,0.1c-0.7,0.1-1.5,0.1-2.2,0.1C68.8,9.4,67.3,9.5,66,10
		c-2.2,0.8-4.4,2-6.5,3.1c-1.1,0.6-2.2,1.2-3.4,1.7c-0.8,0.4-1.7,0.6-2.5,0.5C53.1,15.3,52.7,15.3,52.2,15.3 M32.7,152.7
		C32.6,152.7,32.6,152.7,32.7,152.7c-2.3-0.1-3.4-3.9-3.7-7.5c0-0.2-0.4-10.1-4.8-14.5l1.4-1.6c0.5,0.4,11.7,9.2,10.4,17.8
		C35.7,148.5,35,152.7,32.7,152.7 M29.4,135.9c1.5,4.5,1.6,9,1.6,9.3c0.3,3.4,1.2,5.2,1.7,5.5c0-0.1,0.7-0.8,1.1-3.9
		C34.5,143,32,139,29.4,135.9 M41.5,134.7l-3-9.4c-1.6-5-3.2-9.9-4.7-14.9l-0.5-1.5c-0.9-2.9-1.8-5.9-2.2-8.9
		c-0.3-2.4,0.2-4.8,0.6-7.2l0.2-1.2c0.2-1,0.5-2,0.8-3s0.6-1.9,0.8-2.9c0.3-2.2,1.5-3.6,3.6-4.2l1.6-0.4c1.6-0.5,3.4-0.9,5.1-1.3
		c0.7-0.2,1.4,0.1,2,0.3c0.2,0.1,0.4,0.1,0.6,0.2l1.1,0.3l-0.3,1c-0.1,0.2-0.1,0.4-0.1,0.5c-0.1,0.5-0.2,1.2-0.7,1.7
		c-6.4,7.1-7.8,15.8-4.4,27.4c2.2,7.5,2.4,13.8,0.6,20L41.5,134.7z M44.2,82L44.2,82c-1.7,0.3-3.4,0.8-5,1.3l-1.6,0.4
		c-1.3,0.3-1.8,1-2.1,2.5c-0.2,1.1-0.5,2.2-0.9,3.2c-0.3,0.9-0.6,1.8-0.7,2.7l-0.2,1.2c-0.4,2.2-0.8,4.5-0.6,6.6
		c0.3,2.9,1.2,5.7,2.1,8.5l0.5,1.5c1.5,5,3.1,9.9,4.7,14.9l0.8,2.5c0.7-4.6,0.2-9.5-1.4-15.1c-3.6-12.4-2.1-21.7,4.9-29.4
		c0.1-0.1,0.1-0.3,0.2-0.5C44.7,82,44.4,82,44.2,82"/>
	<path class="st0" d="M134.9,199.6c-3.9-1.1-4.6-4.5-4.3-7.6c0-0.5-0.5-0.7-0.9-0.5c-14.1,5.6-24.7,7.5-45.3,7.5
		c-21.7,0-30.6-2.9-43.9-7.5c-0.5-0.2-1,0-0.9,0.5c0.3,3.2-0.4,6.6-4.3,7.6c-0.1,0-0.2,0.1-0.3,0.2c-0.8,0.9-3.6,9.5,50.1,10.2
		c53.7-0.7,50.9-9.3,50.1-10.2C135.1,199.7,135,199.6,134.9,199.6"/>
	<path class="st1" d="M85.1,211c-30.9-0.4-48.5-3.5-51.1-9c-0.6-1.3-0.3-2.4,0.2-2.9c0.2-0.3,0.5-0.4,0.8-0.5
		c2.7-0.8,3.9-2.9,3.6-6.5c0-0.5,0.2-1,0.6-1.3c0.5-0.4,1.1-0.5,1.7-0.2c13.1,4.5,21.8,7.4,43.6,7.4c20.1,0,30.6-1.7,44.9-7.4
		c0.6-0.2,1.3-0.2,1.7,0.2c0.4,0.3,0.6,0.8,0.6,1.4c-0.3,3.6,0.8,5.8,3.6,6.5c0.3,0.1,0.6,0.3,0.8,0.5c0.5,0.6,0.8,1.7,0.2,2.9
		C133.6,207.5,115.9,210.6,85.1,211 M35.7,200.5c0,0.1,0,0.4,0.1,0.7c0.9,1.7,7.1,7.1,49.2,7.7c42.1-0.6,48.3-6.1,49.2-7.7
		c0.2-0.3,0.2-0.6,0.1-0.7c-3.3-1-5-3.8-4.9-7.9c-14.3,5.6-25,7.3-45.1,7.3c-21.8,0-31.1-3.1-43.7-7.3
		C40.9,197.8,38.2,199.8,35.7,200.5"/>
	<path class="st0" d="M151.6,225c-5.9-5.1-10.7-14.2-10.7-14.2s-2.6-4.3-5.9-4.2c-0.1,0-0.1,0-0.2,0c-3.4,0.2-3.7,7-49.8,7
		c-44.9,0-46.4-6.8-49.8-7c-0.1,0-0.1,0-0.2,0c-3.3-0.1-5.9,4.2-5.9,4.2s-4.8,9.1-10.7,14.2c-5.9,5.1,3.6,11.1,8.1,12.9
		c5.1,2.1,22.9,6.9,58.4,6.9s53.3-4.8,58.4-6.9C148,236.1,157.5,230.2,151.6,225"/>
	<path class="st1" d="M85.1,245.9c-40.3,0-57-6.2-58.8-6.9c-3.3-1.3-9.8-5-10.6-9.5c-0.2-1.3,0-3.3,2.2-5.2
		c5.7-4.9,10.4-13.8,10.5-13.9c0.1-0.2,2.9-4.8,6.7-4.8c0.1,0,0.1,0,0.2,0c1.1,0,1.8,0.4,2.8,1c3.5,1.8,11.6,6,47.1,6l0,0
		c36.4,0,43.9-4.2,47.2-6c0.9-0.5,1.6-0.9,2.6-1h0.1h0.2c3.8-0.2,6.6,4.5,6.8,4.7c0.1,0.1,4.8,9,10.5,14c2.2,1.9,2.4,3.9,2.2,5.2
		c-0.8,4.5-7.3,8.2-10.6,9.5C142.1,239.6,125.4,245.9,85.1,245.9 M35.1,207.6c-2.3,0-4.4,2.7-5,3.7c-0.2,0.3-4.9,9.3-10.9,14.5
		c-1.2,1-1.7,2.1-1.5,3.3c0.5,3.1,5.8,6.5,9.3,7.9c1.7,0.7,18.1,6.8,58,6.8s56.3-6.1,58-6.8c3.6-1.4,8.8-4.8,9.3-7.9
		c0.2-1.2-0.3-2.2-1.5-3.3c-6-5.2-10.7-14.1-10.9-14.5c-0.6-1-2.7-3.7-4.9-3.7h-0.1h-0.1c-0.4,0-0.8,0.2-1.6,0.7
		c-3.4,1.9-11.3,6.3-48.2,6.3l0,0c-35.9,0-44.4-4.4-48-6.3C36.2,207.9,35.7,207.6,35.1,207.6C35.2,207.6,35.2,207.6,35.1,207.6"/>
	<path class="st2" d="M26,43.1c-0.2-0.6,1.7-4.4,4.6-4.1s0.9,2.4-0.6,3C28.5,42.7,26,43.1,26,43.1"/>
</g>
<g>
	<path class="st1" d="M77,123.2c-1.2,0-2.6-0.4-4-1.1c-6.6-3.4-10.2-12.8-13.1-20.2c-1.1-2.8-1.1-7.9-1.1-7.9c1,1.7,2,4.2,3.1,7.1
		c2.8,7.1,6.3,16,12.1,19.1c1.6,0.8,3,1.1,4.2,0.6c3-1,5.1-5.8,7.3-10.8c2.5-5.5,5.2-11.8,10-15.2c6.9-5,7.8-12,8.7-18.8
		c1-7.5,2-15.3,11.4-19.7l0.9,2c-8.3,3.9-9.1,10.5-10.1,18c-0.9,7.2-1.9,14.7-9.6,20.2c-4.2,3.1-6.9,9.1-9.3,14.3
		c-2.5,5.7-4.8,10.7-8.6,12C78.4,123,77.7,123.2,77,123.2z"/>
</g>
</svg>
