<?xml version="1.0" encoding="utf-8"?>
<!-- Generator: Adobe Illustrator 23.1.1, SVG Export Plug-In . SVG Version: 6.00 Build 0)  -->
<svg version="1.1" id="Capa_1" xmlns="http://www.w3.org/2000/svg" xmlns:xlink="http://www.w3.org/1999/xlink" x="0px" y="0px"
	 viewBox="0 0 250 250" style="enable-background:new 0 0 250 250;" xml:space="preserve">
<style type="text/css">
	.st0{fill:#382517;}
	.st1{fill:#FBF5EA;}
	.st2{opacity:0.7;fill:#E7D5B6;}
	.st3{opacity:0.7;}
</style>
<g>
	<path class="st0" d="M217.2,135.2c-4.4-27.9-14.8-49.2-24.8-66.4c3.3-5.2,6.1-11.1,6.8-15.9c1.1-7.3-1.1-16.6-1.9-19.5
		c-0.1-1-0.2-1.9-0.3-2.9c-0.6-4.9-3.7-11.7-14.8-15.8c-2.2-0.8-4.4-2-6.7-3.2c-3.3-1.7-6.7-3.5-10.7-4.7c-10.2-3-17.7-0.9-26.9,4.4
		c-9.3-4-17.6-3.1-23.8-2.3c-1.5,0.2-2.9,0.3-4.2,0.4c-7.9,0.5-15,3.2-20.5,7.7C79.8,25,77,35.2,74.3,45c-0.3,1.1-0.6,2.3-0.9,3.4
		c-0.4,1.5-0.8,2.9-1.2,4.4c-0.3,0.7-0.7,1.3-1,2c-0.5,0.9-1,1.7-1.4,2.4l-0.3,0.4c-0.1,0.1-0.1,0.2-0.1,0.2L69.2,58
		c-0.4,0.6-0.9,1.3-1.4,2.2c-2.4,4.2-3.4,9.3-3.2,15.5c0,1.6,0.2,3.1,0.3,4.6c-11.6,14.4-13.4,32.4-12.8,47.7
		c-2.4-2.5-5.3-3.9-8.4-4.1c-2.2-0.1-6.4,0.4-10.1,4.8c-5.9,7-8.8,16-8.2,25.3c0.5,8.8,4.1,16.9,9.8,22.1c6.3,5.8,15.2,9,24.2,9
		c3.4,0,6.9-0.5,10.1-1.5c3.5-1,6.6-2.6,9.3-4.6c1.4,7.8,3.6,14.3,5.7,19.3c-4.7,3.2-8.5,8.8-8.5,17.8l0,8.3h6.3l134.7,0v-8.1
		c0-8-3.4-13.6-7.6-17.1c4.3-6.5,6.6-15.1,7.8-22.7C219.7,161.5,218.7,144.8,217.2,135.2z"/>
	<path class="st1" d="M210.3,136.2c-4-25.7-13.3-46-25.4-66.4l-2.1,0.5c4.2-5.6,8.7-13.2,9.5-18.5c1-7.1-1.9-17.3-1.9-17.3v0
		c-0.1-1.1-0.1-2.1-0.3-3.2c-0.7-5.4-5.6-8.4-10.3-10.1c-5.8-2.2-11-5.9-16.9-7.7c-8.7-2.6-14.6-0.6-24.6,5.7
		c-10.9-6.2-20-3.4-27.8-2.9c-6.1,0.4-11.9,2.3-16.5,6.1c-9,7.4-10.9,17.5-13.8,27.8c-0.5,1.6-0.9,3.3-1.4,5
		c-0.5,0.9-0.9,1.9-1.4,2.8c-0.5,1-1.1,1.9-1.7,2.9c-0.1,0.2-0.5,0.8-0.5,0.8c-0.4,0.6-0.8,1.2-1.2,1.8c-2,3.6-2.5,7.9-2.3,11.9
		c0.1,2.4,0.4,4.7,0.7,7c-25.7,28-4.5,76.1-12.6,78.6c-5.5,1.6-10-4-9.4-9.3c0.5-3.8,4.5-6,5.8-8.2c3.2-5.5-1.5-7.8-5.7-8.3
		c-0.8-0.1-1.6-0.5-2.1-1.2c-2.2-3.2-5.8-5.1-9.2-1c-10.1,12.1-7.7,29.8,1,37.8c12,11.1,38.2,10.8,43.7-11.4
		c4.5-18.2-2.9-35.1,12.8-44c-21.2,40.9-9.7,73.3-2.3,86.7c0,0,77.1,0,100.1,0C212.7,199.1,213.5,156.4,210.3,136.2z"/>
	<path class="st2" d="M96.5,115.5l-2.5,5.1c-17.7,38.5-6.9,68.8,0.2,81.6c0,0,15.8,0,27.5,0C98.6,181.2,93.1,148,96.5,115.5z"/>
	<path class="st1" d="M82.3,216.3c0-12.6,9.8-15.3,14.6-15.3c1,0,2,0,3.1,0c32.7,0,65.4,0,98.2,0c3.3,0,12.6,4.1,12.6,15.6
		L82.3,216.3z"/>
	<path class="st0" d="M193.8,52.2c-0.8-0.1-1.5,0.3-1.7,1.1c-0.8,3-2.3,5.8-3.8,8.3c-1.7,2.9-3.8,5.6-5.4,7.7c-1,1.2-2,2.4-3,3.6
		c-0.5,0.6-1,1.1-1.6,1.6c-0.2,0.2-0.5,0.6-0.8,0.9l-0.4,0.5c-0.2,0.3-0.4,0.5-0.6,0.8c-1.9,2.6-3.6,5.5-5.2,9
		c-0.8,1.7-1.3,3.3-1.8,4.9l-0.1,0.3c-0.2,0.7-0.4,1.3-0.6,1.9c-0.2,0.7-0.5,1.4-0.8,2.1c-1,2.5-2.3,5.2-4,8.3
		c-1.6,2.9-3.2,5.5-4.9,7.8c-2.1,3-4,5-5.7,6.4c-1.2,0.9-2.4,1.8-3.6,2.7c-3.9,3-8,6.1-11.8,9.7c-1.2,1.2-2.4,2.5-3.5,3.8l-3.2,3.7
		l-1.6,1.9l-1.3,1.6c-0.1,0-0.2-0.1-0.4-0.1c-0.2-0.1-0.4-0.3-0.6-0.6c-0.2-0.4-0.4-0.8-0.6-1.5c-0.4-1.4-0.7-2.7-0.8-4.2
		c-0.3-3.1-0.3-6.4-0.4-9.4c0-2.9,0-6.3-0.2-9.8c-0.2-3.2-0.5-6.7-1.8-10c-0.3-0.7-1.1-1.1-1.8-0.9c-0.8,0.2-1.2,1-1,1.8
		c0.4,1.5,0.4,3,0.4,4.5c0,1.7-0.1,3.4-0.1,4.7c-0.1,2-0.3,4-0.5,5.9c-0.1,1.2-0.2,2.4-0.3,3.7l-0.1,1c-0.2,2.9-0.4,5.9-0.3,9
		c0.1,1.9,0.3,3.7,0.8,5.4c0.2,0.7,0.5,1.9,1.1,3c0.6,1.2,1.6,2.3,2.7,2.9c1.2,0.8,2.7,1.3,4.1,1.3c0,0,0,0,0,0
		c1.7,0,3.4-0.7,4.5-1.9l6.5-7.3c1-1.1,2.1-2.2,3.2-3.2c3.5-3.3,7.4-6.1,11.5-9.2c1.1-0.9,2.3-1.7,3.5-2.6c1.4-1,2.6-2.3,4-3.9
		c1.1-1.2,2.1-2.6,3.2-4.1c1.8-2.6,3.6-5.5,5.3-8.6c1.7-3.2,3-6.2,4.1-9.2c0.3-0.8,0.6-1.6,0.8-2.5c0.2-0.6,0.4-1.3,0.5-2l0.1-0.5
		c0.4-1.4,0.9-2.8,1.4-4.2c1.2-3,2.6-5.7,4.1-8c0.1-0.2,0.3-0.4,0.4-0.6l0.4-0.5c0.1-0.2,0.3-0.4,0.5-0.6c0.5-0.5,0.9-1.1,1.4-1.7
		l0.2-0.3c1-1.3,2-2.7,2.9-4.1c1.8-2.7,3.4-5.5,4.9-8.8c1.3-3,2.6-6.3,2.9-9.8C195.1,53,194.5,52.3,193.8,52.2z M129.7,141.6
		L129.7,141.6L129.7,141.6L129.7,141.6z"/>
	<path class="st0" d="M108.1,61.9c3.7-0.2,9.2-0.6,11.5-0.8c-3.5,6.9-6.9,8.4-12.2,8.4c-5.3-0.1-6.9-0.4-6.9-0.4l2.1-3.7
		C103.7,63.4,105.8,62.1,108.1,61.9z"/>
	<path class="st0" d="M224.1,228.3c0-1,0-2.4-0.5-4c-1.9-6.4-7-10.1-14-10.1l-122.7,0l-1.2,0c-0.9,0-1.8,0-2.7,0
		c-8.6,0.1-14.4,6-14.4,14.6l0,5.1c0,1.2,0,4.9,2.7,7.6c2.7,2.7,6.4,2.7,7.5,2.7h135.3c5.9,0,9.9-4,9.9-9.9l0-1.1
		C224.1,231.5,224.1,229.9,224.1,228.3z"/>
	<path class="st1" d="M146.5,237.8c-22.5,0-45,0-67.5,0c-2.9,0-3.9-1-3.9-4c0-1.7,0-3.4,0-5.1c0-5,3.1-8.2,8.1-8.2
		c1.3,0,2.6,0,3.8,0c40.9,0,81.8,0,122.7,0c4.1,0,6.8,1.9,8,5.6c0.2,0.7,0.2,1.5,0.3,2.3c0,2,0,3.9,0,5.9c0,2.5-1.1,3.6-3.6,3.6
		C191.7,237.8,169.1,237.8,146.5,237.8z"/>
	<g class="st3">
		<path class="st2" d="M59.6,161.1c8.1-2.5-13.3-50.8,12.6-78.6L72.2,82c-0.3-2.2-0.5-4.3-0.6-6.5c-0.1-4,0.3-8.2,2.3-11.9
			c0.4-0.6,0.8-1.2,1.2-1.8c0,0,0.4-0.6,0.5-0.8c0.6-0.9,1.1-1.9,1.7-2.9c0.5-0.9,1-1.8,1.4-2.8c0.4-1.7,0.9-3.3,1.4-5
			C83.1,39.9,85,29.9,94,22.5c4.6-3.8,10.5-5.7,16.5-6.1c7.7-0.5,16.9-3.3,27.8,2.9c-48.7-4.7-65.5,56-66,63.2
			c-10.3,20.9-0.9,44.7-1.5,63.4C70.4,161.1,59.6,161.1,59.6,161.1z"/>
		<path class="st2" d="M40,171c-8.7-8.1-11.1-25.7-1-37.8c3.4-4.1,7-2.3,9.2,1c0.5,0.7,1.2,1.2,2.1,1.2c4.2,0.5,8.9,2.7,5.7,8.3
			C42.2,138.8,34.1,156,40,171z"/>
	</g>
	<g class="st3">
		<path class="st2" d="M128.5,220.5c0,0-28.7,0-41.5,0c-1.3,0-2.6,0-3.8,0c-5.1,0.1-8.1,3.2-8.1,8.2c0,1.7,0,3.4,0,5.1
			c0,3,1,4,3.9,4c8,0,59.4,0,67.4,0C135.6,232.6,128.5,220.5,128.5,220.5z"/>
	</g>
</g>
</svg>
