<?xml version="1.0" encoding="utf-8"?>
<!-- Generator: Adobe Illustrator 23.1.1, SVG Export Plug-In . SVG Version: 6.00 Build 0)  -->
<svg version="1.1" id="Capa_1" xmlns="http://www.w3.org/2000/svg" xmlns:xlink="http://www.w3.org/1999/xlink" x="0px" y="0px"
	 viewBox="0 0 157 250" style="enable-background:new 0 0 157 250;" xml:space="preserve">
<style type="text/css">
	.st0{fill:#3E3F3C;}
	.st1{fill:#0B0F0E;}
	.st2{fill:#FFFFFF;}
</style>
<path class="st0" d="M134.8,198.3c-3.9-1.1-4.6-4.5-4.3-7.6c0-0.5-0.5-0.8-0.9-0.5c-9.4,6.8-24,10-44.6,10c-21.7,0-35.2-3.2-44.6-10
	c-0.4-0.3-1,0-0.9,0.5c0.3,3.2-0.4,6.6-4.3,7.6c-0.1,0-0.2,0.1-0.3,0.2c-0.8,0.9-3.6,9.5,50.1,10.2c53.7-0.7,50.9-9.3,50.1-10.2
	C135,198.4,134.9,198.4,134.8,198.3"/>
<path class="st1" d="M85,209.8c-30.9-0.4-48.5-3.5-51.1-9c-0.6-1.3-0.3-2.4,0.2-2.9c0.2-0.2,0.5-0.4,0.8-0.5
	c2.7-0.8,3.9-2.9,3.6-6.5c-0.1-0.6,0.3-1.2,0.8-1.5c0.6-0.3,1.2-0.3,1.8,0.1c9.3,6.8,22.9,9.8,44,9.8c20.6,0,35-3.2,44-9.8
	c0.5-0.4,1.2-0.4,1.8-0.1c0.5,0.3,0.9,0.9,0.8,1.5c-0.3,3.6,0.8,5.8,3.6,6.5c0.3,0.1,0.6,0.3,0.8,0.5c0.5,0.6,0.8,1.7,0.2,2.9
	C133.5,206.2,115.9,209.4,85,209.8 M35.7,199.3c0,0.1,0,0.4,0.1,0.7c0.9,1.7,7.1,7.1,49.2,7.7c42.1-0.6,48.3-6.1,49.2-7.7
	c0.2-0.3,0.2-0.6,0.1-0.7c-2.4-0.7-5-2.7-4.9-7.7c-9.4,6.5-24,9.6-44.4,9.6c-21,0-34.8-3-44.4-9.6C40.7,196.6,38.1,198.5,35.7,199.3
	"/>
<path class="st0" d="M151.5,223.8c-5.9-5.1-10.7-14.2-10.7-14.2s-2.6-4.3-5.9-4.2c-0.1,0-0.1,0-0.2,0c-3.4,0.2-3.7,7-49.8,7
	c-44.9,0-46.4-6.8-49.8-7c-0.1,0-0.1,0-0.2,0c-3.3-0.1-5.9,4.2-5.9,4.2s-4.8,9.1-10.7,14.2c-5.9,5.1,3.6,11.1,8.1,12.9
	c5.1,2.1,22.9,6.9,58.4,6.9s53.3-4.8,58.4-6.9C148,234.9,157.4,228.9,151.5,223.8"/>
<path class="st1" d="M85,244.6c-40.3,0-57-6.2-58.8-6.9c-3.3-1.3-9.8-5.1-10.6-9.5c-0.2-1.3,0-3.3,2.2-5.2
	c5.7-4.9,10.4-13.8,10.5-13.9c0.1-0.2,2.9-4.8,6.7-4.8c0.1,0,0.1,0,0.2,0c1.1,0,1.8,0.4,2.8,1c3.5,1.8,11.6,6,47.1,6l0,0
	c36.4,0,43.9-4.2,47.1-6c0.9-0.5,1.6-0.9,2.6-1h0.1h0.2c0.1,0,0.1,0,0.1,0c3.7,0,6.5,4.5,6.6,4.7c0.1,0.1,4.8,9,10.5,14
	c2.2,1.9,2.4,3.9,2.2,5.2c-0.8,4.5-7.3,8.2-10.6,9.5C142,238.4,125.3,244.6,85,244.6 M35.1,206.3c-2.3,0-4.4,2.7-5,3.7
	c-0.2,0.3-4.9,9.3-10.9,14.5c-1.2,1-1.7,2.1-1.5,3.3c0.5,3.1,5.8,6.5,9.3,7.9c1.7,0.7,18.1,6.8,58,6.8s56.3-6.1,58-6.8
	c3.6-1.4,8.8-4.8,9.3-7.9c0.2-1.2-0.3-2.2-1.5-3.3c-6-5.2-10.7-14.1-10.9-14.5c-0.6-1-2.7-3.7-4.9-3.7h-0.1l-0.1-1l-0.1,1
	c-0.3,0-0.8,0.2-1.6,0.7c-3.4,1.9-11.3,6.3-48.2,6.3l0,0c-35.9,0-44.4-4.4-48-6.3C36.1,206.6,35.6,206.4,35.1,206.3L35.1,206.3"/>
<path class="st0" d="M132.8,105.7c-0.3-3.9-0.9-7.9-0.8-11.8c0.1-7.6-0.2-15-3.6-22c-0.9-1.8-1.1-3.9-1.7-5.8
	c-1.6-4.5-3-9.1-4.9-13.5c-1.1-2.4-3.4-4.3-4.5-6.8c-1.7-3.9-4.5-6.9-7.2-10c-1-1.2-2.4-2.1-3.6-3.2L99,23.9
	c0.4,0.3,0.9,0.4,1.4,0.6c0.1-0.1,0.2-0.3,0.3-0.4c-0.4-0.4-0.8-0.9-1.3-1.3c-5.8-4.6-11.5-9.3-17.3-13.7c-1.8-1.4-4-2.2-6.1-3.2
	c-0.3-0.2-0.7-0.1-1.1-0.1c0,0,0.4,0.4-0.6,1c-1.4,0.8-3.3-0.6-4.6-1.5c-2.6-1.6-5.3-1.6-7.9-0.9c-7.6,1.9-13.1,6.8-17.2,13.2
	c-1.6,2.6-2.9,5.4-4.2,8.1c-1,2.2-1.9,4.4-2.9,6.7c0.8,0.3,1.2,0.4,1.9,0.6c-0.5,0.3-0.7,0.7-1,0.7c-3.9,1.1-6.8,3.7-9.8,6.3
	c-2.1,1.9-3.6,4.2-4,7.1c-0.1,1.1-0.6,2.4-1.3,3.1c-3.4,3.6-7,7.1-10.5,10.6c-2.7,2.8-5.6,5.4-8,8.5c-2.6,3.3-2.2,5.2,0.5,8.5
	c0.6,0.7,1.4,1.4,1.7,2.3c1,2.6,2.7,4.5,5,5.8c1.1,0.6,1.5,1.5,1.5,2.8c0,3.2,1.2,6.1,3.2,8.6c1,1.3,2.3,2,4.1,1.8
	c1.2-0.1,2.3-0.3,3.5-0.3c2.2,0,3.5,1.9,2.5,3.8c-2.4,4.3-2.9,9-3.6,13.7c-0.2,1.6-0.4,3.3-0.1,4.9c1.4,7.7,5.6,13.7,12,18.1
	c1,0.7,1.4,1.3,1.3,2.6c-0.7,7.7,0.9,14.9,5,21.4c0.9,1.4,1.9,2,2.6,3.5c0,0-4.1,8.8-3.6,15c0.5,6.3,9.9,9,14.7,10.5
	c5.9,1.9,16.9,3.5,33.6,2.8c19.6-0.9,35.1-3,39.8-9.7c1.2-1.7-1.1-14.5-0.9-15.1c0,0,4.3-10.4-2.4-24.4
	C117.1,129.3,133.6,117.5,132.8,105.7"/>
<path class="st1" d="M80.1,196.5c-14,0-21.8-1.8-25.5-3l-0.8-0.2c-5.3-1.7-14.1-4.5-14.6-11.2c-0.5-5.6,2.6-13.1,3.5-15.1
	c-0.3-0.5-0.6-0.9-1-1.3c-0.4-0.5-0.9-1-1.3-1.7c-4.2-6.7-6-14.1-5.2-22.1c0.1-0.8-0.1-1.1-0.8-1.6c-6.9-4.7-11-11-12.4-18.7
	c-0.3-1.8-0.1-3.7,0.1-5.3l0.1-0.6c0.6-4.5,1.3-9.2,3.7-13.5c0.3-0.6,0.3-1.1,0.1-1.5c-0.3-0.5-0.9-0.8-1.6-0.8l0,0
	c-0.8,0-1.6,0.1-2.4,0.2l-1,0.1c-2,0.2-3.7-0.6-5-2.2c-2.3-2.9-3.4-6-3.4-9.2c0-1-0.2-1.5-1-1.9c-2.7-1.6-4.4-3.6-5.5-6.4
	c-0.2-0.4-0.6-0.9-1-1.3c-0.2-0.2-0.4-0.4-0.5-0.6c-2.7-3.3-3.6-5.8-0.5-9.8c1.8-2.3,3.9-4.5,6-6.5c0.7-0.7,1.4-1.4,2.1-2.1
	c1.3-1.3,2.6-2.7,3.9-4c2.2-2.2,4.4-4.4,6.5-6.7c0.5-0.5,0.9-1.5,1-2.5c0.4-3,1.9-5.6,4.3-7.8l0.4-0.4c2.5-2.2,5.1-4.5,8.4-5.7
	L35.9,33l1.3-3.1c0.7-1.6,1.3-3.1,2.1-4.7l0.8-1.6c1-2.2,2.1-4.5,3.5-6.6C48.3,9.6,54.2,5.1,61.4,3.3c3.5-0.9,6.2-0.5,8.7,1.1
	l0.5,0.3c0.9,0.6,2.2,1.4,2.9,1.2L72,4.4l2.8,0.3c0.1,0,0.2,0,0.3,0c0.3,0,0.8,0,1.2,0.2c0.6,0.3,1.2,0.6,1.7,0.8
	c1.5,0.7,3.1,1.4,4.5,2.5c4.5,3.4,9,7.1,13.4,10.6l4,3.2c0.4,0.3,0.7,0.7,1,1c0.1,0.1,0.2,0.3,0.4,0.4l0.5,0.6l-0.6,1.1l6,7
	c0.3,0.2,0.6,0.5,1,0.8c0.9,0.7,1.8,1.5,2.6,2.3l0.6,0.7c2.5,2.8,5.1,5.8,6.7,9.5c0.5,1.1,1.3,2.1,2.1,3.2c0.9,1.1,1.8,2.3,2.4,3.6
	c1.5,3.5,2.8,7.2,4,10.8l0.9,2.8c0.3,0.8,0.5,1.7,0.7,2.5c0.3,1.2,0.5,2.3,1,3.2c3.6,7.4,3.8,15.1,3.8,22.4c0,2.6,0.2,5.2,0.5,7.8
	c0.1,1.3,0.3,2.6,0.3,4c0.3,4.9-2.1,9.7-4.6,14.7c-3.9,7.6-7.8,15.5-3.3,25.2c6.4,13.4,3,23.5,2.5,25.1c0,0.4,0.2,1.5,0.3,2.5
	c1,7.6,1.4,11.7,0.4,13c-5.3,7.5-22.7,9.3-40.6,10.1C85.5,196.4,82.7,196.5,80.1,196.5 M24.1,97.8c1.5,0,2.7,0.7,3.4,1.8
	c0.6,1.1,0.6,2.4,0,3.6c-2.2,3.9-2.8,8.2-3.4,12.8l-0.1,0.6c-0.2,1.4-0.4,3.1-0.1,4.6c1.3,7.2,5.2,13,11.6,17.4
	c1.4,0.9,1.9,2,1.7,3.5c-0.7,7.5,0.9,14.5,4.9,20.8c0.4,0.6,0.7,1,1.1,1.4c0.5,0.6,1.1,1.2,1.6,2.1l0.2,0.5l-0.2,0.5
	c0,0.1-4,8.6-3.5,14.5c0.4,5.3,8.4,7.9,13.2,9.4l0.8,0.3c3.4,1.1,13.6,3.6,33.2,2.7c16.6-0.8,34.2-2.5,39-9.2
	c0.6-1.2-0.4-8.7-0.8-11.5c-0.4-2.6-0.4-2.9-0.3-3.2s4.1-10.3-2.3-23.8c-5-10.6-0.6-19.3,3.3-27c2.4-4.8,4.7-9.3,4.4-13.6
	c-0.1-1.3-0.2-2.6-0.3-3.9c-0.2-2.6-0.5-5.3-0.5-8c0.1-7.1-0.1-14.5-3.5-21.5c-0.6-1.2-0.9-2.4-1.2-3.7c-0.2-0.8-0.4-1.5-0.6-2.3
	l-1-2.8c-1.2-3.5-2.4-7.2-3.9-10.6c-0.5-1.1-1.3-2.1-2.1-3.2c-0.9-1.1-1.8-2.3-2.4-3.6c-1.5-3.4-3.9-6.1-6.4-9l-0.7-0.7
	c-0.7-0.8-1.5-1.4-2.3-2.1c-0.4-0.3-0.8-0.6-1.2-1l-7.6-8.8l0.8-0.8c-0.1-0.1-0.2-0.2-0.3-0.2l-4-3.2c-4.3-3.5-8.8-7.1-13.3-10.5
	c-1.2-0.9-2.6-1.6-4.1-2.3c-0.5-0.2-1.1-0.5-1.6-0.8c-0.2,0.3-0.5,0.5-0.9,0.8c-1.8,1-3.8-0.3-5.2-1.2L69,6.1
	c-2-1.3-4.2-1.5-7.1-0.8C55.2,7,49.8,11.2,45.3,18.1c-1.3,2-2.3,4.2-3.3,6.4l-0.8,1.6c-0.7,1.5-1.4,3-2,4.6l-0.4,1.1l2.8,0.9
	L40,33.9c-0.2,0.1-0.3,0.2-0.4,0.3c-0.3,0.2-0.6,0.5-1,0.6c-3.5,1-6.1,3.3-8.9,5.7l-0.4,0.4c-2.1,1.8-3.3,4-3.6,6.5
	c-0.2,1.5-0.8,2.9-1.6,3.7c-2.2,2.3-4.4,4.5-6.6,6.7c-1.3,1.3-2.6,2.6-3.9,4c-0.7,0.7-1.4,1.4-2.1,2.1c-2,2-4.1,4.1-5.8,6.3
	c-2.1,2.7-2,4.2,0.5,7.2c0.2,0.2,0.3,0.4,0.5,0.5c0.5,0.6,1.1,1.2,1.4,2c0.9,2.3,2.4,4,4.6,5.3c1.4,0.8,2,2,2,3.7
	c0,2.8,1,5.4,2.9,7.9c0.9,1.1,1.9,1.6,3.1,1.4l1-0.1C22.3,97.9,23.2,97.8,24.1,97.8"/>
<path class="st2" d="M25.3,52.1c0,0,5-7.5,9.6-3.6S28,53.6,25.3,52.1"/>
<path class="st2" d="M52.7,32.8c-0.7,1.4-0.9,3-0.5,4.4c0.4,1.5,1.4,2.5,2.7,3.3c0.6,0.5,1.3,1,1.7,1.8s0.6,1.7,0.6,2.5
	c0.1,1.6,0,3.1-0.1,4.7c-0.2,3.1-1,6.2-2,9.2s-2.6,5.8-3.9,8.5c-0.7,1.3-1.2,2.6-1.4,4s-0.1,2.9,0,4.4s0.3,3.1,0.2,4.7
	s-0.5,3.3-1.3,4.8c-3.4,5.8-9.7,8-13,13.2c1.3-2.8,3.6-5.1,5.8-7.2s4.5-4.2,5.8-6.8c1.3-2.6,1-5.5,0.6-8.6c-0.2-1.5-0.3-3.2-0.1-4.8
	c0.2-1.7,0.8-3.3,1.5-4.7c1.5-2.8,2.9-5.3,3.9-8.2c1.1-2.8,1.8-5.7,2.2-8.7c0.2-1.5,0.4-3,0.4-4.5c0-0.7-0.1-1.4-0.4-2
	c-0.3-0.6-0.8-1.1-1.3-1.6c-0.6-0.5-1.2-1-1.6-1.8c-0.5-0.7-0.8-1.5-0.9-2.3C51.4,35.7,51.7,34,52.7,32.8"/>
<path class="st2" d="M36.2,98.5L35.3,98c1.3-2.8,3.5-5,5.6-7l0.5-0.5c2.1-2,4.3-4,5.4-6.4c1.2-2.4,0.9-5.2,0.5-8.3
	c-0.2-1.5-0.3-3.2-0.1-5c0.2-1.5,0.7-3.1,1.6-4.9l0.3-0.5c1.4-2.5,2.7-4.9,3.6-7.6c1-2.6,1.7-5.4,2.2-8.6c0.2-1.5,0.4-3,0.4-4.4
	c0-0.8-0.1-1.3-0.3-1.7c-0.2-0.5-0.7-1-1.2-1.4l-0.2-0.2c-0.5-0.5-1.1-1-1.5-1.6c-0.5-0.7-0.8-1.6-1-2.4c-0.3-1.7,0.1-3.6,1.1-4.9
	l0.9,0.6c-0.6,1.2-0.8,2.6-0.4,4c0.3,1.2,1.1,2.1,2.5,3.1c0.7,0.5,1.4,1.1,1.9,2c0.5,1,0.6,2,0.7,2.7c0.1,1.5,0,3.1-0.1,4.8
	c-0.2,3-0.9,6.1-2,9.3c-0.9,2.7-2.3,5.4-3.6,7.8l-0.4,0.8c-0.8,1.5-1.2,2.7-1.3,3.8c-0.2,1.3-0.1,2.8,0.1,4.3v0.6
	c0.1,1.4,0.2,2.8,0.2,4.2c-0.1,1.8-0.6,3.6-1.4,5c-1.8,3.1-4.4,5.2-7,7.2C39.9,94.3,37.7,96.1,36.2,98.5 M54.8,41.1
	c0.5,0.5,1,1,1.2,1.5c0.3,0.6,0.4,1.3,0.4,2.2c0,1.5-0.2,3-0.4,4.6c-0.5,3.3-1.3,6.2-2.3,8.8c-1,2.7-2.3,5.2-3.7,7.7l-0.3,0.5
	c-0.8,1.7-1.3,3.1-1.5,4.5c-0.2,1.7-0.1,3.2,0.1,4.7c0.4,3.3,0.7,6.2-0.6,8.9c-1.2,2.6-3.5,4.7-5.7,6.7c2.3-1.8,4.6-3.8,6.2-6.5
	c0.7-1.3,1.2-2.9,1.3-4.5c0.1-1.4,0-2.8-0.2-4.1v-0.6c-0.1-1.5-0.2-3,0-4.5c0.2-1.3,0.6-2.6,1.4-4.2l0.4-0.8c1.3-2.4,2.6-5,3.5-7.6
	c1.1-3.1,1.7-6.2,1.9-9.1c0.1-1.6,0.2-3.2,0.1-4.7c0-0.6-0.1-1.5-0.6-2.2C55.8,42,55.3,41.5,54.8,41.1"/>
<path class="st2" d="M64.1,28.9c0,0,10.1-4.8,11.1,10c0.9,14.8-5.5,18-5.5,18S77.5,36.5,64.1,28.9"/>
<path class="st2" d="M44.9,126.7c2.4,2,5.2,3.5,8.1,4.5c-2.5-1.8-4.9-3.6-7-5.7s-3.8-4.5-4.8-7.2s-1.1-5.6-0.9-8.6
	c0.1-1.5,0.3-3,0.5-4.5c0.1-1.5,0.3-3,0.4-4.6c-0.9,2.9-2,5.8-2.5,8.9c-0.6,3-0.7,6.4,0.5,9.5C40.4,122.1,42.5,124.7,44.9,126.7"/>
<path class="st2" d="M99.8,43.2c1.8,1.8,3.4,3.9,4.3,6.3c0.5,1.2,0.8,2.4,0.9,3.6c0.1,0.6,0,1.2,0.2,2.2c0.1,0.4,0.3,1,0.8,1.4
	s1.2,0.6,1.8,0.5c1-0.2,1.5-0.6,1.9-0.6c0.3-0.1,0.6,0.1,1,0.4c0.8,0.7,1.3,1.8,1.8,3.1c1.1,2.5,2,4.9,3,7.4c1.8,5,3,10.3,2.3,15.6
	c0.7-2.6,0.9-5.4,0.7-8.1c-0.2-2.7-0.8-5.4-1.5-8s-1.7-5.2-2.7-7.7c-0.5-1.2-1-2.7-2.2-3.9c-0.6-0.6-1.6-1.1-2.6-1s-1.6,0.6-2,0.6
	c-0.2,0-0.1,0.1-0.3-0.3c-0.1-0.4-0.1-1.1-0.2-1.9c-0.1-1.4-0.5-2.9-1.1-4.2c-1.2-2.6-2.9-4.9-5-6.7s-4.5-3.2-7-4.3s-5-2-7.6-2.8
	C91,37.3,96,39.6,99.8,43.2"/>
<path class="st2" d="M65.2,104.4c-2.1-1.8-4.1-3.4-5.8-5.4s-3.1-4.2-3.5-7c-0.4,2.8,0.6,5.7,2.2,8c1.6,2.4,3.7,4.2,5.8,6
	c2,1.8,4,3.5,5.6,5.6c1.5,2.1,2.7,4.5,2.7,7.3c0.9-2.7,0.1-5.7-1.3-8.2C69.4,108.1,67.3,106.2,65.2,104.4"/>
<path class="st2" d="M104.4,84.2c1.3,1.7,1.8,4.2,2.2,6.6l1.5,7.3c0.6,2.4,1.1,4.9,1.7,7.3c-0.2-2.5-0.4-5-0.7-7.5l-0.9-7.4
	c-0.3-2.5-0.6-5.1-2.2-7.5c-0.8-1.2-2.1-2.2-3.6-2.5s-2.7-0.1-3.8-0.3c-2.2-0.3-4.3-1.4-6.3-2.8c-2-1.3-3.9-3-6.1-4.3
	s-4.6-2.5-7.2-2.7c-1.3-0.1-2.6,0.2-3.8,0.5c-1.2,0.2-2.5,0.5-3.6-0.2c1,0.9,2.4,0.9,3.6,0.7c1.3-0.1,2.4-0.2,3.6,0
	c2.3,0.4,4.5,1.6,6.4,3s3.8,3.1,5.9,4.6s4.4,2.8,7.2,3.2c1.4,0.2,2.7,0,3.7,0.3C102.9,82.8,103.8,83.4,104.4,84.2"/>
<path class="st2" d="M96.6,134.9C96.6,134.9,96.6,134.8,96.6,134.9C96.6,134.8,96.6,134.9,96.6,134.9c-0.4-0.1-0.6-0.4-0.8-0.7
	c-0.2-0.4-0.3-0.8-0.4-1.3c0-0.9,0-1.9,0-2.8c0-1.9,0.2-3.7,0.4-5.6c0.3-3.8,0.6-7.7-0.3-11.6c-0.5-1.9-1.2-3.9-2.4-5.5
	c-1.1-1.7-2.6-3.1-4.2-4.2c-3.2-2.4-6.9-3.7-10.6-4.6c3.4,1.6,6.8,3.4,9.6,5.8c2.8,2.4,4.8,5.5,5.5,9c0.8,3.5,0.7,7.3,0.7,11.1
	c0,1.9,0,3.8,0.2,5.7c0.1,1,0.3,1.9,0.5,2.9c0.1,0.5,0.3,1,0.7,1.4C95.8,134.7,96.2,134.9,96.6,134.9c-1.1,4.3-3.1,8.3-5.9,11.6
	c0.1-1.9,0.2-3.8,0-5.6l-0.1-1.7l-1,1.4c-1.1,1.5-1.7,3.2-2.2,4.9s-0.7,3.4-1.1,5.1c-0.3,1.7-0.7,3.3-1.2,4.8c-0.4,1.1-1,2.2-1.8,3
	c-1.2-2.4-2.9-4.7-5-6.5l-1.3-1.2l-0.3,1.8c-0.4,2.6-1.4,5.1-2.8,7.3c-1.2,1.9-2.8,3.6-4.7,5l-2.8-4.1l-1.7-2.4
	c-0.6-0.8-1-1.6-1.9-2.5c-0.4-0.4-1-0.9-1.8-1s-1.5,0.3-2,0.6c-1,0.8-1.5,1.6-2.1,2.6c-0.9,1.7-1.4,3.6-1.3,5.5
	c-1.2,0.2-2.6-0.1-3.7-0.8c-1.3-0.8-2.3-2.1-2.8-3.6c-0.2-0.7-0.3-1.5-0.2-2.3c0-0.4,0.2-0.8,0.1-1.4c-0.1-0.6-0.6-1.2-1.1-1.3
	c-1.1-0.4-2.2,0.3-2.7,1.1c-0.4,0.7-0.5,1.5-0.6,2.2c-2.7-0.9-5.1-3.1-6-5.9c0.8,3,3.1,5.7,6.2,6.7l0.4,0.1l0.1-0.4
	c0.1-0.8,0.3-1.7,0.7-2.3s1.1-0.9,1.7-0.6c0.5,0.2,0.4,0.7,0.3,1.7c-0.2,0.9-0.1,1.9,0.1,2.8c0.5,1.8,1.6,3.4,3.2,4.4
	c1.5,1.1,3.5,1.6,5.5,1.1l0.6-0.2l-0.1-0.7c-0.2-1.8,0.3-3.7,1.2-5.2c0.4-0.8,1.1-1.5,1.7-2c0.6-0.4,0.9-0.4,1.5,0.2
	c0.5,0.5,1.1,1.5,1.6,2.3l1.7,2.5l3.3,4.9l0.5,0.8l0.8-0.5c4.4-2.8,7.6-7.3,8.8-12.4c1.6,1.7,2.9,3.6,3.9,5.7l0.5,1.1l0.9-0.7
	c1.5-1.2,2.6-2.9,3.2-4.6c0.6-1.7,1-3.5,1.2-5.2c0.4-2.6,0.7-5.3,1.7-7.7c0.1,1.6,0.1,3.2,0,4.8l-0.1,1.6l1-1.2
	C93.6,144.5,95.8,139.8,96.6,134.9c0.1,0.1,0.2,0.1,0.3,0C96.8,134.9,96.7,134.9,96.6,134.9"/>
<path class="st2" d="M69.3,16.7c1.7,0.3,3.3,0.9,4.6,1.9c1.3,1,2.3,2.6,3.7,3.9c2.8,2.8,6.9,4.1,10.6,3.6c-3.7-0.3-7.1-2.1-9.4-4.7
	c-1.1-1.3-2.1-3-3.7-4.3c-1.5-1.4-3.5-2.1-5.5-2.5c-4-0.6-8,0.6-11.2,2.7s-5.7,4.9-8.1,7.8c2.9-2.3,5.8-4.7,8.9-6.4
	C62.3,17,65.9,16.1,69.3,16.7"/>
<path class="st2" d="M127.8,108.4c-0.4-2-1-3.9-1.6-5.7c-0.6-1.9-1.3-3.8-1.9-5.8c0.3,0.7,0.6,1.4,0.9,2.1l1.1,2.9l-0.1-3.1
	c0-2.8-0.4-5.7-0.9-8.4c-0.5-2.8-1.2-5.5-2.1-8.2c1.1,4.4,1.7,9,1.9,13.5c-0.6-1.5-1.2-3-1.9-4.4l-1.5-3l0.2,3.3
	c0.2,4.1,1.5,7.9,2.6,11.6c0.9,2.9,1.8,5.9,1.9,8.9c-1.3-1.3-2.9-2.5-4.7-3.3l-2-0.9l0.7,2.1c0.9,2.8,1.5,5.7,1.8,8.7
	c0.2,2.4,0.2,4.8-0.1,7.2l-3-2.5l-2.2-1.8c-0.4-0.3-0.7-0.6-1.2-0.9c-0.2-0.2-0.5-0.3-0.9-0.4s-1.1,0-1.4,0.3
	c-0.7,0.7-0.7,1.3-0.8,1.9c-0.1,0.5-0.1,1,0,1.5c0,1,0.1,2,0.3,2.9c0.3,1.8,0.9,3.5,1.7,5.1c-0.3,0.4-0.6,0.8-1,0.9
	c-0.5,0.2-1.1,0.1-1.7-0.2c-1.2-0.6-2.2-1.7-2.8-3c-0.3-0.7-0.6-1.3-0.8-2c-0.2-0.4-0.3-0.8-0.7-1.2c-0.2-0.2-0.6-0.3-0.9-0.2
	c-0.3,0.1-0.5,0.3-0.6,0.6c-0.5,0.9-0.3,1.7-0.2,2.5c0.1,0.7,0.4,1.3,0.6,1.9c-1,0.3-2.1,0-3-0.6c-1-0.6-1.9-1.5-2.6-2.4
	c0.7,1,1.5,2,2.5,2.7s2.3,1.1,3.6,0.8l0.3-0.1l-0.1-0.3c-0.2-0.7-0.4-1.4-0.5-2.2c-0.1-0.7-0.1-1.5,0.2-1.9c0.2-0.2,0.2-0.2,0.3-0.1
	c0.1,0.1,0.3,0.5,0.4,0.8c0.2,0.7,0.4,1.5,0.8,2.2c0.7,1.4,1.7,2.8,3.2,3.6c0.8,0.4,1.7,0.6,2.7,0.4c1-0.3,1.7-1,2.1-1.8l0.2-0.3
	l-0.2-0.3c-0.8-1.6-1.3-3.3-1.6-5.1c-0.1-0.9-0.2-1.8-0.2-2.7c0-0.4,0-0.9,0.1-1.3c0-0.2,0.1-0.5,0.1-0.6c0.1,0,0.2,0.1,0.3,0.1
	c0.3,0.2,0.6,0.5,1,0.8l2.1,1.8l4.3,3.6l1.2,1l0.3-1.6c0.7-3.1,0.7-6.2,0.5-9.3c-0.2-2.3-0.6-4.5-1.2-6.7c1.3,0.9,2.5,2,3.5,3.2
	l1.4,1.6l0.3-2.1C128.4,112.4,128.2,110.3,127.8,108.4"/>
</svg>
