<?xml version="1.0" encoding="utf-8"?>
<!-- Generator: Adobe Illustrator 23.1.1, SVG Export Plug-In . SVG Version: 6.00 Build 0)  -->
<svg version="1.1" id="Capa_1" xmlns="http://www.w3.org/2000/svg" xmlns:xlink="http://www.w3.org/1999/xlink" x="0px" y="0px"
	 viewBox="0 0 250 250" style="enable-background:new 0 0 250 250;" xml:space="preserve">
<style type="text/css">
	.st0{fill:#382517;}
	.st1{fill:#FBF5EA;}
	.st2{opacity:0.7;fill:#E7D5B6;}
	.st3{opacity:0.7;}
</style>
<g>
	<path class="st0" d="M207.2,106c0.4-4.1,0.4-7.9-0.1-11.6l12.2,12.6l-3.4-21.8l-0.1-0.5c-0.1-0.4-0.1-0.8-0.3-1.4
		c-6-22.5-19.2-39.8-39.1-51.3c0.5-5.9,0.4-11.9-0.3-18.1c-0.1-0.6-0.2-1.1-0.2-1.6l-1.9-10.5l-8.7,5.2c-0.5,0.3-1,0.6-1.5,0.9
		c-0.9,0.6-1.8,1.1-2.7,1.6c-8.6,4.9-17.6,7.1-26.6,6.5c-16.1-1.1-30.2,3.5-41.9,13.9c-0.2,0.2-0.4,0.4-0.6,0.6
		c-1.5-1.4-3.5-2.7-6.1-3.5l-9.9-3l0.9,10.3l0,0.6c0,0.6,0.1,1.2,0.2,1.7c0.3,2.1,0,3.9-2.7,5.9c-2.6,1.9-5.1,3.6-7.7,5.3
		c-4.9,3.2-10,6.5-15.2,11.7c-2.9,2.9-7,9.3-2.7,20c-1.1,1.4-2.2,2.9-3.5,4.1c-3,2.8-4,3.6-7.2,6c-8.3,6.4-4.5,15.9-3.1,18.7
		c0.4,0.7,0.8,1.6,1.1,2.4c-0.6,3.2-0.1,6.5,1.6,9.3c2.1,3.4,5.8,5.5,9.9,5.6c1.8,0.1,3.2,0,4.3-0.2c2.6,2.8,5.7,5.1,9.2,6.6
		c2.7,11.3,8.8,17.8,15.5,23.4c-6.1,12.9-8.1,29.1-7,43c-4.9,3.7-8.3,9.7-8.3,18.4v7l146.7,0.3v-7c0-8.5-3.7-14.4-8.1-18.2
		c0.9-9.9,1.6-21.2,1.2-33.1l2.3-4.2C215.8,138.5,217.2,118.9,207.2,106z"/>
	<path class="st1" d="M195.2,80.2c-0.2-0.3-0.3-0.6-0.5-1.2c5.5,1.2,10.3,3.1,14.4,7.3c-0.1-0.6-0.1-0.9-0.2-1.2
		c-5.8-21.6-18.6-37.8-38.2-48.4c-1.2-0.6-1.5-1.3-1.4-2.6c0.7-6.5,0.7-13,0-19.5c0-0.5-0.2-0.9-0.3-1.6c-1.6,0.9-3,1.8-4.4,2.6
		c-9.5,5.4-19.7,8.1-30.6,7.4c-14-1-26.3,2.8-36.8,12.1c-2.3,2.1-4.4,4.5-6.6,6.8c-1.2-3.6-2.5-7-6.8-8.2c0.1,0.8,0.1,1.3,0.2,1.9
		c0.8,5.3-1.2,9.3-5.4,12.5c-7.7,5.8-14.9,9.1-22.2,16.4c-2.8,2.9-3.4,7.1-1,12.9c0.8,2.1,0.9,3.7-0.2,5.3c-1.6,2.2-3.2,4.4-5.2,6.2
		c-3.2,2.9-4.3,3.8-7.7,6.4c-3.2,2.5-3,6-1.1,10c1.2,2.3,2.2,5.3,2.2,5.3c-1.8,4,0.4,8.1,4.3,8.2c3.6,0.1,4.2-0.5,6.9-1.1
		c3.1,4.8,7.4,7.7,12.2,9.1c-0.9-2.3-1.5-5.8-1.5-8c0-3,1.6-6.1,4.8-6.9c3.9-1,7.3-0.7,9.2,2.6c6.3,11.6,0,16.5-4.7,18.6
		c-1.8-0.3-2.5-0.9-5.3-2.4c-0.5-0.2-0.9-0.5-1.7-0.9c2.4,9.4,3.7,14.2,7.6,17.9c3.1,2.9,6,5,9.9,6.3c-11.1,16.5-11.1,42-6.2,58
		l112.2,0.2c2.7-20.5,4.7-45.9,0.4-71.5c2.8,3.9,4.8,9.4,5.5,17.5c8.2-15,15.6-36.9,2.8-50.1C201.3,98.4,200.4,88.9,195.2,80.2z"/>
	<path class="st2" d="M100.6,136.6c0,0,2.7,5.7,9.9,12.6c2.3,26.9-11.3,31.6-0.7,63.1l-30.9-0.2c-5.6-18.7-4.8-50,12.5-65.2
		C94.8,143.6,100.6,136.6,100.6,136.6z"/>
	<path class="st0" d="M67.6,129.8c3.4,9,9.8,18,20,20.5c1.7-8.9,4.5-18.3,15.9-25c1.2,11.2,6.4,21.9,16.7,31.5
		c-8.4-2.7-15.6-8.5-20.5-17c0,0-4.8,13.3,0.7,21.2C84.1,161,67.4,158.8,67.6,129.8z"/>
	<path class="st2" d="M169.2,34.1c0.7-6.5,0.7-13,0-19.5c0-0.5-0.2-0.9-0.3-1.6c-1.6,0.9-3,1.8-4.4,2.6c-9.5,5.4-19.7,8.1-30.6,7.4
		c-14-1-26.3,2.8-36.8,12.1c-2.3,2.1-4.4,4.5-6.6,6.8c-1.2-3.6-2.5-7-6.8-8.2c0.1,0.8,0.1,1.3,0.2,1.9c0.8,5.3-1.2,9.3-5.4,12.5
		c-7.7,5.8-14.9,9.1-22.2,16.4c-2.8,2.9-3.4,7.1-1,12.9c0.8,2.1,0.9,3.7-0.2,5.3c-1.6,2.2-3.2,4.4-5.2,6.2c-3.2,2.9-4.3,3.8-7.7,6.4
		c-3.2,2.5-3,6-1.1,10c1.2,2.3,2.2,5.3,2.2,5.3c-1.8,4,0.4,8.1,4.3,8.2c2.3-17.1,12.3-16,14.1-39.2c1.1-13.7,29.4-32.8,66.9-38.1
		C150.1,38.3,169.2,34.1,169.2,34.1z"/>
	<g>
		<g>
			<path class="st0" d="M58.5,75C58.5,75,58.5,75,58.5,75C58.5,75,58.5,75,58.5,75z M58.5,75C58.5,75,58.5,75,58.5,75
				C58.5,75,58.5,75,58.5,75z"/>
		</g>
	</g>
	<g>
		<path class="st1" d="M68.1,216.9c0-13,10.1-15.9,15.1-15.9c1.1,0,2.1,0,3.2,0c33.8,0,67.6,0,101.4,0c3.4,0,13,4.2,13,16.1
			L68.1,216.9z"/>
	</g>
	<g class="st3">
		<path class="st2" d="M68.1,216.9c0-13,10.1-15.9,15.1-15.9c1.1,0,2.1,0,3.2,0c6.5,0,14,0,20.5,0c0,0,0.3,8.7,3.6,15.9L68.1,216.9z
			"/>
	</g>
	<g>
		<path class="st0" d="M81.9,75c-3.9,0.8-7,1.4-11.4,2.4c6.3,3.7,3.4,8.2,3.1,12.5C76.3,85.2,78.9,80.5,81.9,75z"/>
	</g>
	<path class="st0" d="M215.2,229.3c0-1,0-2.6-0.6-4.3c-2-6.7-7.6-10.8-14.9-10.8l-126.8,0l-1.2,0c-0.9,0-1.9,0-2.8,0
		c-9,0.1-15.3,6.5-15.3,15.5l0,5.3c0,1.3,0,5.2,2.9,8.2c2.9,3,6.8,3,8.1,3h139.8c6.4,0,10.7-4.3,10.7-10.7l0-1.2
		C215.2,232.7,215.2,231,215.2,229.3z"/>
	<path class="st1" d="M207.9,227c-1.1-3.8-4-5.8-8.2-5.8c-42.2,0-84.5,0-126.7,0c-1.3,0-2.6,0-4,0c-5.2,0.1-8.4,3.3-8.4,8.5
		c0,1.8,0,3.5,0,5.3c0,3.1,1,4.1,4.1,4.1c23.3,0,46.5,0,69.8,0c23.4,0,46.7,0,70.1,0c2.5,0,3.7-1.1,3.7-3.7c0-2,0-4,0-6.1
		C208.2,228.6,208.2,227.8,207.9,227z"/>
	<path class="st2" d="M111,221.3c0,0-26.1,0-38,0c-1.3,0-2.6,0-4,0c-5.2,0.1-8.4,3.3-8.4,8.5c0,1.8,0,3.5,0,5.3c0,3.1,1,4.1,4.1,4.1
		c11,0,43.9,0,54.9,0C114.2,231.8,111,221.3,111,221.3z"/>
</g>
</svg>
