<?xml version="1.0" encoding="utf-8"?>
<!-- Generator: Adobe Illustrator 23.1.1, SVG Export Plug-In . SVG Version: 6.00 Build 0)  -->
<svg version="1.1" id="Capa_1" xmlns="http://www.w3.org/2000/svg" xmlns:xlink="http://www.w3.org/1999/xlink" x="0px" y="0px"
	 viewBox="0 0 250 250" style="enable-background:new 0 0 250 250;" xml:space="preserve">
<style type="text/css">
	.st0{fill:#382517;}
	.st1{fill:#FBF5EA;}
	.st2{opacity:0.7;}
	.st3{opacity:0.7;fill:#E7D5B6;}
</style>
<g>
	<path class="st0" d="M211.3,189.6c2.1-12.3,5.9-39.8,1.4-61.1c-4.9-23.1-12.7-42.5-23.3-57.7c-22.7-32.6-60.3-47.1-87.6-45.3
		c-1.5-1.8-3.4-4.2-5.7-6.4C88.4,11.5,81.2,8.9,75,11.3l-0.4,0.2l-0.4,0.2c-7.4,4-9.3,9.9-10.5,18.9C54,35,44.3,43.1,42.6,44.6
		c-12.6,9.2-12.1,19.6-11.6,30.7c0,0.2,0,0.5,0,0.7c-7.8,10.8-12.2,18.1-9.8,24.9c1.6,4.6,5.8,6.8,9,8c2.5,4.5,5.6,7.4,12.9,7.9
		c1.6,0.1,3.9-0.3,6-1.2l0.6,0.6c1.2,1.3,2.9,2.9,3.6,3.5c0.5,0.4,1.3,1.3,2.1,2.1c3.5,3.8,12.8,13.7,23.7,5.1
		c4.8-3.8,9-9.7,12.7-14.9c1.7-2.5,4.1-5.8,6-7.8c4.1,4.7,6.9,13.5,2.8,30.2c-15.4,14.9-13.8,33.5-12.5,48.6c0.2,2.1,0.4,4.1,0.5,6
		c-6.4,2.8-12.5,9-12.5,20.8v9h146.7v-8.8C222.7,199.6,217.1,193,211.3,189.6z"/>
	<g>
		<path class="st1" d="M98.6,33c0,0-12.7-18.4-21.1-15.1c-5,2.7-6.1,6-7.3,17.6C59.7,39,46.9,50.1,46.9,50.1
			c-10.7,7.7-9.3,15.8-8.8,28c-13,17.9-13.9,22-3,25c2.6,5.3,3.7,6.4,8.5,6.8c1.1,0.1,4.1-0.9,4.7-1.8c1.9,0.9,4.4,1.1,6,1.1
			c0.3,0,0.4-0.3,0.3-0.6c-1.7-2.3-2.4-4.1-2.9-5.7c2.1-3.2,3.9-6.1,5.5-8c3.2-3.9,10-4.3,14.2-3.3c-1.2,4.5-3.3,12.4-8.4,17.7
			c-3.2,1.2-5.7,1.4-8.2,2.2c0,0,2.3,2.3,3.1,3.1c3.2,2.7,9.5,12.9,16.9,7.1c9.2-7.3,17-25.5,23.8-25.8c12.1,7.9,13.3,23.8,8.3,42.5
			c-17.3,15.3-10.9,38.3-11.1,56.7l107.2,0.2c3.3-24.7,7.7-42,2.8-65.2c-3.8-18-10.5-38.4-22.2-55.1C161,42.4,123.4,29.6,98.6,33z"
			/>
	</g>
	<g class="st2">
		<path class="st3" d="M74.8,121.5c-0.7-26,54.5-85.7,102.7-54.6c-22.8-26.6-56.2-37-78.9-33.9c0,0-12.7-18.4-21.1-15.1
			c-5,2.7-6.1,6-7.3,17.6C59.7,39,46.9,50.1,46.9,50.1c-10.7,7.7-9.3,15.8-8.8,28c-13,17.9-13.9,22-3,25c2.6,5.3,3.7,6.4,8.5,6.8
			c1.1,0.1,4.1-0.9,4.7-1.8c1.9,0.9,4.4,1.1,6,1.1c0.3,0,0.4-0.3,0.3-0.6c-1.7-2.3-2.4-4.1-2.9-5.7c2.1-3.2,3.9-6.1,5.5-8
			c3.2-3.9,10-4.3,14.2-3.3c-1.2,4.5-3.3,12.4-8.4,17.7c-3.2,1.2-5.7,1.4-8.2,2.2c0,0,2.3,2.3,3.1,3.1
			C61,117.1,67.4,127.4,74.8,121.5z"/>
	</g>
	<g>
		<path class="st1" d="M83.1,209.9c0-13,10.1-15.9,15.1-15.9c1.1,0,2.1,0,3.2,0c33.8,0,67.6,0,101.4,0c3.4,0,13,4.2,13,16.1
			L83.1,209.9z"/>
	</g>
	<g>
		<path class="st0" d="M61.6,60.4c-4,0.8-7.3,1.5-11.8,2.5c6.6,3.9,3.5,8.5,3.2,13C55.7,71,58.4,66,61.6,60.4z"/>
	</g>
	<path class="st3" d="M124.3,188.5c0-18,12.4-87-26.1-92.8c12.1,7.9,13.3,23.8,8.3,42.5c-17.1,15.1-11,37.9-11.1,56.1
		c-5.2,0.9-12.4,4.7-12.4,15.6l46.2,0C129.3,209.9,124.3,206.4,124.3,188.5z"/>
	<path class="st0" d="M230.2,222.3c0-1,0-2.6-0.6-4.3c-2-6.7-7.6-10.8-14.9-10.8l-126.7,0l-1.2,0c-0.9,0-1.9,0-2.8,0
		c-9,0.1-15.3,6.5-15.3,15.5l0,5.3c0,1.3,0,5.2,2.9,8.2c2.9,3,6.8,3,8.1,3h139.8c6.4,0,10.7-4.3,10.7-10.7l0-1.2
		C230.2,225.6,230.2,223.9,230.2,222.3z"/>
	<g>
		<path class="st1" d="M149.4,232.1c-23.3,0-46.5,0-69.8,0c-3,0-4.1-1-4.1-4.1c0-1.8,0-3.5,0-5.3c0-5.2,3.2-8.4,8.4-8.5
			c1.3,0,2.6,0,4,0c42.2,0,84.5,0,126.7,0c4.2,0,7.1,2,8.2,5.8c0.2,0.8,0.2,1.6,0.3,2.4c0,2,0,4,0,6.1c0,2.6-1.1,3.7-3.7,3.7
			C196.2,232.1,172.8,232.1,149.4,232.1z"/>
	</g>
	<g class="st2">
		<g>
			<path class="st3" d="M79.7,232.1c3.8,0,59.2,0,59.2,0s-6.6-10.4-8.6-17.9c-13.5,0-28.8,0-42.3,0c-1.3,0-2.6,0-4,0
				c-5.2,0.1-8.4,3.3-8.4,8.5c0,1.8,0,3.5,0,5.3C75.6,231.1,76.6,232.1,79.7,232.1z"/>
		</g>
	</g>
</g>
</svg>
