<?xml version="1.0" encoding="utf-8"?>
<!-- Generator: Adobe Illustrator 23.1.1, SVG Export Plug-In . SVG Version: 6.00 Build 0)  -->
<svg version="1.1" id="Capa_1" xmlns="http://www.w3.org/2000/svg" xmlns:xlink="http://www.w3.org/1999/xlink" x="0px" y="0px"
	 viewBox="0 0 178 250" style="enable-background:new 0 0 178 250;" xml:space="preserve">
<style type="text/css">
	.st0{fill:#3E3F3C;}
	.st1{fill:#0B0F0E;}
	.st2{fill:#FFFFFF;}
</style>
<path class="st0" d="M155.1,199.7c-3.9-1.1-4.6-4.5-4.3-7.6c0-0.5-0.5-0.7-0.9-0.5c-14.1,5.6-24.7,7.5-45.3,7.5
	c-21.7,0-30.6-2.9-43.9-7.5c-0.5-0.2-1,0-0.9,0.5c0.3,3.2-0.4,6.6-4.3,7.6c-0.1,0-0.2,0.1-0.3,0.2c-0.8,0.9-3.6,9.5,50.1,10.2
	c53.7-0.7,50.9-9.3,50.1-10.2C155.3,199.8,155.2,199.7,155.1,199.7"/>
<path class="st1" d="M105.3,211.1c-30.9-0.4-48.5-3.5-51.1-9c-0.6-1.3-0.3-2.4,0.2-2.9c0.2-0.2,0.5-0.4,0.8-0.5
	c2.7-0.8,3.9-2.9,3.6-6.5c0-0.5,0.2-1,0.6-1.3c0.5-0.4,1.1-0.5,1.7-0.2c13.1,4.5,21.8,7.4,43.6,7.4c20.1,0,30.6-1.7,44.9-7.4
	c0.6-0.2,1.3-0.2,1.7,0.2c0.4,0.3,0.6,0.8,0.6,1.4c-0.3,3.6,0.8,5.8,3.6,6.5c0.3,0.1,0.6,0.3,0.8,0.5c0.5,0.6,0.8,1.7,0.2,2.9
	C153.8,207.6,136.1,210.7,105.3,211.1 M55.9,200.6c0,0.1,0,0.4,0.1,0.7c0.9,1.7,7.1,7.1,49.2,7.7c42.1-0.6,48.3-6.1,49.2-7.7
	c0.2-0.3,0.2-0.6,0.1-0.7c-2.4-0.7-5.1-2.7-4.9-7.9c-14.3,5.6-25,7.3-45.1,7.3c-21.8,0-31.1-3.1-43.7-7.3
	C61.1,197.9,58.4,199.9,55.9,200.6"/>
<path class="st0" d="M171.8,225.1c-5.9-5.1-10.7-14.2-10.7-14.2s-2.6-4.3-5.9-4.2c-0.1,0-0.1,0-0.2,0c-3.4,0.2-3.7,7-49.8,7
	c-44.9,0-46.4-6.8-49.8-7c-0.1,0-0.1,0-0.2,0c-3.3-0.1-5.9,4.2-5.9,4.2s-4.8,9.1-10.7,14.2c-5.9,5.1,3.6,11.1,8.1,12.9
	c5.1,2.1,22.9,6.9,58.4,6.9s53.3-4.8,58.4-6.9C168.2,236.2,177.7,230.3,171.8,225.1"/>
<path class="st1" d="M105.3,246c-40.3,0-57-6.2-58.8-6.9c-3.3-1.3-9.8-5-10.6-9.5c-0.2-1.3,0-3.3,2.2-5.2
	c5.7-4.9,10.4-13.8,10.5-13.9c0.1-0.2,2.9-4.8,6.7-4.8c0.1,0,0.1,0,0.2,0c1.1,0,1.8,0.4,2.8,1c3.5,1.8,11.6,6,47.1,6l0,0
	c36.4,0,43.9-4.2,47.2-6c0.9-0.5,1.6-0.9,2.6-1h0.1h0.2c3.8-0.2,6.6,4.5,6.8,4.7c0.1,0.1,4.8,9,10.5,14c2.2,1.9,2.4,3.9,2.2,5.2
	c-0.8,4.5-7.3,8.2-10.6,9.5C162.3,239.7,145.6,246,105.3,246 M55.4,207.7c-2.3,0-4.4,2.7-5,3.7c-0.2,0.3-4.9,9.3-10.9,14.5
	c-1.2,1-1.7,2.1-1.5,3.3c0.5,3.1,5.8,6.5,9.3,7.9c1.7,0.7,18,6.8,58,6.8c39.9,0,56.3-6.1,58-6.8c3.6-1.4,8.8-4.8,9.3-7.9
	c0.2-1.2-0.3-2.2-1.5-3.3c-6-5.2-10.7-14.1-10.9-14.5c-0.6-1-2.7-3.7-4.9-3.7h-0.1h-0.1c-0.4,0-0.8,0.2-1.6,0.7
	c-3.4,1.9-11.3,6.3-48.2,6.3l0,0c-35.9,0-44.4-4.4-48-6.3C56.4,208,55.9,207.7,55.4,207.7L55.4,207.7"/>
<path class="st0" d="M60.4,176.3c0.5,3,0.5,9.6,0.5,9.6s4.4,3.6,17.5,5.6s38.8,3.9,53.6,0s14.8-3.2,16.9-6.5
	c2.1-3.3,2.8-8.7,2.8-8.7c2.7-6.6,4.3-13.4,3.5-20.5c-0.7-6.3,0.9-12.1,2-18.1c1.5-8.2,2-16.4,0-24.6c-1.3-5.2-3.1-10.2-4.7-15.3
	c-0.2-0.7-0.6-1.6-1.1-1.8c-1.7-0.5-1.6-1.9-1.8-3.1c-0.2-1.1-0.4-2.2-0.5-3.3c-1.4-11.7-3.9-23.2-6.9-34.7c-0.7-2.7-1.8-5.3-4.1-7
	c-5.3-4.1-10.5-8.4-16.1-12.1c-2.6-1.7-4.8-3.5-6.5-6.1c-2.4-3.8-5.8-6.8-9.7-9.1c-6.8-3.9-14.2-5.9-21.7-7.7
	c-2.5-0.6-5.3-0.7-7.5,1.3C74.9,16,74.8,16,73.3,14c-4.6-5.9-10.4-9.3-18.2-8.9c-2,0.1-2.9,0.9-3.6,2.7C51,9,50.1,10.2,49,10.9
	c-1.4,1-2.1,2.1-2.3,3.8c-0.1,0.7-0.1,1.5-0.5,2c-1.4,1.9-1.9,4.4-4.1,5.7c-0.3,0.1-0.5,0.5-0.5,0.8c-0.1,0.5-0.1,1.1-0.2,1.6
	c0.5,0.1,1,0.3,1.5,0.1c1.7-0.5,3.4-1.1,5.2-1.7c0.8-0.2,1.4-0.2,1.9,0.7c1.3,2.6,2.7,5.1,4.2,7.6c0.6,0.9,1.6,1.5,2.5,2.2
	c0.1-0.1,0.3-0.2,0.4-0.3c0.4,4.9-1.5,9.2-3.7,13.5c-2.6-1.4-4.8-3.2-7.4-3.9c-2.6-0.8-5.5-0.6-8.2-0.8c0.1-1.2,0.2-2.4,0.3-3.6
	c-0.2-0.1-0.4-0.2-0.6-0.2c-0.5,0.5-1,1.1-1.6,1.5c-0.6,0.5-1.3,1.1-2,1.2c-4,0.6-6.1,4.1-4.6,7.9c0.2,0.5,0.4,0.9,0.5,1.4
	c1.3,4,3.8,6.6,8.1,6.9c2.3,0.2,4.2,1.1,5.8,2.5c2.2,2,4.8,2.6,7.6,2.6c3.4,0,6.7,0.7,9.9,2.3c4.1,2.1,8.4,3.9,12.6,5.7
	c2.1,0.9,3.7,2.2,4.6,4.2c1.2,2.8,3.2,5,5.7,6.7c3.3,2.3,3.6,4.2,1.7,7.8c-0.4,0.7-0.8,1.4-1.2,1.9c-2.3,2.8-4.5,5.8-7,8.3
	c-4.1,4.1-8.4,8-12.8,12c-0.3-0.8-0.5-1.4-0.7-1.9c-2.2-4.4-4.1-8.9-6.5-13.2c-3.5-6.2-8.6-9.9-16.2-8.9c-1.3,0.2-2.9-0.3-4.1-0.9
	c-2.9-1.4-5.8-2.9-8.5-4.8c-2.8-1.9-6.1-1.7-9-2.8c-0.3-0.1-0.8-0.1-1.1,0c-0.4,0.1-1.1,0.4-1.2,0.7c-0.4,1.7-1.4,0.9-2.4,0.7
	c-1.8-0.3-3.6-0.7-5.3-0.6c-1.6,0.1-1.8,1-1.1,2.4c0.4,0.7,0.6,1.4,1,2.3c-1.7,0.1-3,0.2-4.4,0.4c-0.5,0.1-1.1,0.5-1.4,0.9
	C3.5,86,4,86.7,4.2,87.1c0.4,1.1,1,2.2,1.2,3.3c0.3,2.2,0.3,4.4,0.5,6.9c-0.3,0.4-1,1.2-1.9,2.2c2.7,0.5,3.5,2.1,3.7,4.3
	c0,0.5,0.5,1,0.9,1.3c3,2.3,6.1,4.4,9.9,5.1c1.7,0.3,3.4,0.8,5,1.5c3.1,1.3,6.2,2.7,9.6,2.7c2,0,3.9,0,6.3,0c0.7,3.9,1.7,8,2,12.1
	c0.7,10.8,9.4,37.4,18.1,44.6L60.4,176.3z"/>
<path class="st1" d="M109.3,194.8c-11.9,0-24-1.2-30.9-2.3c-13.3-2-17.8-5.7-18-5.8l-0.4-0.3v-0.5c0-0.1,0-6.5-0.5-9.4l-0.9-4.6
	c-9.1-8.1-17.5-34.7-18.2-45.1c-0.2-2.8-0.7-5.6-1.3-8.3c-0.2-1-0.4-1.9-0.5-2.8h-1.3c-1.5,0-2.8,0-4.1,0c-3.3-0.1-6.2-1.2-9-2.4
	l-1-0.4c-1.7-0.7-3.3-1.2-4.8-1.4c-4.2-0.8-7.5-3.1-10.3-5.3c-0.5-0.4-1.2-1.2-1.3-2.1c-0.2-2.1-1-3-2.9-3.4L2,100.4l2.7-3.3
	c0-0.6-0.1-1.2-0.1-1.8c-0.1-1.6-0.1-3.2-0.3-4.6c-0.1-0.7-0.4-1.4-0.7-2.2c-0.1-0.3-0.3-0.6-0.4-0.9c0-0.1-0.1-0.3-0.2-0.4
	c-0.3-0.5-0.7-1.2-0.2-1.8c0.5-0.7,1.3-1.2,2.1-1.3c1-0.2,2-0.2,3.1-0.3l0,0c-0.1-0.3-0.2-0.6-0.4-0.9c-0.6-1.1-0.7-2-0.3-2.8
	C7.6,79.6,8.2,79,9.5,79c1.9-0.1,3.8,0.3,5.6,0.6c0.2,0,0.5,0.1,0.7,0.2c0.1,0,0.3,0.1,0.4,0.1c0-0.1,0-0.1,0.1-0.3
	c0.2-0.9,1.3-1.2,1.9-1.4c0.6-0.2,1.3-0.2,1.8,0c1.1,0.4,2.2,0.6,3.4,0.9c2,0.4,4,0.8,5.8,2.1c2.6,1.8,5.4,3.2,8.4,4.7
	c1.3,0.7,2.6,1,3.5,0.8c7.4-0.9,13.2,2.2,17.3,9.4c1.7,3,3.2,6.2,4.7,9.3c0.6,1.3,1.2,2.6,1.9,3.9c0.1,0.2,0.2,0.4,0.2,0.5
	c0.9-0.9,1.8-1.7,2.8-2.5c3.1-2.8,6-5.5,8.9-8.4c1.8-1.8,3.5-3.9,5-5.9c0.6-0.8,1.3-1.6,1.9-2.4c0.5-0.6,0.8-1.2,1.1-1.8
	c1.7-3.1,1.4-4.5-1.4-6.4c-2.8-2-4.8-4.3-6-7.2c-0.7-1.7-2-2.8-4.1-3.7c-4.1-1.7-8.5-3.6-12.7-5.7c-2.9-1.5-6-2.2-9.4-2.2
	c-3.5,0-6.1-0.9-8.3-2.8c-1.6-1.4-3.3-2.1-5.2-2.3c-4.5-0.3-7.5-2.9-9-7.7c-0.1-0.4-0.3-0.9-0.5-1.3c-0.9-2.1-0.8-4.2,0.2-6
	s2.8-2.9,5.1-3.3c0.3,0,0.8-0.4,1.2-0.7l0.3-0.2c0.4-0.3,0.7-0.6,1-0.9l1-0.9l1.9,0.8l-0.3,3.3c0.5,0,1,0,1.4,0.1
	c2,0.1,4,0.1,5.9,0.7c1.9,0.6,3.5,1.6,5.3,2.7c0.4,0.3,0.9,0.6,1.4,0.8c1.8-3.5,3.2-7,3.2-10.9l0.1-0.5c-0.2-0.2-0.5-0.4-0.8-0.6
	c-0.7-0.5-1.4-1.1-1.9-1.9c-1.6-2.6-3-5.3-4.3-7.7c-0.2-0.3-0.2-0.4-0.7-0.2c-0.7,0.2-1.4,0.5-2.1,0.7c-1,0.3-2,0.7-3.1,1
	c-0.6,0.2-1.1,0.1-1.5,0c-0.1,0-0.3-0.1-0.4-0.1l-1-0.1l0.2-1.5c0-0.4,0.1-0.9,0.2-1.3c0.1-0.5,0.5-1.1,1-1.4
	c1.2-0.7,1.8-1.9,2.4-3.1c0.4-0.8,0.8-1.6,1.4-2.3c0.2-0.3,0.3-1,0.3-1.5c0.2-2,1.1-3.4,2.8-4.5c0.8-0.6,1.6-1.6,2.1-2.6
	c0.9-2.2,2.3-3.2,4.6-3.3c7.7-0.3,13.9,2.7,19,9.3c0.3,0.4,0.6,0.8,0.9,1.1c0.2-0.2,0.6-0.5,1-0.9c2.1-1.9,4.9-2.4,8.5-1.5
	c6.9,1.6,14.8,3.6,22,7.8c4.2,2.5,7.6,5.6,10,9.4c1.5,2.4,3.6,4.1,6.2,5.8c5.1,3.4,10,7.3,14.8,11l1.4,1.1c2.7,2.2,3.8,5.4,4.4,7.6
	c3.4,12.8,5.7,24.1,6.9,34.8c0.1,0.8,0.2,1.6,0.4,2.3l0.2,1.4c0.2,1.1,0.2,1.5,1,1.8c1,0.3,1.4,1.5,1.8,2.4c0.4,1.3,0.8,2.6,1.3,4
	c1.2,3.7,2.5,7.6,3.4,11.4c1.8,7.3,1.9,15.2,0,25c-0.2,1.1-0.4,2.1-0.6,3.2c-1,5-1.9,9.6-1.4,14.6c0.7,6.6-0.4,13.4-3.5,20.9
	c-0.1,0.9-1,5.8-3,9c-1.9,3-2.5,3.1-10.3,5.1c-1.9,0.5-4.3,1.1-7.2,1.8C125.9,194.2,117.6,194.8,109.3,194.8 M62,185.4
	c1.3,0.8,6.1,3.5,16.6,5.1c13.6,2.1,39,3.8,53.2,0c3-0.8,5.3-1.4,7.2-1.9c7.6-1.9,7.6-1.9,9-4.2c1.9-3.1,2.7-8.2,2.7-8.3l0.1-0.3
	c3-7.2,4.1-13.7,3.4-20c-0.6-5.3,0.4-10.4,1.4-15.3c0.2-1,0.4-2.1,0.6-3.1c1.8-9.5,1.8-17.2,0-24.1c-1-3.8-2.2-7.6-3.4-11.3
	c-0.4-1.3-0.9-2.6-1.3-4c-0.3-0.9-0.5-1.1-0.5-1.2c-2-0.6-2.2-2.3-2.4-3.4l-0.2-1.3c-0.1-0.8-0.3-1.6-0.4-2.4
	c-1.3-10.6-3.5-21.8-6.9-34.5c-0.8-3.1-2-5.1-3.7-6.5l-1.4-1.1c-4.7-3.7-9.6-7.6-14.7-11c-2.8-1.9-5.1-3.7-6.8-6.4
	c-2.2-3.5-5.4-6.4-9.3-8.7c-6.9-4-14.7-6-21.4-7.6c-2.9-0.7-5-0.3-6.6,1.1c-1.1,0.9-1.7,1.5-2.6,1.4s-1.4-0.8-2.3-1.9
	C67.6,8.5,61.9,5.7,55,6c-1.4,0.1-2.1,0.6-2.7,2c-0.6,1.4-1.7,2.8-2.8,3.6c-1.2,0.8-1.7,1.7-1.8,3c-0.1,0.8-0.2,1.8-0.7,2.5
	c-0.4,0.6-0.8,1.3-1.2,2c-0.7,1.4-1.5,3-3.2,4c0,0,0,0.1-0.1,0.2c0,0.2-0.1,0.3-0.1,0.5h0.1c1-0.3,2-0.6,3-1
	c0.7-0.2,1.4-0.5,2.2-0.7c1.4-0.5,2.5,0,3.1,1.2c1.2,2.3,2.6,5,4.2,7.5c0.3,0.5,0.8,0.9,1.4,1.3c0.1,0.1,0.2,0.1,0.3,0.2l1.2-0.8
	l0.2,1.7c0.5,5.3-1.6,9.8-3.8,14.1l-0.5,0.9l-0.9-0.5c-0.8-0.4-1.6-0.9-2.4-1.4c-1.6-1-3.2-2-4.8-2.4c-1.7-0.5-3.5-0.6-5.4-0.6
	c-0.9,0-1.7-0.1-2.6-0.1l-1-0.1l0.2-2.7c-0.1,0.1-0.2,0.2-0.4,0.3L36.2,41c-0.6,0.5-1.3,1-2.2,1.1c-1.6,0.2-2.9,1-3.6,2.2
	s-0.7,2.7-0.1,4.2c0.2,0.5,0.4,1,0.5,1.5c1.2,3.9,3.6,5.9,7.2,6.2c2.4,0.2,4.5,1.1,6.4,2.8c1.8,1.6,3.9,2.3,6.9,2.3
	c3.8,0,7.1,0.8,10.3,2.4c4.2,2.1,8.5,4,12.6,5.6c2.5,1,4.2,2.6,5.2,4.8c1.1,2.5,2.8,4.5,5.3,6.3c3.7,2.6,4.2,5.1,2,9.1
	c-0.4,0.7-0.8,1.4-1.4,2.1c-0.6,0.8-1.3,1.6-1.9,2.3c-1.6,2.1-3.3,4.2-5.2,6.1c-2.9,2.9-6,5.7-8.9,8.5c-1.3,1.2-2.6,2.4-3.9,3.6
	l-1.1,1.1l-0.8-2.2c-0.1-0.4-0.3-0.7-0.4-1.1c-0.6-1.3-1.2-2.6-1.9-3.9c-1.4-3.1-3-6.2-4.6-9.2c-3.7-6.5-8.7-9.2-15.2-8.4
	c-1.7,0.2-3.5-0.4-4.7-1c-3-1.5-5.9-3-8.6-4.8c-1.5-1-3.2-1.4-5.1-1.7c-1.2-0.2-2.5-0.5-3.7-1c-0.1,0-0.3,0-0.4,0
	c-0.3,0.1-0.5,0.2-0.6,0.2c-0.2,0.7-0.5,1.1-1,1.4c-0.7,0.4-1.5,0.2-2,0c-0.2-0.1-0.3-0.1-0.5-0.1c-1.7-0.3-3.5-0.6-5.1-0.6
	c-0.8,0-0.5,0.1-0.5,0.1s0.1,0.3,0.3,0.7c0.3,0.5,0.5,1,0.7,1.6c0.1,0.3,0.2,0.5,0.3,0.8l0.5,1.3l-2.8,0.2c-1,0.1-2,0.1-2.9,0.3
	C5.1,86,5,86,4.8,86.1c0.1,0.2,0.3,0.5,0.3,0.7c0.1,0.3,0.2,0.6,0.4,0.9c0.4,0.9,0.7,1.7,0.9,2.7c0.2,1.6,0.3,3.1,0.4,4.8
	c0,0.7,0.1,1.4,0.1,2.2v0.4l-1.1,1.4c2.3,1,2.8,3.1,3,4.7c0,0.1,0.2,0.4,0.5,0.6c2.6,2,5.7,4.2,9.5,4.9c1.7,0.3,3.4,0.8,5.2,1.6
	l1,0.4c2.8,1.1,5.4,2.2,8.2,2.2c1.3,0,2.6,0,4.1,0h3l0.1,0.9c0.2,1.2,0.4,2.4,0.7,3.7c0.5,2.8,1.1,5.7,1.3,8.6
	c0.7,10.4,9.2,36.7,17.7,43.9l0.3,0.2l1,5.3C61.9,178.7,62,183.7,62,185.4"/>
<path class="st2" d="M121.9,57.2c3.4,5.7,3.7,12,5.9,17.8c0.3-0.6,0.4-1.2,0.3-1.8c-0.8-4-1.8-8-2.6-12.1
	C125.2,59.2,124.3,57.9,121.9,57.2"/>
<path class="st2" d="M60,133.9c-0.4,0.3-0.5,0.4-0.5,0.5c0.5,2.4,1.1,4.8,1.7,7.2c0,0.1,0.6,0.3,0.7,0.3c0.3-0.2,0.6-0.6,0.6-0.9
	C62.1,138.5,61.4,136.1,60,133.9"/>
<path class="st2" d="M60.4,14.6c-4-0.5-5.5-0.2-6.8,1.1C56.2,16.4,58.2,14.5,60.4,14.6"/>
<path class="st2" d="M14.4,101.5c0.7-1,1.8-1.9,1-3.6C14.3,99.1,13.7,100.2,14.4,101.5"/>
<path class="st2" d="M20.6,84.1c1.1,1.4,2,2.5,3.1,3.9c-0.2-1.2-0.4-2.1-0.5-2.9C22.4,84.8,21.6,84.5,20.6,84.1"/>
<path class="st2" d="M103.1,35.1c0.2-0.2,0.3-0.3,0.5-0.5c-0.8-1-1.5-2.1-2.6-2.7c-0.1,0.2-0.3,0.3-0.4,0.5
	C101.4,33.3,102.2,34.2,103.1,35.1"/>
<path class="st2" d="M132.5,49.6c-0.1,0.1-0.2,0.3-0.4,0.4c0.8,0.6,1.5,1.3,2.3,1.9c0.2-0.2,0.3-0.4,0.5-0.7
	C134.1,50.7,133.3,50.1,132.5,49.6"/>
</svg>
