<?xml version="1.0" encoding="utf-8"?>
<!-- Generator: Adobe Illustrator 23.1.1, SVG Export Plug-In . SVG Version: 6.00 Build 0)  -->
<svg version="1.1" id="Capa_1" xmlns="http://www.w3.org/2000/svg" xmlns:xlink="http://www.w3.org/1999/xlink" x="0px" y="0px"
	 viewBox="0 0 250 250" style="enable-background:new 0 0 250 250;" xml:space="preserve">
<style type="text/css">
	.st0{fill:#FFFFFF;}
	.st1{fill:#382517;}
	.st2{opacity:0.7;fill:#5E493E;}
</style>
<g>
	<path class="st0" d="M184.4,184.7c-3.2-9.5-8.8-20-16.7-31.5c-9.6-14-19-24.1-19.4-24.6l-2-2.2h-44.2l-2,2.1
		c-1.3,1.4-26.8,28.2-35.7,56.3c-5.5,2.2-12.1,8.1-12.1,23.4v6.9l144.6,0.3v-6.9C196.8,195.1,190.6,187.5,184.4,184.7z"/>
	<path class="st0" d="M140.8,29.1c-1.9-7.4-8.5-12.7-16.3-12.7c-7.8,0-14.4,5.2-16.3,12.7c-16,6.6-26.6,22.3-26.6,39.7
		c0,15.9,6.1,27.6,16.6,42.5l2.2,3.1h47.1l2.2-3.5c0.6-1,1.4-2.1,2.2-3.3l0.1-0.2c5.8-8.7,15.5-23.3,15.5-38.7
		C167.4,51.5,156.8,35.7,140.8,29.1z"/>
	<path class="st1" d="M133.8,34.6c0.1-0.4,0.1-0.8,0.1-1.3c0-5.2-4.2-9.4-9.4-9.4c-5.2,0-9.4,4.2-9.4,9.4c0,0.4,0,0.8,0.1,1.3
		C100.1,38.7,89,52.5,89,68.8c0,13.8,5.4,24.3,15.2,38.3c0,0,35.2,0,39.2,0c4.7-7.4,16.6-23,16.6-38.3
		C160,52.5,148.9,38.7,133.8,34.6z"/>
	<path class="st1" d="M179,190.3C179,190.3,179,190.3,179,190.3c-7.7-26.9-35.8-57.1-35.8-57.1H105c0,0-28,29.2-35.2,57.1
		c-4.7,0.5-10.8,4.2-10.8,17.8l130.8,0.3C189.9,195.1,182.4,190.3,179,190.3z"/>
	<path class="st2" d="M94.6,174.1c0-10.9,4.6-26.1,15.1-39.7l-4.8-1.1c-1.6,1.7-28.1,30-35.1,57c-4.7,0.5-10.8,4.2-10.8,17.8
		l42.7,0.1C97.2,197.8,94.6,186.2,94.6,174.1z"/>
	<path class="st0" d="M204.6,222.4c0-1,0-2.6-0.6-4.4c-2.1-6.9-7.7-11-15.2-11l-124.9,0l-1.2,0c-0.9,0-1.9,0-2.8,0
		c-9.2,0.1-15.6,6.6-15.6,15.8l0,5.2c0,3.5,1,6.3,3,8.4c2,2.1,4.8,3.1,8.4,3.1h137.9c6.6,0,11-4.4,11-11l0-1.2
		C204.6,225.7,204.7,224,204.6,222.4z"/>
	<path class="st1" d="M124.5,232.1c-22.9,0-45.8,0-68.8,0c-3,0-4-1-4-4.1c0-1.7,0-3.5,0-5.2c0-5.1,3.1-8.3,8.3-8.4
		c1.3,0,2.6,0,3.9,0c41.7,0,83.3,0,125,0c4.2,0,7,2,8.1,5.7c0.2,0.7,0.2,1.6,0.3,2.4c0,2,0,4,0,6c0,2.5-1.1,3.6-3.6,3.6
		C170.6,232.1,147.5,232.1,124.5,232.1z"/>
	<path class="st2" d="M155.3,51.1c-4.6-8-12.3-14-21.4-16.5c0.1-0.4,0.1-0.8,0.1-1.3c0-5.2-4.2-9.4-9.4-9.4s-9.4,4.2-9.4,9.4
		c0,0.4,0,0.8,0.1,1.3C100.1,38.7,89,52.5,89,68.8c0,7.2,1.4,16.2,7.7,26.6c1,1.7,4.8,7.8,7.6,11.7C96.9,62.2,122.6,40.9,155.3,51.1
		z"/>
	<path class="st0" d="M153.8,107.4H95.2c-7.5,0-13.7,6.1-13.7,13.7c0,7.5,6.1,13.7,13.7,13.7h58.6c7.5,0,13.7-6.1,13.7-13.7
		C167.5,113.6,161.3,107.4,153.8,107.4z"/>
	<path class="st1" d="M95.2,127.3h58.6c3.4,0,6.2-2.8,6.2-6.2c0-3.4-2.8-6.2-6.2-6.2H95.2c-3.4,0-6.2,2.8-6.2,6.2
		C89,124.5,91.8,127.3,95.2,127.3z"/>
	<path class="st2" d="M106.2,114.9H95.9c-4.3,0-6.9,2.8-6.9,6.2c0,3.4,2.6,6.2,6.9,6.2h14.9C107.2,122,106.2,114.9,106.2,114.9z"/>
	<path class="st2" d="M101.4,214.5c-11.8,0-25.7,0-37.4,0c-1.3,0-2.6,0-3.9,0c-5.1,0.1-8.3,3.2-8.3,8.4c0,1.7,0,3.5,0,5.2
		c0,3,1,4.1,4,4.1c10.9,0,45.2,0,56,0C107.9,227.3,104.8,222.4,101.4,214.5z"/>
</g>
</svg>
