<?xml version="1.0" encoding="utf-8"?>
<!-- Generator: Adobe Illustrator 23.1.1, SVG Export Plug-In . SVG Version: 6.00 Build 0)  -->
<svg version="1.1" id="Capa_1" xmlns="http://www.w3.org/2000/svg" xmlns:xlink="http://www.w3.org/1999/xlink" x="0px" y="0px"
	 viewBox="0 0 149 250" style="enable-background:new 0 0 149 250;" xml:space="preserve">
<style type="text/css">
	.st0{fill:#F7F7F7;}
	.st1{fill:#333333;}
</style>
<path class="st0" d="M118.6,196.8c-3.5-1-4.1-4-3.8-6.8c0-0.4-0.5-0.7-0.8-0.4c-8.3,6.1-21.3,8.9-39.7,8.9
	c-19.3,0-31.4-2.8-39.7-8.9c-0.4-0.3-0.9,0-0.8,0.4c0.3,2.8-0.4,5.8-3.8,6.8c-0.1,0-0.2,0.1-0.2,0.1c-0.7,0.8-3.2,8.5,44.6,9.1
	c47.8-0.7,45.3-8.3,44.6-9.1C118.8,196.9,118.7,196.8,118.6,196.8"/>
<path class="st1" d="M74.2,207.1c-27.5-0.4-43.3-3.2-45.6-8.1c-0.6-1.2-0.2-2.2,0.2-2.7c0.2-0.2,0.5-0.4,0.8-0.5
	c0.9-0.2,3.5-1,3.1-5.7c-0.1-0.6,0.2-1.2,0.8-1.5c0.5-0.3,1.2-0.3,1.7,0.1c8.2,6,20.3,8.7,39.1,8.7c18.3,0,31.1-2.8,39.1-8.7
	c0.5-0.4,1.2-0.4,1.7-0.1c0.5,0.3,0.8,0.9,0.8,1.5c-0.4,4.7,2.2,5.5,3.1,5.7l0,0c0.3,0.1,0.6,0.3,0.8,0.5c0.4,0.5,0.7,1.6,0.2,2.7
	C117.5,203.9,101.8,206.7,74.2,207.1 M30.4,197.7c0,0.1,0,0.3,0.1,0.5c0.8,1.5,6.4,6.3,43.7,6.8c37.3-0.5,42.9-5.3,43.7-6.8
	c0.1-0.2,0.2-0.4,0.1-0.5c-2.9-0.9-4.4-3.3-4.4-6.7c-8.4,5.7-21.3,8.5-39.4,8.5c-18.6,0-30.9-2.6-39.4-8.5
	C34.8,194.5,33.2,196.8,30.4,197.7"/>
<path class="st0" d="M85,83.9c11.8-4.4,20.2-15.7,20.2-29.1c0-17.1-13.9-31-31-31s-31,13.9-31,31c0,13.5,8.7,25.1,20.8,29.3v1.8h21
	V83.9z"/>
<path class="st1" d="M86.1,86.9H63v-2.1c-12.5-4.7-20.8-16.6-20.8-30c0-17.7,14.4-32,32-32c17.7,0,32,14.4,32,32
	c0,13.1-8.1,24.9-20.2,29.8L86.1,86.9L86.1,86.9z M65.1,84.8H84v-1.7l0.7-0.3c11.7-4.3,19.5-15.6,19.5-28.1c0-16.5-13.4-30-30-30
	s-30,13.4-30,30c0,12.7,8.1,24.1,20.1,28.3l0.7,0.2v1.6H65.1z"/>
<path class="st0" d="M110.9,181.8c-0.1-0.3-0.3-0.6-0.6-0.9c-1.9-1.9-10.5-10.9-15.5-30.5c-5.3-20.6-8.1-35.1-8.5-38.6H62.1
	c-0.4,3.5-3.2,18-8.5,38.6c-5.1,19.7-13.7,28.3-15.6,30c-0.2,0.2-0.4,0.5-0.6,0.8c-1,2.6-0.6,5.3,1.6,6.9c7.5,5.5,28.6,6.3,34.8,6.4
	l0,0c0,0,0.3,0,0.9,0s0.9,0,0.9,0l0,0c6.4-0.1,28.5-1,34.8-7.1C111.9,185.9,111.8,184,110.9,181.8"/>
<path class="st1" d="M75.6,195.6h-0.9h-0.9h-1c-7.4-0.2-27-1.2-34.4-6.6c-2.4-1.8-3.2-4.8-2-8.1c0.2-0.5,0.4-0.9,0.8-1.2
	c1.7-1.5,10.3-10,15.3-29.5c5.6-21.7,8.1-35.5,8.5-38.5l0.1-0.9h26.1l0.1,0.9c0.3,3,2.9,16.8,8.5,38.5c5,19.4,13.5,28.4,15.2,30
	c0.4,0.4,0.7,0.8,0.9,1.3c0.4,1.1,1.7,4.3-0.8,6.7c-6.3,6.1-26.7,7.2-34.5,7.4l0,0L75.6,195.6z M74.7,193.5h0.4h0.4
	c13.4-0.2,29.3-2.2,34.1-6.9c1-1,1.1-2.3,0.3-4.5l0,0c-0.1-0.2-0.2-0.4-0.4-0.5c-1.7-1.7-10.6-11-15.8-31
	c-4.8-18.5-7.7-32.8-8.4-37.8H63c-0.7,5-3.6,19.3-8.4,37.8c-5.2,20.1-14.2,28.9-15.9,30.5c-0.1,0.1-0.2,0.2-0.3,0.4
	c-0.4,1.1-1.1,4,1.2,5.7c7.3,5.3,28,6.1,34.2,6.2L74.7,193.5z"/>
<path class="st0" d="M133.5,219.5c-5.2-4.6-9.5-12.7-9.5-12.7s-2.3-3.9-5.2-3.8h-0.1c-3,0.2-3.3,6.2-44.3,6.2
	c-40,0-41.3-6.1-44.3-6.2H30c-2.9-0.1-5.2,3.8-5.2,3.8s-4.3,8.1-9.5,12.7c-5.2,4.6,3.2,9.9,7.3,11.5c4.6,1.8,20.4,6.1,52,6.1
	s47.4-4.3,52-6.1C130.3,229.3,138.7,224,133.5,219.5"/>
<path class="st1" d="M74.2,238.1c-35.9,0-50.8-5.5-52.4-6.2c-3-1.2-8.8-4.5-9.5-8.6c-0.2-1.2,0-3,2-4.7c5-4.4,9.2-12.3,9.3-12.4
	c0.1-0.2,2.7-4.5,6.2-4.3c1,0,1.7,0.4,2.6,0.9c3.1,1.6,10.3,5.4,41.9,5.4l0,0c32.4,0,39.1-3.8,41.9-5.4c0.8-0.5,1.5-0.8,2.3-0.9h0.1
	h0.2c3.5-0.2,6,4.1,6.1,4.3c0.1,0.1,4.3,8,9.3,12.4c2,1.7,2.2,3.5,2,4.7c-0.7,4-6.5,7.4-9.5,8.6C125,232.6,110.2,238.1,74.2,238.1
	 M29.8,204c-2,0-3.8,2.4-4.4,3.3c-0.2,0.3-4.4,8.3-9.7,12.9c-1,0.9-1.4,1.8-1.3,2.8c0.5,2.7,5.1,5.7,8.2,7c1.5,0.6,16.1,6,51.6,6
	c35.6,0,50.1-5.4,51.6-6c3.1-1.3,7.8-4.3,8.2-7c0.2-1-0.2-1.9-1.3-2.8c-5.3-4.6-9.6-12.6-9.8-13c-0.5-0.9-2.4-3.2-4.3-3.2
	c-0.5,0-0.8,0.2-1.5,0.6c-3,1.7-10.1,5.6-43,5.6l0,0c-32,0-39.6-3.9-42.8-5.6C30.7,204.3,30.2,204.1,29.8,204L29.8,204"/>
<path class="st0" d="M103,90.5H84.7h-21H45.5c-3,0-5.4,2.4-5.4,5.4v6.5c0,3,2.4,5.4,5.4,5.4h16.6h24.3H103c3,0,5.4-2.4,5.4-5.4v-6.5
	C108.3,92.9,105.9,90.5,103,90.5"/>
<path class="st1" d="M103,108.7H45.5c-3.5,0-6.4-2.9-6.4-6.4v-6.5c0-3.5,2.9-6.4,6.4-6.4H103c3.5,0,6.4,2.9,6.4,6.4v6.5
	C109.4,105.9,106.5,108.7,103,108.7 M45.5,91.5c-2.4,0-4.3,1.9-4.3,4.3v6.5c0,2.4,1.9,4.3,4.3,4.3H103c2.4,0,4.3-1.9,4.3-4.3v-6.5
	c0-2.4-1.9-4.3-4.3-4.3H45.5z"/>
</svg>
