<?xml version="1.0" encoding="utf-8"?>
<!-- Generator: Adobe Illustrator 23.1.1, SVG Export Plug-In . SVG Version: 6.00 Build 0)  -->
<svg version="1.1" id="Capa_1" xmlns="http://www.w3.org/2000/svg" xmlns:xlink="http://www.w3.org/1999/xlink" x="0px" y="0px"
	 viewBox="0 0 149 250" style="enable-background:new 0 0 149 250;" xml:space="preserve">
<style type="text/css">
	.st0{fill:#3E3F3C;}
	.st1{fill:#0B0F0E;}
	.st2{fill:#FFFFFF;}
</style>
<path class="st0" d="M123.3,156.9c-0.9-2.8-1.7-5.6-2.6-8.3c-2.2-6.6-4.6-13.1-6.7-19.8c-1.7-5.4-2.6-11-2.5-16.7
	c0-1.7-0.3-3.3-0.6-5c-0.3-1.7-1-3.5-1.1-5.2c-0.5-7.5-0.8-14.9-1.2-22.4c-0.1-1.6-0.5-3.2-0.5-4.8c0.1-5.2,0.1-10.4-1.5-15.5
	s-1.5-10.4,2.6-14.7c0.4-0.4,0.6-0.9,0.8-1.5c1.3-4.7,2.7-9.3,3.8-14.1c1.6-7.2,1.4-14.5,0.8-21.8c-0.1-1.5-0.3-3.4-1.9-3.6
	c-1.3-0.2-3,0.4-4,1.2c-2,1.6-3.8,3.6-5.6,5.5C98,15.8,92.7,21.1,86.5,25.4c-5.1,3.5-11,4-16.9,4.6c-0.5,0.1-1.4-0.5-1.7-1
	c-2.4-4.3-3.6-9-4.3-13.8c-0.1-0.6-0.4-1.1-0.8-2.2c-0.6,1-1,1.5-1.1,2c-0.9,5-1.8,10-2.6,15c-0.2,1.3-0.5,2.1-1.9,2.5
	c-2,0.5-4,1.3-6,2.1c-3,1.3-5.9,2.5-9.3,2.3c-3.3-0.1-5.3,2-4.5,5.1c0.7,2.7,0.4,4.9-0.5,7.4c-0.4,1.2-0.8,1.5-1.9,1.8
	c-7.4,1.6-14.9,3.1-22.3,4.8c-4.6,1-6.1,5.4-3.5,9.3c0.3,0.5,0.6,0.9,0.8,1.5c1.3,4,1.7,8.1,1.4,12.3c-0.1,0.9-0.1,2,0.2,2.8
	c1.7,3.8,4.8,6.6,7.8,9.2c0.9,0.8,2.4,0.9,3.6,1.4c2.4,1,5.5,1.3,7.1,3.1c2.1,2.2,4.2,2.9,6.9,2.9c3.3,0,5.2,1.8,5.1,5.1
	c-0.2,6.2-0.4,12.4-0.7,18.7c-0.3,5.8-1,11.5-3,17c-0.9,2.5-1.7,5.1-2.2,7.7c0,0-5.2,25.6-6.6,30.7c-1.4,5.1,0.5,9.3,8.3,13.2
	s34,5.5,45.2,5.7c17.1,0.3,28.1-6.9,34.6-10.6C124.1,182.3,126,165.2,123.3,156.9"/>
<path class="st1" d="M84.2,197.6c-0.4,0-0.7,0-1.1,0c-9.1-0.2-37.1-1.6-45.6-5.8c-7.7-3.8-10.5-8.4-8.8-14.4
	c1.4-5,6.5-30.3,6.6-30.6c0.4-2.4,1.2-5,2.2-7.9c2.1-5.5,2.6-11.3,3-16.7c0.3-5.7,0.5-11.6,0.7-17.2v-1.4c0-1.3-0.3-2.4-0.9-3
	c-0.7-0.7-1.7-1-3.1-1c-3.2,0.1-5.5-0.9-7.6-3.2c-0.9-1-2.6-1.5-4.3-2c-0.8-0.2-1.6-0.5-2.4-0.8c-0.4-0.1-0.8-0.3-1.2-0.4
	c-1-0.3-1.9-0.5-2.7-1.2c-3.2-2.8-6.3-5.7-8.1-9.6c-0.5-1-0.4-2.2-0.3-3.3c0.4-4.2-0.1-8.2-1.3-11.9C9,66.8,8.7,66.4,8.5,66
	c-1.5-2.2-1.8-4.7-1-6.8c0.8-2,2.6-3.5,5.1-4.1c6.8-1.6,13.7-3,20.3-4.4l1.9-0.4c0.7-0.1,0.8-0.2,1.1-1.1c0.7-2.3,1.1-4.3,0.4-6.8
	c-0.4-1.7-0.2-3.4,0.8-4.6c1-1.3,2.7-2,4.8-1.9c3.2,0.1,6-1,8.8-2.2c2.2-1,4.2-1.7,6.1-2.2c0.8-0.2,1-0.4,1.2-1.6
	c0.7-4.7,1.6-9.5,2.4-14.1l0.2-1c0.1-0.5,0.4-1,0.7-1.5c0.1-0.2,0.3-0.5,0.5-0.9l1.1-2.1l0.8,2.2c0.1,0.4,0.3,0.7,0.4,1
	c0.2,0.5,0.4,0.9,0.4,1.4c0.8,5.5,2.2,9.8,4.2,13.5c0.1,0.2,0.5,0.5,0.7,0.5h0.4c5.8-0.6,11.2-1.1,16-4.4c6.4-4.4,11.9-10.1,16.6-15
	l0.9-1c1.5-1.6,3-3.3,4.8-4.6c1.1-0.9,3.2-1.7,4.8-1.4c2.5,0.4,2.7,3,2.8,4.6c0.5,6.7,0.9,14.4-0.8,22.1c-0.8,3.5-1.8,7.1-2.8,10.5
	c-0.3,1.2-0.7,2.4-1,3.6c-0.2,0.7-0.6,1.4-1,1.9c-3.4,3.6-4.2,8-2.4,13.6c1.7,5.2,1.6,10.5,1.6,15.6c0,1,0.1,1.9,0.2,2.8
	c0.1,0.7,0.2,1.4,0.2,2.1c0.1,2.7,0.3,5.5,0.4,8.2c0.2,4.7,0.5,9.4,0.8,14.1c0.1,1,0.3,1.9,0.6,3c0.2,0.7,0.4,1.4,0.5,2.1l0.1,0.7
	c0.3,1.5,0.5,3,0.5,4.5c-0.1,5.4,0.7,10.9,2.4,16.4c1.4,4.3,2.9,8.7,4.3,12.9c0.8,2.3,1.6,4.6,2.4,6.9c0.6,1.9,1.2,3.7,1.8,5.6
	l0.8,2.7c2.7,8.5,1,26.2-6.1,30.3l-1.5,0.9C110.3,191.4,99.7,197.6,84.2,197.6 M37.3,97.5c1.9,0,3.4,0.6,4.5,1.6
	c1.1,1.1,1.6,2.7,1.5,4.6v1.4c-0.2,5.7-0.3,11.5-0.7,17.3c-0.3,5.6-0.9,11.6-3.1,17.3c-1,2.8-1.7,5.2-2.1,7.5
	c-0.2,1.1-5.3,25.7-6.6,30.8c-1,3.6-0.8,7.8,7.8,12c7.6,3.7,33.4,5.4,44.7,5.6c15.4,0.3,26.2-5.9,32.5-9.6l1.5-0.9
	c6-3.4,7.6-20.1,5.2-27.8l0,0l-0.9-2.7c-0.6-1.9-1.2-3.7-1.8-5.6c-0.8-2.3-1.6-4.6-2.4-6.9c-1.5-4.2-3-8.6-4.3-12.9
	c-1.8-5.7-2.6-11.4-2.5-17c0-1.3-0.2-2.7-0.5-4.1l-0.1-0.7c-0.1-0.7-0.3-1.3-0.5-2c-0.3-1.1-0.6-2.2-0.6-3.3
	c-0.3-4.7-0.5-9.4-0.8-14.2c-0.1-2.7-0.3-5.5-0.4-8.2c0-0.7-0.1-1.3-0.2-2c-0.1-0.9-0.3-1.9-0.2-2.9c0.1-5.4,0.1-10.3-1.5-15.2
	c-2-6.3-1.1-11.6,2.9-15.7c0.2-0.2,0.4-0.6,0.5-1c0.3-1.2,0.7-2.4,1-3.6c1-3.4,1.9-6.9,2.7-10.4c1.7-7.4,1.3-14.9,0.8-21.5
	c-0.1-1.7-0.3-2.6-1.1-2.7c-0.9-0.1-2.3,0.3-3.2,1c-1.6,1.3-3.1,2.9-4.5,4.4l-0.9,1c-4.7,5-10.3,10.8-16.9,15.3
	c-5.2,3.6-11.2,4.2-17,4.7h-0.4c-1,0.1-2.2-0.7-2.7-1.6c-2.1-3.8-3.5-8.1-4.3-13.6v0.3c-0.8,4.6-1.7,9.4-2.4,14
	c-0.2,1.4-0.6,2.8-2.7,3.3c-1.8,0.5-3.7,1.1-5.8,2.1c-2.9,1.3-6.1,2.5-9.8,2.4c-1.4,0-2.4,0.3-3.1,1.1c-0.6,0.7-0.7,1.6-0.4,2.7
	c0.8,3.2,0.3,5.8-0.5,8c-0.5,1.5-1.2,2.1-2.7,2.5l-1.9,0.4c-6.7,1.4-13.6,2.8-20.3,4.4c-1.8,0.4-3.1,1.4-3.7,2.8
	c-0.6,1.5-0.3,3.3,0.8,4.9c0.3,0.5,0.7,1.1,0.9,1.7c1.3,4,1.8,8.3,1.4,12.7c-0.1,0.8-0.1,1.7,0.1,2.2c1.6,3.5,4.4,6.1,7.6,8.9
	c0.4,0.4,1.1,0.6,1.9,0.8c0.5,0.1,1,0.3,1.4,0.4c0.7,0.3,1.5,0.5,2.2,0.7c1.9,0.6,3.9,1.2,5.3,2.6c1.7,1.9,3.4,2.6,6.1,2.5
	C37.2,97.5,37.2,97.5,37.3,97.5"/>
<path class="st0" d="M124.3,199.1c-3.9-1.1-4.6-4.5-4.3-7.6c0-0.5-0.5-0.8-0.9-0.5c-9.4,6.8-24,10-44.6,10c-21.7,0-35.2-3.2-44.6-10
	c-0.4-0.3-1,0-0.9,0.5c0.3,3.2-0.4,6.6-4.3,7.6c-0.1,0-0.2,0.1-0.3,0.2c-0.8,0.9-3.6,9.5,50.1,10.2c53.7-0.7,50.9-9.3,50.1-10.2
	C124.5,199.2,124.4,199.1,124.3,199.1"/>
<path class="st1" d="M74.5,210.5c-30.9-0.4-48.5-3.5-51.1-9c-0.6-1.3-0.3-2.4,0.2-2.9c0.2-0.2,0.5-0.4,0.8-0.5
	c2.7-0.8,3.9-2.9,3.6-6.5c-0.1-0.6,0.3-1.2,0.8-1.5c0.6-0.3,1.2-0.3,1.8,0.1c9.3,6.8,22.8,9.8,44,9.8c20.6,0,35-3.2,44-9.8
	c0.5-0.4,1.2-0.4,1.8-0.1c0.6,0.3,0.9,0.9,0.8,1.5c-0.3,3.6,0.8,5.8,3.6,6.5c0.3,0.1,0.6,0.3,0.8,0.5c0.5,0.6,0.8,1.7,0.2,2.9
	C123,207,105.3,210.1,74.5,210.5 M25.1,200c0,0.1,0,0.4,0.1,0.7c0.9,1.7,7.1,7.1,49.2,7.7c42.1-0.6,48.3-6.1,49.2-7.7
	c0.2-0.3,0.2-0.6,0.1-0.7c-2.4-0.7-5-2.7-4.9-7.7c-9.4,6.5-24,9.6-44.4,9.6c-21,0-34.8-3-44.4-9.6C30.2,197.3,27.5,199.3,25.1,200"
	/>
<path class="st0" d="M141,224.5c-5.9-5.1-10.7-14.2-10.7-14.2s-2.6-4.3-5.9-4.2c-0.1,0-0.1,0-0.2,0c-3.4,0.2-3.7,7-49.8,7
	c-44.9,0-46.4-6.8-49.8-7c-0.1,0-0.1,0-0.2,0c-3.3-0.1-5.9,4.2-5.9,4.2s-4.8,9.1-10.7,14.2c-5.9,5.1,3.6,11.1,8.1,12.9
	c5.1,2.1,22.9,6.9,58.4,6.9s53.3-4.8,58.4-6.9C137.4,235.6,146.9,229.7,141,224.5"/>
<path class="st1" d="M74.5,245.4c-40.3,0-57-6.2-58.8-6.9c-3.3-1.3-9.8-5.1-10.6-9.5c-0.2-1.3,0-3.3,2.2-5.2
	c5.7-4.9,10.4-13.8,10.5-13.9c0.1-0.2,2.9-4.8,6.7-4.8c0.1,0,0.1,0,0.2,0c1.1,0,1.8,0.4,2.8,1c3.5,1.8,11.6,6,47.1,6l0,0
	c36.4,0,43.9-4.2,47.1-6c0.9-0.5,1.6-0.9,2.6-1h0.1h0.2c0.1,0,0.1,0,0.1,0c3.7,0,6.5,4.6,6.6,4.7c0.1,0.1,4.8,9,10.5,14
	c2.2,1.9,2.4,3.9,2.2,5.2c-0.8,4.5-7.3,8.2-10.6,9.5C131.5,239.1,114.8,245.4,74.5,245.4 M24.5,207.1c-2.3,0-4.4,2.7-5,3.7
	c-0.2,0.3-4.9,9.3-10.9,14.5c-1.2,1-1.7,2.1-1.5,3.3c0.5,3.1,5.8,6.5,9.3,7.9c1.7,0.7,18.1,6.8,58,6.8s56.3-6.1,58-6.8
	c3.6-1.4,8.8-4.8,9.3-7.9c0.2-1.2-0.3-2.2-1.5-3.3c-6-5.2-10.7-14.1-10.9-14.5c-0.6-1-2.8-3.7-4.9-3.7l-0.1-1l-0.1,1
	c-0.3,0-0.8,0.2-1.6,0.7c-3.4,1.9-11.3,6.3-48.2,6.3l0,0c-35.9,0-44.4-4.4-48-6.3C25.6,207.4,25.1,207.1,24.5,207.1
	C24.6,207.1,24.6,207.1,24.5,207.1"/>
<path class="st2" d="M96.4,42.3c0,0-8.7-8,0-17c8.6-9,12.3-16.5,14.5-16.7c2.2-0.3,3,18.5-1.7,23.5c-4.6,5-2.1,11.4-4.8,11.4
	C101.6,43.6,96.4,42.3,96.4,42.3"/>
<path class="st2" d="M56.2,50.2c0-1.1,3.7-6.7,7.5-4.9c3.7,1.9,0.4,4.5-1.9,4.9C59.6,50.5,56.2,50.2,56.2,50.2"/>
<path class="st2" d="M17.8,63.6c-0.4-1.1-1.5-2-2.6-1.1S14,66,17.8,66.6c3.9,0.6,5.6-0.2,7.2-1.7c0,0,0.6-1.3-0.7-0.4
	c-1.3,1-4.1,1.9-5.1,1C18.1,64.5,17.8,63.6,17.8,63.6"/>
<path class="st2" d="M16.7,79.5c0,0,1.1,2.5,0.6,3.7s-0.7,3.3-0.6,3.8c0.2,0.5,0.7,1.1,0.7,1.1s-0.7-4.4,1.3-5.5s4.8-0.1,6.4,0.4
	c1.5,0.5-3.2-1.1-5.3-2.6S15.7,77.9,16.7,79.5"/>
<path class="st2" d="M50.1,90c-0.5-0.3,7.9-0.7,11.5-4.2c3.6-3.6,11.7-5.4,12.4-3.2c0.7,2.2,1.2,5.7-4.1,6.6
	C64.6,90.1,53.3,91.8,50.1,90"/>
</svg>
