<?xml version="1.0" encoding="utf-8"?>
<!-- Generator: Adobe Illustrator 23.1.1, SVG Export Plug-In . SVG Version: 6.00 Build 0)  -->
<svg version="1.1" id="Capa_1" xmlns="http://www.w3.org/2000/svg" xmlns:xlink="http://www.w3.org/1999/xlink" x="0px" y="0px"
	 viewBox="0 0 250 250" style="enable-background:new 0 0 250 250;" xml:space="preserve">
<style type="text/css">
	.st0{fill:#FFFFFF;}
	.st1{fill:#382517;}
	.st2{fill:#5E493E;}
	.st3{opacity:0.7;}
	.st4{opacity:0.7;fill:#5E493E;}
</style>
<g>
	<g>
		<path class="st0" d="M193.6,188.8l-101.4,0l-1,0c-0.8,0-1.5,0-2.2,0c-7.5,0-21.6,4.7-21.6,22.4v8.6H74l139.2,0v-8.3
			C213.1,195.7,200.2,188.8,193.6,188.8z"/>
		<path class="st0" d="M83.8,193.9l-0.1-1.4c-1.5-22.1,2-39.4,4.4-50.9c1.6-7.9,2.8-13.7,1.4-16.2c-5.8-11.2-9.1-13.2-10.9-12.8
			c-8.2,1.5-15,2.1-21.4,1.9c-2-0.1-4.4-0.2-6.9-1.1c-1.5-0.6-4.4-1.9-6.2-4.6c-0.6-1-2.3-5.2-3-7c-0.2,0-0.5-0.1-0.6-0.1
			c-0.1,0-0.2,0-0.3,0c-6.7,0-10.1-13.4-10.5-14.9c-0.5-1.8-1.1-5.2-0.2-7.9c0.6-1.8,1.8-3.4,3.6-4.9c1.3-1,2.8-1.8,4.5-2.4
			c0.8-0.3,1.6-0.5,2.1-0.7c1.3-0.6,2.5-1,3.5-1.5c2.5-1,3.9-1.6,5.7-2.7c0.2-1.1,0.4-2.4,0.6-3.9c0-0.1,1-6.3,1.4-7.6
			c1.5-5,6.2-9.3,14.4-12.9c0.8-0.4,1.6-0.7,2.4-1c-0.9-2.4-3.3-7.7-4-9.2c-1.4-2.7-2.6-12,2.5-18.9c0.4-0.5,1-0.8,1.6-0.8
			c0,0,0,0,0,0c0.6,0,1.3,0.3,1.6,0.8c2.2,3,5.3,5.7,8,8.1c0.3,0.2,0.5,0.5,0.8,0.7c0.2-4,1.2-8.5,3.7-12.7c0.4-0.6,1-1,1.7-1
			c0.7,0,1.3,0.3,1.7,0.8c1.7,2.5,7.6,7.6,12.8,12c4.3,3.7,8.4,7.1,10.5,9.5c1.6,1.7,3.1,3.6,4.5,5.7c1.3,0.4,2.8,0.8,4.3,1.1
			c4.8,1.2,11.6,4.4,16.1,7.6c10,7.1,13.8,13.9,17.5,20.5c2.2,4,4.4,7.9,7.9,11.6c36,38.3,39.5,80.9,41.6,106.4
			c0.4,5.1,0.8,9.5,1.3,13.2l0.3,2l-13.4-1.9L83.8,193.9z"/>
		<g>
			<path class="st1" d="M83.8,37.8c-3,0.7-6,1.4-9.3,2.9c-0.8-3.8-2.4-5.9-4.5-9.3c-2.2-3.6-2.3-8.6-1.7-11.2
				c0.1-0.4,0.6-0.5,0.8-0.1c2.3,3.7,5.5,5.6,7.3,7.3C77.6,28.5,81.5,32.6,83.8,37.8z"/>
		</g>
		<g>
			<path class="st2" d="M83.8,37.8c-3,0.7-6,1.4-9.3,2.9c-0.8-3.8-2.4-5.9-4.5-9.3c-2.2-3.6-2.3-8.6-1.7-11.2
				c0.1-0.4,0.6-0.5,0.8-0.1c2.3,3.7,5.5,5.6,7.3,7.3C77.6,28.5,81.5,32.6,83.8,37.8z"/>
		</g>
		<path class="st1" d="M92.2,197.1c-3.2-41.2,8.5-60.7,3.3-74.2c-2.5-6.5-9.4-18.3-18.1-16.8c-6.7,1.2-13.3,2-20.1,1.8
			c-1.6,0-3.3-0.1-4.8-0.7c-1.1-0.4-2.3-1.1-3-2.1c-0.7-1-3-8.7-4.1-9c-6.2-1.3-7.7-5.3-9.4-11.9c-0.4-1.6-0.7-2.6-0.4-3.5
			c0.2-0.5,0.5-0.9,1-1.4c1.8-1.7,13.6-5.5,18.6-9.2c-0.5,0.4,1.8-12.4,2-13.2c2-7,18.6-12.1,24.8-13.3c2.7-0.5,5.6-1.3,8.5-2
			c-1.2-4.3-3.7-8.1-5.7-12.1c-1.3-2.5-1.2-8.5-0.2-13.5c0.1-0.4,0.5-0.5,0.8-0.2c4.2,5.1,14.5,14.4,18.7,19.1
			c1.9,2.1,3.6,4.4,5.1,6.8c6.1,2.1,15.8,5.7,21,9.7c15.2,11.6,14.6,23.3,23.5,32.6c25.9,27.2,38.2,60.9,40.1,115.2"/>
		<path class="st1" d="M74,211.2c0-13,10.1-15.9,15.1-15.9c1.1,0,2.1,0,3.2,0c33.8,0,67.6,0,101.4,0c3.4,0,13,4.2,13,16.1L74,211.2z
			"/>
		<g class="st3">
			<path class="st2" d="M77.4,106.1c0.9-0.1,1.7-0.1,2.6-0.1C79.1,105.9,78.3,106,77.4,106.1z"/>
			<path class="st2" d="M74,211.2l43.9,0.1c0,0-4.3-6.7-5.2-16c0,0,0,0,0,0c-0.9-24.3,3.5-89.1-32.6-89.3c7.4,0.9,13.3,11,15.5,16.8
				c5.2,13.3-6.2,32.5-3.4,72.5c-1,0-2,0-3,0C84.1,195.4,74,198.2,74,211.2z"/>
		</g>
		<path class="st0" d="M220.4,223.6c0-1,0-2.5-0.5-4.1c-2-6.6-7.3-10.4-14.4-10.4l-126.7,0l-1.2,0c-0.9,0-1.9,0-2.8,0
			c-8.9,0.1-14.8,6.1-14.8,15l0,5.3c0,1.2,0,5,2.8,7.8c2.8,2.8,6.6,2.8,7.8,2.8h139.8c6.1,0,10.2-4.1,10.2-10.2l0-1.2
			C220.4,226.9,220.4,225.3,220.4,223.6z"/>
		<path class="st1" d="M140.2,233.5c-23.3,0-46.5,0-69.8,0c-3,0-4.1-1-4.1-4.1c0-1.8,0-3.5,0-5.3c0-5.2,3.2-8.4,8.4-8.5
			c1.3,0,2.6,0,4,0c42.2,0,84.5,0,126.7,0c4.2,0,7.1,2,8.2,5.8c0.2,0.8,0.2,1.6,0.3,2.4c0,2,0,4,0,6.1c0,2.6-1.1,3.7-3.7,3.7
			C187,233.5,163.6,233.5,140.2,233.5z"/>
		<g class="st3">
			<path class="st2" d="M89.9,41.7c-2.7,0.7-5.4,1.4-7.9,1.9c-6.2,1.2-22.7,6.4-24.8,13.3c-0.3,0.9-2.5,13.6-2,13.2
				c-5,3.7-16.8,7.5-18.6,9.2c-0.5,0.5-0.8,1-1,1.4c-0.3,0.9,0,2,0.4,3.5c1.7,6.6,3.2,10.6,9.4,11.9c1.1,0.2,3.4,7.9,4.1,9
				c0.7,1,1.9,1.7,3,2.1c1.5,0.6,3.2,0.7,4.8,0.7c0.4,0,0.8,0,1.1,0C48.4,83.2,66.4,54.5,89.9,41.7z"/>
		</g>
		<g>
			<path class="st4" d="M120,215.5c-13.3,0-27.9,0-41.2,0c-1.3,0-2.6,0-4,0c-5.2,0.1-8.4,3.3-8.4,8.5c0,1.8,0,3.5,0,5.3
				c0,3.1,1,4.1,4.1,4.1c8.3,0,52.5,0,60.7,0C127.3,228.3,123.2,222,120,215.5z"/>
		</g>
	</g>
	<g>
		<path class="st0" d="M79.9,59.7c-3.6,1.8-7.5,2.3-11.8,2.5c3.4,1.8,6.3,2.2,5.9,6.4c0,0.1,0.1,0.1,0.1,0
			C76.7,66.7,78.9,64.2,79.9,59.7z"/>
	</g>
</g>
</svg>
