<?xml version="1.0" encoding="utf-8"?>
<!-- Generator: Adobe Illustrator 23.1.1, SVG Export Plug-In . SVG Version: 6.00 Build 0)  -->
<svg version="1.1" id="Capa_1" xmlns="http://www.w3.org/2000/svg" xmlns:xlink="http://www.w3.org/1999/xlink" x="0px" y="0px"
	 viewBox="0 0 149 250" style="enable-background:new 0 0 149 250;" xml:space="preserve">
<style type="text/css">
	.st0{fill:#F7F7F7;}
	.st1{fill:#333333;}
</style>
<path class="st0" d="M124.4,198.8c-3.9-1.1-4.6-4.5-4.3-7.6c0-0.5-0.5-0.7-0.9-0.5c-14.1,5.6-24.7,7.5-45.3,7.5
	c-21.7,0-30.6-2.9-43.9-7.5c-0.5-0.2-1,0-0.9,0.5c0.3,3.2-0.4,6.6-4.3,7.6c-0.1,0-0.2,0.1-0.3,0.2c-0.8,0.9-3.6,9.5,50.1,10.2
	c53.7-0.7,50.9-9.3,50.1-10.2C124.6,198.9,124.5,198.8,124.4,198.8"/>
<path class="st1" d="M74.6,210.2c-30.9-0.4-48.5-3.5-51.1-9c-0.6-1.3-0.3-2.4,0.2-2.9c0.2-0.2,0.5-0.4,0.8-0.5
	c2.7-0.8,3.9-2.9,3.6-6.5c0-0.5,0.2-1,0.6-1.3c0.5-0.4,1.1-0.4,1.7-0.2c13.1,4.5,21.8,7.4,43.6,7.4c20.1,0,30.6-1.7,44.9-7.4
	c0.6-0.2,1.3-0.2,1.7,0.2c0.4,0.3,0.6,0.8,0.6,1.4c-0.3,3.6,0.8,5.8,3.6,6.5l0,0c0.3,0.1,0.6,0.3,0.8,0.5c0.4,0.6,0.8,1.7,0.2,2.9
	C123.1,206.7,105.5,209.8,74.6,210.2 M25.3,199.7c0,0.1,0,0.4,0.1,0.7c0.9,1.7,7.1,7.1,49.2,7.7c42.1-0.6,48.3-6.1,49.2-7.7
	c0.2-0.3,0.2-0.6,0.1-0.7c-3.3-1-5-3.8-4.9-7.9c-14.3,5.6-25,7.3-45.1,7.3c-21.8,0-31.1-3.1-43.7-7.3C30.4,197,27.7,199,25.3,199.7
	 M30.1,191.1L30.1,191.1L30.1,191.1z"/>
<path class="st0" d="M141.1,224.2c-5.9-5.1-10.7-14.2-10.7-14.2s-2.6-4.3-5.9-4.2c-0.1,0-0.1,0-0.2,0c-3.4,0.2-3.7,7-49.8,7
	c-44.9,0-46.4-6.8-49.8-7c-0.1,0-0.1,0-0.2,0c-3.3-0.1-5.9,4.2-5.9,4.2s-4.8,9.1-10.7,14.2c-5.9,5.1,3.6,11.1,8.1,12.9
	c5.1,2.1,22.9,6.9,58.4,6.9s53.3-4.8,58.4-6.9C137.6,235.3,147,229.4,141.1,224.2"/>
<path class="st1" d="M74.6,245.1c-40.3,0-57-6.2-58.8-6.9c-3.3-1.3-9.8-5.1-10.6-9.5c-0.2-1.3,0-3.3,2.2-5.2
	c5.7-4.9,10.4-13.8,10.5-13.9c0.1-0.2,2.9-4.8,6.7-4.8c0.1,0,0.1,0,0.2,0c1.1,0,1.8,0.4,2.8,1c3.5,1.8,11.6,6,47.1,6l0,0
	c36.4,0,43.9-4.2,47.2-6c0.9-0.5,1.6-0.9,2.6-1h0.1h0.2c3.8-0.1,6.6,4.5,6.8,4.7c0.1,0.1,4.8,9,10.5,14c2.2,1.9,2.4,3.9,2.2,5.2
	c-0.8,4.5-7.3,8.2-10.6,9.5C131.6,238.8,114.9,245.1,74.6,245.1 M24.7,206.8c-2.3,0-4.4,2.7-5,3.7c-0.2,0.3-4.9,9.3-10.9,14.5
	c-1.2,1-1.7,2.1-1.5,3.3c0.5,3.1,5.8,6.5,9.3,7.9c1.7,0.7,18,6.8,58,6.8s56.3-6.1,58-6.8c3.6-1.4,8.8-4.8,9.3-7.9
	c0.2-1.2-0.3-2.2-1.5-3.3c-6-5.2-10.7-14.1-10.9-14.5c-0.6-1-2.7-3.7-4.9-3.7h-0.1l-0.1-1l-0.1,1c-0.3,0-0.8,0.2-1.6,0.7
	c-3.4,1.9-11.3,6.3-48.2,6.3l0,0c-35.9,0-44.4-4.4-48-6.3C25.7,207.1,25.2,206.8,24.7,206.8L24.7,206.8"/>
<path class="st0" d="M111.7,98.4c0.2-3.6-0.6-4.4-3.7-5.5c-0.7-0.2-1.3-0.6-1.8-1.1c-2.7-2.6-4.2-5.9-4.9-9.6
	c-1.4-7.9-0.3-15.6,1.3-23.3c2.9-14.2,7.6-27.8,12.8-41.2c1-2.7,0.1-5.1-2.3-6.1s-4.8-0.1-5.9,2.7c-2.3,5.9-4.8,11.8-6.7,17.8
	c-0.9,2.9-2.4,3.5-4.9,3.2c-0.8-0.1-1.5-0.8-2.3-1.2c-2.9-1.5-5.7-3.1-8.6-4.6c-1.3-0.6-2.7-1-4.1-1.6C87.9,21.4,89,13.7,83.5,8
	c-4.9-5.2-13.4-5.2-18.2-0.2c-5.5,5.8-4.5,13.9,2.9,20.2c-5.6,1.4-10.2,3.6-14.3,7.2c-1.5,1.3-4.4-0.1-5.1-2
	c-2.3-6.2-4.6-12.4-7-18.5c-1.1-2.9-3.5-4.1-6-3.2c-2.4,0.9-3.4,3.4-2.3,6.4c0.9,2.7,2,5.3,3,8c5.2,13.7,9.7,27.7,11.4,42.4
	c0.7,5.7,0.9,11.4-0.7,17c-1.1,3.6-3.3,6.3-6.8,7.8c-0.7,0.3-1.6,1-1.8,1.8c0,0-0.9,2.6,0,5.7l72.7,0.1L111.7,98.4z M109,18
	c0.8,2.2-2.8,12.2-5.3,15C105.4,28.2,107.1,23.4,109,18 M43.8,35.7c-2.5-7.3-5-14.7-7.4-22c0.4-0.1,0.8-0.3,1.2-0.4
	c2.5,7.4,4.9,14.8,7.4,22.1C44.6,35.5,44.2,35.6,43.8,35.7"/>
<path class="st1" d="M112.3,101.6l-74.4-0.1l-0.2-0.7c-1-3.4,0-6.3,0-6.4c0.4-1.1,1.5-2,2.4-2.4c3.2-1.4,5.2-3.7,6.3-7.1
	c1.7-5.7,1.3-11.5,0.7-16.5c-1.9-16-7.1-30.9-11.4-42.1L34.9,24c-0.8-1.9-1.5-3.9-2.2-5.8c-1.2-3.4,0-6.6,3-7.7
	c3.1-1.1,6,0.4,7.3,3.8c1.7,4.5,3.4,9.1,5.1,13.7l1.8,4.9c0.3,0.7,1.2,1.5,2.2,1.7c0.3,0.1,0.9,0.2,1.3-0.2
	c3.7-3.2,7.9-5.4,12.9-6.9c-3.3-3.3-5.1-7.1-5.3-10.8c-0.2-3.5,1.1-6.9,3.7-9.6c2.4-2.6,6-4,9.6-4.1l0,0c3.8,0,7.5,1.5,10,4.2
	c2.6,2.7,3.9,5.9,3.7,9.3c-0.2,3.8-2,7.5-5.4,10.9c0.9,0.3,1.8,0.6,2.7,1.1c2.1,1.1,4.2,2.2,6.2,3.3l2.4,1.3
	c0.3,0.1,0.5,0.3,0.8,0.5c0.4,0.3,0.8,0.5,1.1,0.6c2,0.2,3-0.1,3.7-2.5c1.5-5,3.5-9.8,5.4-14.6l1.3-3.3c0.6-1.6,1.7-2.8,3.1-3.4
	c1.3-0.5,2.7-0.5,4.2,0.1c2.9,1.2,4.1,4.3,2.9,7.4c-4.9,12.7-9.8,26.5-12.8,41.1c-1.5,7.3-2.7,15.1-1.3,22.9c0.6,3.6,2.2,6.6,4.6,9
	c0.4,0.4,0.9,0.7,1.4,0.9c3.5,1.3,4.6,2.4,4.4,6.6v0.1L112.3,101.6z M39.5,99.4l71,0.1l0.2-1.2c0.1-3.1-0.3-3.5-3.1-4.5
	c-0.8-0.3-1.6-0.8-2.1-1.3c-2.7-2.7-4.4-6.1-5.2-10.1c-1.4-8.1-0.2-16.2,1.3-23.7c3-14.7,7.9-28.6,12.9-41.4c0.8-2.1,0.1-4-1.7-4.8
	c-0.9-0.4-1.8-0.4-2.5-0.1c-0.8,0.3-1.5,1.1-1.9,2.2L107,18c-1.9,4.7-3.8,9.5-5.3,14.4c-1,3.1-2.7,4.3-6,3.9c-0.8-0.1-1.4-0.5-2-0.9
	c-0.2-0.1-0.4-0.3-0.6-0.4l-2.4-1.3c-2-1.1-4.1-2.2-6.2-3.3c-0.8-0.4-1.7-0.7-2.6-1c-0.5-0.2-0.9-0.3-1.4-0.5l-1.6-0.6l1.3-1.1
	c3.8-3.3,5.8-7,6-10.7c0.1-2.8-1-5.5-3.1-7.8c-2.2-2.3-5.3-3.6-8.5-3.6l0,0c-3.2,0-6.1,1.2-8.1,3.4c-2.2,2.3-3.3,5.1-3.2,8.1
	c0.2,3.7,2.3,7.5,6,10.6l1.5,1.3l-2,0.5c-5.5,1.4-10,3.6-13.9,6.9c-0.8,0.7-2,0.9-3.2,0.6c-1.6-0.4-3.1-1.6-3.6-3l-1.8-4.9
	c-1.7-4.5-3.4-9.1-5.1-13.6c-0.6-1.5-1.5-2.4-2.7-2.7l7.9,23.8L43.2,37l-8-23.7c-0.9,1-1.1,2.5-0.5,4.2c0.7,1.9,1.4,3.9,2.2,5.8
	l0.8,2.2c4.3,11.3,9.5,26.4,11.5,42.6c0.6,5.2,1,11.4-0.8,17.4c-1.2,4-3.7,6.8-7.4,8.4c-0.6,0.2-1.1,0.8-1.3,1.1
	C39.7,95.1,39,97,39.5,99.4 M37.5,12.2c-0.4,0-0.7,0.1-1.1,0.2c-0.3,0.1-0.5,0.2-0.7,0.4L37.5,12.2z M101,37.5l8-22.6l1,2.8
	c1,2.7-2.9,13.1-5.5,16L101,37.5z"/>
<path class="st0" d="M110.2,120.5c0.9,0,1.6,0.9,1.3,1.8c-7.8,21.5-7.7,37.7,4.3,61c0.5,1,0.2,2.2-0.8,2.8
	c-2.7,1.6-8.8,4.5-17.7,5.5c-12.7,1.4-35.3,2.5-49.7-0.7c-14-3.1-15.5-4.9-13.8-7.3c11.4-24.8,11.7-40.1,3.9-60.9
	c-0.3-0.9,0.3-1.8,1.3-1.8L110.2,120.5z"/>
<path class="st1" d="M71.8,194c-8.9,0-17.7-0.6-24.5-2.1c-11.5-2.5-14.3-4.1-15-6c-0.5-1.4,0.3-2.6,0.5-2.9
	c10.8-23.5,11.8-38.7,3.8-60c-0.3-0.7-0.2-1.6,0.3-2.2c0.4-0.6,1.2-1,1.9-1l71.4-0.3l0,0l0,0c0.8,0,1.5,0.4,1.9,1
	c0.5,0.6,0.6,1.5,0.3,2.2c-8.2,22.4-7.1,38.2,4.2,60.1c0.8,1.5,0.2,3.3-1.2,4.2c-2.9,1.7-9,4.6-18.1,5.6
	C90.1,193.4,80.9,194,71.8,194 M110.2,121.5l-71.4,0.3c-0.1,0-0.2,0.1-0.2,0.1c0,0.1-0.1,0.2,0,0.3c8.2,21.9,7.2,37.5-3.9,61.7
	c-0.5,0.8-0.5,1.1-0.4,1.2c0.5,1.3,5.1,2.9,13.5,4.7c13.6,3,35.1,2.2,49.4,0.6c8.8-1,14.6-3.7,17.3-5.3c0.5-0.3,0.7-0.9,0.4-1.4
	c-11.6-22.5-12.8-38.7-4.4-61.8c0.1-0.1,0-0.3,0-0.3C110.5,121.6,110.4,121.5,110.2,121.5L110.2,121.5L110.2,121.5z"/>
<path class="st0" d="M114.5,105.5c1.3,0.1,2.4,0.4,3.3,0.9c1.5,1,2.4,2.5,2.4,4.2c0,2.1-1.5,3.9-3.7,4.8c-0.5,0.2-1,0.3-1.5,0.4
	c-0.2,0-0.4,0.1-0.6,0.1c-0.3,0-0.6,0.1-1,0.1H35.7c-3.7,0-6.8-2.4-6.8-5.5c0-0.4,0.1-0.9,0.2-1.3c0.8-2.2,3.1-3.8,6.1-4.2
	c0.1,0,0.2,0,0.3,0s0.1,0,0.2,0L114.5,105.5z"/>
<path class="st1" d="M113.5,117.1H35.7c-4.3,0-7.8-2.9-7.8-6.5c0-0.5,0.1-1,0.2-1.5c1-2.7,3.6-4.5,7-4.9h0.4l79.2,0.4
	c1.4,0.1,2.7,0.5,3.7,1c2,1.3,3,3.2,3,5.1c0,2.5-1.7,4.7-4.3,5.8c-0.7,0.2-1.2,0.4-1.8,0.5c-0.1,0-0.3,0.1-0.4,0.1l-0.3,0.1
	C114.2,117,113.9,117.1,113.5,117.1 M35.7,106.1h-0.4c-2.6,0.3-4.5,1.6-5.2,3.5c-0.1,0.3-0.1,0.6-0.1,0.9c0,2.4,2.6,4.4,5.7,4.4
	h77.9c0.3,0,0.5,0,0.7-0.1c0.3-0.1,0.4-0.1,0.6-0.2c0.5-0.1,1-0.2,1.4-0.4c1.8-0.8,3-2.2,3-3.9c0-1.3-0.7-2.5-2-3.3
	c-0.7-0.3-1.6-0.6-2.8-0.7L35.7,106.1z"/>
</svg>
