<?xml version="1.0" encoding="utf-8"?>
<!-- Generator: Adobe Illustrator 23.1.1, SVG Export Plug-In . SVG Version: 6.00 Build 0)  -->
<svg version="1.1" id="Capa_1" xmlns="http://www.w3.org/2000/svg" xmlns:xlink="http://www.w3.org/1999/xlink" x="0px" y="0px"
	 viewBox="0 0 250 250" style="enable-background:new 0 0 250 250;" xml:space="preserve">
<style type="text/css">
	.st0{fill:#FFFFFF;}
	.st1{fill:#382517;}
	.st2{opacity:0.7;fill:#5E493E;}
</style>
<g>
	<path class="st0" d="M174.3,186.8l-12.6-76.5H85.5L74.6,187c-7.2,3.3-13.5,10.9-13.5,24.4v7l126.7,0.3v-7
		C187.8,197.9,180.8,190,174.3,186.8z"/>
	<g>
		<path class="st1" d="M167.9,192.1l-12.4-74.8H91.8l-10.7,75c-5.2,0.9-13,5.3-13,19.1l112.7,0.3
			C180.8,197.3,171.3,192.1,167.9,192.1z"/>
	</g>
	<path class="st2" d="M103.1,129.9c-3.3,29-8.9,50.7-9.9,80.2l-25-0.4c0.5-12,7.2-16.4,12.9-17.5l8.9-62.3H103.1z"/>
	<path class="st0" d="M167.1,102.3h-3.5c-0.8-9.4-6.4-17.3-13.7-19.8c-2.1-5.9,3.4-19.6,15.5-30.1c8.4-0.8,14.9-7.8,14.9-16.3
		c0-9.1-7.4-16.4-16.4-16.4c-9,0-16.3,7.3-16.4,16.3l-5.2,5.2c-1.1-0.6-1.8-1.1-2.2-1.6c2.4-3.4,3.7-7.5,3.7-11.7
		c0-11.3-9.2-20.5-20.5-20.5c-11.3,0-20.5,9.2-20.5,20.5c0,4.3,1.4,8.5,3.9,12c-0.2,0.3-0.6,0.6-1.1,0.9l-4.4-4.4c0-0.1,0-0.2,0-0.3
		c0-9.1-7.4-16.4-16.4-16.4S68.4,27,68.4,36c0,8.3,6.2,15.2,14.3,16.3c10.3,11.2,15.6,24.2,14.2,30.4c-7.7,2.6-13.1,10-13.8,19.6
		h-1.2c-8.6,0-15.1,6.2-15.1,14.3s6.5,14.3,15.1,14.3h85.2c8.6,0,15.1-6.2,15.1-14.3S175.7,102.3,167.1,102.3z"/>
	<path class="st1" d="M163.8,26.6c-5.2,0-9.4,4.2-9.4,9.4c0,0.8,0.1,1.7,0.3,2.4l-8,8c-2.1,2.1-5.2,2.2-7.8,0.9
		c-5.1-2.7-6.5-6.3-6.5-9.7c2.6-2.5,4.3-5.9,4.3-9.8c0-7.4-6-13.5-13.5-13.5s-13.5,6-13.5,13.5c0,3.9,1.7,7.5,4.4,9.9
		c0.3,2.9-0.7,6.4-5.4,9.3c-2.5,1.5-5.7,1.2-7.7-0.9l-7.3-7.3c0.3-0.9,0.4-1.8,0.4-2.8c0-5.2-4.2-9.4-9.4-9.4s-9.4,4.2-9.4,9.4
		s4.2,9.4,9.4,9.4c0.3,0,0.6,0,1,0l0.6,0.6c18.1,18.7,16.1,42.7,16.1,42.7c-8,0.3-12.4,7.7-12.4,15.7c0,0,51.1,0,66.7,0
		c0-8-5.2-15.7-11.7-15.7c-3.9-6.3-1.1-27.2,16.1-42l1.4-1.4c0.4,0.1,0.9,0.1,1.3,0.1c5.2,0,9.4-4.2,9.4-9.4S169,26.6,163.8,26.6z"
		/>
	<path class="st0" d="M205.3,223.8c0-1,0-2.6-0.6-4.3c-2-6.7-7.6-10.8-14.9-10.8l-126.7,0l-1.2,0c-0.9,0-1.9,0-2.8,0
		c-9,0.1-15.3,6.5-15.3,15.5l0,5.3c0,1.3,0,5.2,2.9,8.2c2.9,3,6.8,3,8.1,3h139.8c6.4,0,10.7-4.3,10.7-10.7l0-1.2
		C205.3,227.2,205.3,225.5,205.3,223.8z"/>
	<g>
		<path class="st1" d="M124.5,233.7c-23.3,0-46.5,0-69.8,0c-3,0-4.1-1-4.1-4.1c0-1.8,0-3.5,0-5.3c0-5.2,3.2-8.4,8.4-8.5
			c1.3,0,2.6,0,4,0c42.2,0,84.5,0,126.7,0c4.2,0,7.1,2,8.2,5.8c0.2,0.8,0.2,1.6,0.3,2.4c0,2,0,4,0,6.1c0,2.6-1.1,3.7-3.7,3.7
			C171.2,233.7,147.9,233.7,124.5,233.7z"/>
	</g>
	<g>
		<path class="st1" d="M81.9,123.9h85.2c5,0,8.1-3.3,8.1-7.3s-3.1-7.3-8.1-7.3H81.9c-5,0-8.1,3.3-8.1,7.3S76.9,123.9,81.9,123.9z"/>
	</g>
	<path class="st2" d="M163.8,26.6c-5.2,0-9.4,4.2-9.4,9.4c0,0.8,0.1,1.7,0.3,2.4l-8,8c-2.1,2.1-5.2,2.2-7.8,0.9
		c-5.1-2.7-6.5-6.3-6.5-9.7c2.6-2.5,4.3-5.9,4.3-9.8c0-7.4-6-13.5-13.5-13.5s-13.5,6-13.5,13.5c0,3.9,1.7,7.5,4.4,9.9
		c0.3,2.9-0.7,6.4-5.4,9.3c-2.5,1.5-5.7,1.2-7.7-0.9l-7.3-7.3c0.3-0.9,0.4-1.8,0.4-2.8c0-5.2-4.2-9.4-9.4-9.4s-9.4,4.2-9.4,9.4
		s4.2,9.4,9.4,9.4c0.3,0,0.6,0,1,0l0.6,0.6c8.2,8.4,16.5,23,16.1,42.7c8.6-19.1,26.5-33.1,45.6-33.1c1.8,0,2.9,0,4.7,0.2
		c2.2-3.1,5.1-6.2,8.4-9.1l1.4-1.4c0.4,0.1,0.9,0.1,1.3,0.1c5.2,0,9.4-4.2,9.4-9.4S169,26.6,163.8,26.6z"/>
	<path class="st2" d="M93.4,215.8c-12,0-18.4,0-30.4,0c-1.3,0-2.6,0-4,0c-5.2,0.1-8.4,3.3-8.4,8.5c0,1.8,0,3.5,0,5.3
		c0,3.1,1,4.1,4.1,4.1c11,0,33.4,0,44.4,0C96.1,229.6,93.9,222.5,93.4,215.8z"/>
	<path class="st2" d="M102.2,109.3H81.9c-5,0-8.1,3.3-8.1,7.3s3.1,7.3,8.1,7.3h19L102.2,109.3z"/>
</g>
</svg>
