<?xml version="1.0" encoding="utf-8"?>
<!-- Generator: Adobe Illustrator 23.1.1, SVG Export Plug-In . SVG Version: 6.00 Build 0)  -->
<svg version="1.1" id="Capa_1" xmlns="http://www.w3.org/2000/svg" xmlns:xlink="http://www.w3.org/1999/xlink" x="0px" y="0px"
	 viewBox="0 0 149 250" style="enable-background:new 0 0 149 250;" xml:space="preserve">
<style type="text/css">
	.st0{fill:#F7F7F7;}
	.st1{fill:#333333;}
</style>
<path class="st0" d="M123.7,200.6c-3.9-1.1-4.6-4.5-4.3-7.6c0-0.5-0.5-0.8-0.9-0.5c-9.4,6.8-24,10-44.6,10c-21.7,0-35.2-3.2-44.6-10
	c-0.4-0.3-1,0-0.9,0.5c0.3,3.2-0.4,6.6-4.3,7.6c-0.1,0-0.2,0.1-0.3,0.2c-0.8,0.9-3.6,9.5,50.1,10.2c53.7-0.7,50.9-9.3,50.1-10.2
	C123.9,200.7,123.8,200.7,123.7,200.6"/>
<path class="st1" d="M73.9,212.1c-30.9-0.4-48.5-3.5-51.1-9c-0.6-1.3-0.3-2.4,0.2-2.9c0.2-0.2,0.5-0.4,0.8-0.5
	c2.7-0.8,3.9-2.9,3.6-6.5c-0.1-0.6,0.3-1.2,0.8-1.5c0.6-0.3,1.2-0.3,1.8,0.1c9.3,6.8,22.9,9.8,44,9.8c20.6,0,35-3.2,44-9.8
	c0.5-0.4,1.2-0.4,1.8-0.1c0.6,0.3,0.9,0.9,0.8,1.5c-0.3,3.6,0.8,5.8,3.6,6.5l0,0c0.3,0.1,0.6,0.3,0.8,0.5c0.5,0.6,0.8,1.7,0.2,2.9
	C122.4,208.6,104.7,211.7,73.9,212.1 M24.5,201.6c0,0.1,0,0.4,0.1,0.7c0.9,1.7,7.1,7.1,49.2,7.7c42.1-0.6,48.3-6.1,49.2-7.7
	c0.2-0.3,0.2-0.6,0.1-0.7c-2.4-0.7-5-2.7-4.9-7.7c-9.4,6.5-24,9.6-44.4,9.6c-21,0-34.8-3-44.4-9.6C29.5,198.9,26.9,200.8,24.5,201.6
	"/>
<path class="st0" d="M140.4,226.1c-5.9-5.1-10.7-14.2-10.7-14.2s-2.6-4.3-5.9-4.2c-0.1,0-0.1,0-0.2,0c-3.4,0.2-3.7,7-49.8,7
	c-44.9,0-46.4-6.8-49.8-7c-0.1,0-0.1,0-0.2,0c-3.3-0.1-5.9,4.2-5.9,4.2s-4.8,9.1-10.7,14.2c-5.9,5.1,3.6,11.1,8.1,12.9
	c5.1,2.1,22.9,6.9,58.4,6.9s53.3-4.8,58.4-6.9C136.8,237.2,146.3,231.2,140.4,226.1"/>
<path class="st1" d="M73.8,246.9c-40.3,0-57-6.2-58.8-6.9c-3.3-1.3-9.8-5.1-10.6-9.5c-0.2-1.3,0-3.3,2.2-5.2
	c5.7-4.9,10.4-13.8,10.5-13.9c0.1-0.2,3-4.9,6.8-4.8c1.1,0,1.8,0.4,2.8,1c3.5,1.8,11.6,6,47.1,6l0,0c36.4,0,43.9-4.2,47.1-6
	c0.9-0.5,1.6-0.9,2.6-1h0.1h0.2c3.8-0.2,6.6,4.5,6.8,4.7c0.1,0.1,4.8,9,10.5,14c2.2,1.9,2.4,3.9,2.2,5.2c-0.8,4.5-7.3,8.2-10.6,9.5
	C130.9,240.7,114.2,246.9,73.8,246.9 M23.9,208.6c-2.3,0-4.4,2.7-5,3.7c-0.2,0.3-4.9,9.3-10.9,14.5c-1.2,1-1.7,2.1-1.5,3.3
	c0.5,3.1,5.8,6.5,9.3,7.9c1.7,0.7,18,6.8,58,6.8c39.9,0,56.3-6.1,58-6.8c3.6-1.4,8.8-4.8,9.3-7.9c0.2-1.2-0.3-2.2-1.5-3.3
	c-6-5.2-10.7-14.1-10.9-14.5c-0.6-1-2.7-3.7-4.9-3.7l-0.1-1l-0.1,1c-0.3,0-0.8,0.2-1.6,0.7c-3.4,1.9-11.3,6.3-48.2,6.3l0,0
	c-35.9,0-44.4-4.4-48-6.3C25,208.9,24.5,208.7,23.9,208.6C24,208.6,23.9,208.6,23.9,208.6"/>
<path class="st0" d="M85.3,109.4H62.4c0.4,2.1,0.5,4.3,0.4,6.6h22.1C84.7,113.7,84.8,111.5,85.3,109.4"/>
<path class="st1" d="M86,117H61.7l0.1-1.1c0.2-2.2,0-4.3-0.4-6.3l-0.3-1.3h25.4l-0.3,1.2c-0.4,1.9-0.5,4.1-0.4,6.3L86,117z
	 M63.9,114.9h19.9c-0.1-1.6,0-3.1,0.2-4.5H63.7C63.9,111.9,64,113.4,63.9,114.9"/>
<path class="st0" d="M114.3,176.1c-3.7-7.6-7.3-12.3-16.2-27.9c-4.3-7.6-5.7-9.9-9.4-19.2l-29.8,0.1c-3.2,8.3-5.9,13.1-10.3,20.7
	c-8.9,15.5-11.5,18.7-15.3,26.3c-3,6-5.9,10.9,0.6,14.9c2.3,1.4,4.8,2.7,7.6,3.6c10.9,3.6,25.8,4,32.4,4c6.5,0,22.6-0.9,33-4.1
	c3.5-1.1,6.3-3,8-4.1C120.1,186.9,117.1,181.7,114.3,176.1"/>
<path class="st1" d="M73.9,199.6L73.9,199.6c-6.1,0-21.5-0.4-32.7-4c-2.6-0.8-5.1-2-7.8-3.7c-6.9-4.2-4.3-9.6-1.5-15.2l0.5-1.1
	c2.1-4.3,3.9-7.2,6.6-11.6c2.1-3.5,4.8-7.9,8.7-14.7c4.6-8,7.1-12.5,10.2-20.6l0.3-0.7l31.2-0.1l0.3,0.7c3.6,8.9,4.9,11.2,8.9,18.2
	l0.5,0.9c3.9,6.9,6.8,11.6,9.1,15.4c2.9,4.8,5,8.3,7.1,12.5l0.5,1.1c2.6,5.3,5.3,10.7-0.3,14.5c-1.6,1.1-4.6,3-8.3,4.2
	C96.3,198.8,79.5,199.6,73.9,199.6 M59.6,130.1c-3.2,8.2-6.1,13.3-10.1,20.2c-3.9,6.8-6.6,11.2-8.7,14.7c-2.7,4.4-4.4,7.3-6.5,11.5
	l-0.5,1.1c-3,6.1-4.4,9.4,0.7,12.5c2.5,1.5,4.9,2.7,7.4,3.5c10.9,3.5,26,3.9,32,3.9l0,0c5.5,0,22-0.7,32.7-4.1
	c3.4-1.1,6.2-2.9,7.7-3.9c3.9-2.6,2.5-6-0.4-11.8l-0.5-1.1c-2.1-4.2-4-7.4-7-12.4c-2.3-3.8-5.2-8.6-9.1-15.5l-0.5-0.9
	c-3.8-6.7-5.3-9.3-8.7-17.8L59.6,130.1z"/>
<path class="st0" d="M101.4,99.7H86.7H61.3H46.6c-1.6,0-2.8,1.3-2.8,2.8c0,1.6,1.3,2.8,2.8,2.8h16h22.8h16c1.6,0,2.8-1.3,2.8-2.8
	C104.3,101,103,99.7,101.4,99.7"/>
<path class="st1" d="M101.4,106.4H46.6c-2.1,0-3.9-1.7-3.9-3.9c0-2.1,1.7-3.9,3.9-3.9h54.8c2.1,0,3.9,1.7,3.9,3.9
	C105.3,104.7,103.6,106.4,101.4,106.4 M46.6,100.7c-1,0-1.8,0.8-1.8,1.8s0.8,1.8,1.8,1.8h54.8c1,0,1.8-0.8,1.8-1.8s-0.8-1.8-1.8-1.8
	H46.6z"/>
<path class="st0" d="M101.3,119.6H84.9H62.8H46.4c-1.6,0-2.8,1.3-2.8,2.8c0,1.6,1.3,2.8,2.8,2.8h15.5h23.9h15.5
	c1.6,0,2.8-1.3,2.8-2.8C104.1,120.9,102.8,119.6,101.3,119.6"/>
<path class="st1" d="M101.3,126.4H46.4c-2.1,0-3.9-1.7-3.9-3.9s1.7-3.9,3.9-3.9h54.8c2.1,0,3.9,1.7,3.9,3.9S103.4,126.4,101.3,126.4
	 M46.4,120.7c-1,0-1.8,0.8-1.8,1.8s0.8,1.8,1.8,1.8h54.8c1,0,1.8-0.8,1.8-1.8s-0.8-1.8-1.8-1.8H46.4z"/>
<path class="st0" d="M73.9,11.8c0.7,0,4-0.1,8.2,0.7c0.2-0.6,0.4-1.2,0.4-1.8c0-3.6-3.8-6.6-8.4-6.6s-8.4,2.9-8.4,6.6
	c0,0.6,0.1,1.2,0.3,1.7C70,11.7,73.2,11.8,73.9,11.8"/>
<path class="st1" d="M82.7,13.7l-0.9-0.2c-4.1-0.8-7.4-0.7-8-0.7h-0.1c-0.6,0-3.7-0.1-7.7,0.6l-0.9,0.2L65,12.8
	c-0.3-0.8-0.4-1.4-0.4-2.1c0-4.2,4.2-7.6,9.4-7.6s9.4,3.4,9.4,7.6c0,0.7-0.1,1.4-0.4,2.1L82.7,13.7z M74.5,10.7
	c1.2,0,3.7,0.1,6.8,0.6c0-0.2,0.1-0.4,0.1-0.6c0-3-3.3-5.5-7.4-5.5s-7.4,2.5-7.4,5.5c0,0.2,0,0.4,0.1,0.6c3.7-0.6,6.5-0.5,7.2-0.5
	C74,10.7,74.2,10.7,74.5,10.7"/>
<path class="st0" d="M102,29c-4.1-9.1-13.2-12.5-20-13.7c-4.2-0.8-7.5-0.7-8.2-0.7s-3.9-0.1-7.9,0.6c-6.8,1.2-16.1,4.5-20.3,13.8
	c-6.9,15.4,6.9,45.8,11.1,54.6c2.2,4.7,3.6,9,4.4,12.1h25.4c0.8-3.1,2.2-7.4,4.4-12.1C95.1,74.8,109,44.4,102,29"/>
<path class="st1" d="M87.3,96.7h-27l-0.2-0.8C59.3,93,58,88.7,55.8,84c-8.4-17.9-17.1-42-11.1-55.4c4.3-9.6,13.8-13.1,21-14.4
	c4.2-0.7,7.5-0.7,8.1-0.7s4-0.1,8.3,0.7c7.1,1.3,16.5,4.8,20.7,14.3C109,42,100.3,66.1,91.9,84c-2.2,4.7-3.6,9.1-4.3,11.9L87.3,96.7
	z M61.9,94.6h23.8c0.8-2.9,2.2-7.1,4.3-11.5c11.6-24.7,15.5-43.8,11.1-53.7c-3.9-8.7-12.6-11.9-19.2-13.1c-4.1-0.8-7.4-0.7-8-0.7
	s-3.8-0.1-7.8,0.6c-6.7,1.2-15.6,4.4-19.5,13.2c-4.5,10-0.6,29,11.1,53.7C59.8,87.5,61.1,91.7,61.9,94.6"/>
</svg>
