<?xml version="1.0" encoding="utf-8"?>
<!-- Generator: Adobe Illustrator 23.1.1, SVG Export Plug-In . SVG Version: 6.00 Build 0)  -->
<svg version="1.1" id="Capa_1" xmlns="http://www.w3.org/2000/svg" xmlns:xlink="http://www.w3.org/1999/xlink" x="0px" y="0px"
	 viewBox="0 0 250 250" style="enable-background:new 0 0 250 250;" xml:space="preserve">
<style type="text/css">
	.st0{fill:#382517;}
	.st1{fill:#FBF5EA;}
	.st2{opacity:0.7;fill:#E7D5B6;}
</style>
<g>
	<path class="st0" d="M179.1,192.7c-1.5-11.7-7.1-25.6-16.7-41.3c-6.2-10.1-12.4-18.3-15.5-22.3c2.8-5.5,7.6-15.5,10.7-25.6
		c2.7-8.8,5.2-18.9-0.3-26.3c-3.3-4.5-8.8-7.1-17.2-8.1c0.2-1,0.3-2.1,0.2-3.1l-1.1-9.7l9.7,1.1c2.5,0.3,5-0.5,6.9-2.2
		c1.9-1.7,3-4.1,3-6.6V32.2c0-2.5-1.1-4.9-3-6.6c-1.9-1.7-4.4-2.5-6.9-2.2l-9.7,1.1l1.1-9.7c0.3-2.5-0.5-5-2.2-6.9s-4.1-3-6.6-3
		h-16.4c-2.5,0-4.9,1.1-6.6,3c-1.7,1.9-2.5,4.4-2.2,6.9l1.1,9.7l-9.7-1.1c-2.5-0.3-5,0.5-6.9,2.2c-1.9,1.7-3,4.1-3,6.6v16.4
		c0,2.5,1.1,4.9,3,6.6c1.9,1.7,4.4,2.5,6.9,2.2l9.7-1.1l-1.1,9.7c-0.1,1.1,0,2.2,0.2,3.2c-8.4,1.1-13.7,3.6-16.9,8.1
		c-5.3,7.4-2.8,17.1,0.3,26.4c3.5,10.6,8.4,21,11,26.2c-7.3,9.2-28.1,37.3-31.1,63.1c-7.4,1.7-16.5,7.5-16.5,21.6v8.8h142.4v-8.6
		C195.7,202,186.7,194.3,179.1,192.7z"/>
	<path class="st1" d="M108.9,130.9c0,0-32.6,38.8-32.6,69.1h96.4c0-28.1-32-67.7-33.2-69.1v-3.4c2.4-4.6,7.8-15.4,11.1-26.2
		c5.3-17.1,4.5-25.5-19.5-25.5c-3.3-0.2-11.1,0-13.9,0c-25.4,0-26.4,7.5-20.4,25.5c4.3,13,11,26.1,12.1,28.2L108.9,130.9
		L108.9,130.9z"/>
	<path class="st2" d="M118.1,129.8c-3,0-9,0-9,0s-7.6-14.3-12.3-28.5c-6-18-4.9-25.5,20.4-25.5C102.7,94.6,118.1,129.8,118.1,129.8z
		"/>
	<path class="st1" d="M60.2,214.6c0-12.6,9.8-15.4,14.6-15.4c1,0,2,0,3.1,0c32.8,0,65.6,0,98.4,0c3.3,0,12.6,4.1,12.6,15.6
		L60.2,214.6z"/>
	<path class="st2" d="M111.2,214.8l-51.1-0.2c0-12.6,9.8-15.4,14.6-15.4c0.5,0,1,0,1.6,0c0.6-30.2,32.6-68.3,32.6-68.3h0
		c0,0,6.5,13.6,14.4,14.2C108.5,179.4,111.2,214.8,111.2,214.8z"/>
	<path class="st1" d="M149.6,30.2l-15.8,1.8c-1.3,0.1-2.4-0.9-2.2-2.2l1.8-15.8c0.1-1.2-0.8-2.2-2-2.2h-16.4c-1.2,0-2.1,1-2,2.2
		l1.8,15.8c0.1,1.3-0.9,2.4-2.2,2.2L97,30.2c-1.2-0.1-2.2,0.8-2.2,2v16.4c0,1.2,1,2.1,2.2,2l15.8-1.8c1.3-0.1,2.4,0.9,2.2,2.2
		l-1.8,15.8c-0.1,1.2,0.8,2.2,2,2.2h16.4c1.2,0,2.1-1,2-2.2l-1.8-15.8c-0.1-1.3,0.9-2.4,2.2-2.2l15.8,1.8c1.2,0.1,2.2-0.8,2.2-2
		V32.2C151.9,31,150.8,30.1,149.6,30.2z"/>
	<path class="st2" d="M120.6,68.9c-2.6,0-5.5,0-5.5,0c-1.2,0-2.1-1-2-2.2l1.8-15.8c0.1-1.3-0.9-2.4-2.2-2.2L97,50.6
		c-1.2,0.1-2.2-0.8-2.2-2V32.2c0-1.2,1-2.1,2.2-2l15.8,1.8c1.3,0.1,2.4-0.9,2.2-2.2l-1.8-15.8c-0.1-1.2,0.8-2.2,2-2.2h9.4
		C124.5,11.9,124.5,42.9,120.6,68.9z"/>
	<path class="st0" d="M160.1,126.7H87c-6.9,0-12.6,5.6-12.6,12.6S80,151.9,87,151.9h73.2c6.9,0,12.6-5.6,12.6-12.6
		S167.1,126.7,160.1,126.7z"/>
	<path class="st1" d="M160.1,133.6H87c-3.2,0-5.7,2.6-5.7,5.7c0,3.2,2.6,5.7,5.7,5.7h73.2c3.2,0,5.7-2.6,5.7-5.7
		C165.9,136.1,163.3,133.6,160.1,133.6z"/>
	<path class="st2" d="M119,133.5H87.6c-4,0-6.4,2.6-6.4,5.8c0,3.2,2.4,5.8,6.4,5.8c0,0,30.7,0,35.7,0C121.1,140,119,133.5,119,133.5
		z"/>
	<path class="st0" d="M202.9,226.6c0-1,0-2.5-0.5-4.2c-2-6.6-7.4-10.5-14.5-10.5l-122.9,0l-1.2,0c-0.9,0-1.8,0-2.7,0
		c-8.8,0.1-14.9,6.3-14.9,15.1l0,5.1c0,1.2,0,5.1,2.8,7.9c2.9,2.9,6.7,2.9,8,2.9h135.6c6.2,0,10.4-4.2,10.4-10.4l0-1.1
		C202.9,229.8,202.9,228.2,202.9,226.6z"/>
	<path class="st1" d="M124.5,236.1c-22.6,0-45.1,0-67.7,0c-2.9,0-3.9-1-3.9-4c0-1.7,0-3.4,0-5.1c0-5.1,3.1-8.2,8.1-8.2
		c1.3,0,2.6,0,3.8,0c41,0,82,0,122.9,0c4.1,0,6.9,1.9,8,5.6c0.2,0.7,0.2,1.5,0.3,2.3c0,2,0,3.9,0,5.9c0,2.5-1.1,3.6-3.6,3.6
		C169.8,236.1,147.2,236.1,124.5,236.1z"/>
	<path class="st2" d="M111.5,218.8c-11.6,0-34.9,0-46.5,0c-1.3,0-2.6,0-3.8,0c-5.1,0.1-8.1,3.2-8.1,8.3c0,1.7,0,3.4,0,5.1
		c0,3,1,4,3.9,4c10.7,0,48.7,0,59.3,0C112,231.9,111.5,218.8,111.5,218.8z"/>
</g>
</svg>
