<?xml version="1.0" encoding="utf-8"?>
<!-- Generator: Adobe Illustrator 23.1.1, SVG Export Plug-In . SVG Version: 6.00 Build 0)  -->
<svg version="1.1" id="Capa_1" xmlns="http://www.w3.org/2000/svg" xmlns:xlink="http://www.w3.org/1999/xlink" x="0px" y="0px"
	 viewBox="0 0 250 250" style="enable-background:new 0 0 250 250;" xml:space="preserve">
<style type="text/css">
	.st0{fill:#382517;}
	.st1{fill:#FBF5EA;}
	.st2{opacity:0.7;fill:#E7D5B6;}
</style>
<g>
	<path class="st0" d="M180.7,191.1L164,106.6h-1V93.7h8.9c4.9,0,9-4,9-9V36.2c0-4.9-4-9-9-9h-21.2c-4,0-7.4,2.6-8.5,6.2
		c-1.2-3.6-4.6-6.2-8.5-6.2h-20.2c-4,0-7.4,2.6-8.5,6.2c-1.2-3.6-4.6-6.2-8.5-6.2H75.1c-4.9,0-9,4-9,9v48.6c0,4.9,4,9,9,9h5.2
		c0.7,0,1.3,0.6,1.3,1.3v11.8l-16.7,85.7c-5.9,2.5-11.8,8.1-11.8,19.1v7h142.7v-6.8C195.8,199.1,187,192.6,180.7,191.1z"/>
	<path class="st1" d="M177.8,195.7c-1,0-1.9,0-2.9,0l-18.5-93.6V87.2h15.4c1.4,0,2.5-1.1,2.5-2.5V60.4V36.2c0-1.4-1.1-2.5-2.5-2.5
		h-22.2c-1.4,0-2.5,1.1-2.5,2.5V58c0,1.4-1.1,2.5-2.5,2.5h-5.2c-1.4,0-2.5-1.1-2.5-2.5V36.2c0-1.4-1.1-2.5-2.5-2.5h-22.2
		c-1.4,0-2.5,1.1-2.5,2.5V58c0,1.4-1.1,2.5-2.5,2.5h-5.2c-1.4,0-2.5-1.1-2.5-2.5V36.2c0-1.4-1.1-2.5-2.5-2.5H75.1
		c-1.4,0-2.5,1.1-2.5,2.5v24.3v24.3c0,1.4,1.1,2.5,2.5,2.5h7.3c3.1,0,5.7,2.5,5.7,5.7v14.5l-17.2,88.5c-5.2,0.8-12.7,4.5-12.7,15.7
		l132.7,0.2C190.8,199.9,181.2,195.7,177.8,195.7z"/>
	<path class="st2" d="M94.3,77.8c-2.9,0-5.3-2.4-5.3-5.3V33.7H75.1c-1.4,0-2.5,1.1-2.5,2.5v24.3v24.3c0,1.4,1.1,2.5,2.5,2.5h7.3
		c3.1,0,5.7,2.5,5.7,5.7v20.2H87l-16.1,82.7c-5.2,0.8-12.7,4.5-12.7,15.7l39.8,0.1l1.6-128.5C99.6,80.2,97.2,77.8,94.3,77.8z"/>
	<path class="st2" d="M99.5,107.2H87.5c-4.2,0-6.5,2.6-6.5,5.9s2.4,5.9,6.5,5.9h11.7L99.5,107.2z"/>
	<path class="st0" d="M158.3,100.7H87.5c-7.6,0-13,5.2-13,12.4s5.5,12.4,13,12.4h70.7c7.6,0,13-5.2,13-12.4S165.8,100.7,158.3,100.7
		z"/>
	<path class="st1" d="M87.5,119.1h70.7c4.2,0,6.5-2.6,6.5-5.9s-2.4-5.9-6.5-5.9H87.5c-4.2,0-6.5,2.6-6.5,5.9S83.4,119.1,87.5,119.1z
		"/>
	<path class="st0" d="M205.3,223.9c0-1,0-2.6-0.6-4.3c-2-6.7-7.6-10.8-14.9-10.8l-126.8,0l-1.2,0c-0.9,0-1.9,0-2.8,0
		c-9,0.1-15.3,6.5-15.3,15.5l0,5.3c0,1.3,0,5.2,2.9,8.2c2.9,3,6.8,3,8.1,3h139.8c6.4,0,10.7-4.3,10.7-10.7l0-1.1
		C205.3,227.3,205.3,225.6,205.3,223.9z"/>
	<path class="st1" d="M124.5,233.8c-23.3,0-46.5,0-69.8,0c-3,0-4.1-1-4.1-4.1c0-1.8,0-3.5,0-5.3c0-5.2,3.2-8.4,8.4-8.5
		c1.3,0,2.6,0,4,0c42.2,0,84.5,0,126.7,0c4.2,0,7.1,2,8.2,5.8c0.2,0.8,0.2,1.6,0.3,2.4c0,2,0,4,0,6.1c0,2.6-1.1,3.7-3.7,3.7
		C171.2,233.8,147.9,233.8,124.5,233.8z"/>
	<path class="st2" d="M98,215.9c-12,0-22.9,0-34.9,0c-1.3,0-2.6,0-4,0c-5.2,0.1-8.4,3.3-8.4,8.5c0,1.8,0,3.5,0,5.3
		c0,3.1,1,4.1,4.1,4.1c11,0,37.2,0,48.2,0C98.5,229.5,98,215.9,98,215.9z"/>
	<path class="st2" d="M147.2,57.8c0-1,0-21.6,0-21.6c0-1.4,1.1-2.5,2.5-2.5h11.2v16.8c0,7.5-8.1,10-16.1,10
		C146.8,60.3,147.2,58.6,147.2,57.8z"/>
	<path class="st2" d="M109.9,57.8c0-1,0-21.6,0-21.6c0-1.4,1.1-2.5,2.5-2.5h11.2v16.8c0,7.5-8.1,10-16.1,10
		C109.5,60.3,109.9,58.6,109.9,57.8z"/>
	<path class="st2" d="M99.4,107.2H87.6c-4.1,0-6.6,2.7-6.6,5.9s2.5,5.9,6.6,5.9l11.7,0L99.4,107.2z"/>
</g>
</svg>
