<?xml version="1.0" encoding="utf-8"?>
<!-- Generator: Adobe Illustrator 23.1.1, SVG Export Plug-In . SVG Version: 6.00 Build 0)  -->
<svg version="1.1" id="Capa_1" xmlns="http://www.w3.org/2000/svg" xmlns:xlink="http://www.w3.org/1999/xlink" x="0px" y="0px"
	 viewBox="0 0 149 250" style="enable-background:new 0 0 149 250;" xml:space="preserve">
<style type="text/css">
	.st0{fill:#F7F7F7;}
	.st1{fill:#333333;}
</style>
<g>
	<path class="st0" d="M124.5,201.3c-3.9-1.1-4.6-4.5-4.3-7.6c0-0.5-0.5-0.7-0.9-0.5c-14.1,5.6-24.7,7.5-45.3,7.5
		c-21.7,0-30.6-2.9-43.9-7.5c-0.5-0.2-1,0-0.9,0.5c0.3,3.2-0.4,6.6-4.3,7.6c-0.1,0-0.2,0.1-0.3,0.2c-0.8,0.9-3.6,9.5,50.1,10.2
		c53.7-0.7,50.9-9.3,50.1-10.2C124.7,201.4,124.6,201.4,124.5,201.3"/>
	<path class="st0" d="M141.2,226.8c-5.9-5.1-10.7-14.2-10.7-14.2s-2.6-4.3-5.9-4.2c-0.1,0-0.1,0-0.2,0c-3.4,0.2-3.7,7-49.8,7
		c-44.9,0-46.4-6.8-49.8-7c-0.1,0-0.1,0-0.2,0c-3.3-0.1-5.9,4.2-5.9,4.2s-4.8,9.1-10.7,14.2c-5.9,5.1,3.6,11.1,8.1,12.9
		c5.1,2.1,22.9,6.9,58.4,6.9c35.5,0,53.3-4.8,58.4-6.9C137.6,237.9,147.1,231.9,141.2,226.8"/>
	<path class="st0" d="M109,176.6c-7.8-18.4-9.5-31.6-8.9-51.9c0.4-14.2,3.5-28.2,8.3-41.5c3.3-9,7-18,10.4-26.9
		c0.1-0.2,0.2-0.6,0.4-0.6c1.1-0.4,0.8-1.3,0.5-1.9c-1-1.6-0.8-3.4-0.8-5.1c-0.1-5.8,0.2-11.6-0.5-17.3c-0.7-5.4-0.7-10.9,0.3-16.2
		c0.4-2.2,0.1-3.6-1.5-4.4c-0.5-0.2-0.9-0.5-1.4-0.7c-2.7-0.8-5.3-1.6-8-2.2c-1.7-0.4-3.4,0.8-3.5,2.5c-0.2,1.8-0.4,3.7-0.5,5.5
		c-0.1,0.7-0.2,1.3-0.9,1.8c-0.4,0.3-0.8,1.1-0.8,1.6c-0.7,7.9-1.3,15.9-1.9,23.8c-0.1,1.9-0.3,3.8-0.4,5.9
		c-3.1-0.2-6.1-0.3-9.1-0.5c-1.8-0.1-3.2-1.6-3.2-3.4c0-12.3,0-24.6,0-36.9c0-2-0.8-2.8-2.6-2.9c-2.5-0.1-5.1-0.2-7.6-0.2
		c-4.1,0-8.2,0.1-12.3,0.2c-1.7,0-3.1,1.4-3.1,3.1c0,6.2,0,12.5,0,18.7c0,6.2,0,12.3,0,18.5c0,1.5-0.7,2.7-2,2.8
		c-3.4,0.3-6.8,0.4-10.2,0.6c-0.1-0.6-0.1-1.1-0.2-1.5c-0.7-9.3-1.4-18.7-2.2-28c0-0.5-0.2-1.3-0.5-1.5c-1.3-0.6-1.2-1.7-1.3-2.9
		c-0.1-1.5-0.3-2.9-0.4-4.4c-0.2-2.1-2-3.4-4-2.9c-3,0.7-5.9,1.8-8.8,2.7c-1.4,0.5-1.9,1.6-1.9,3.1c0,10.6,0.1,21.3,0,31.9
		c0,2.9,0.5,5.9-1,8.7c-0.1,0.2,0.1,0.7,0.2,1c0.3,0.4,0.8,0.7,0.9,1.2c0.7,1.9,1,3.9,1.8,5.7c7.7,16.4,13.7,33.1,15.9,51
		c1.4,11.6,1.3,23.1-0.4,34.6c-2.1,14.4-7.6,25.1-14,38.2c0,0-2.4,3.5,5.2,5.5c0,0,21.6,5.5,35.7,5.2c11.3-0.3,28.9-3.2,37.4-5.8
		c2.6-0.8,3.6-4,1.8-6.1C113.2,184.1,112.4,182.1,109,176.6"/>
	<g>
		<path class="st1" d="M74.7,212.7L74.7,212.7L74.7,212.7c21.5-0.3,47.8-2.1,51.1-9c0.6-1.2,0.3-2.3-0.2-2.9
			c-0.2-0.2-0.5-0.4-0.8-0.5c-2.7-0.8-3.9-2.9-3.6-6.6c0-0.5-0.2-1-0.6-1.3c-0.5-0.3-1.1-0.4-1.7-0.2c-14.3,5.7-24.8,7.4-45,7.4
			c-21.8,0-30.5-2.9-43.6-7.4c-0.6-0.2-1.2-0.1-1.7,0.2c-0.4,0.3-0.6,0.8-0.5,1.3c0.3,3.7-0.8,5.8-3.6,6.6c-0.3,0.1-0.6,0.3-0.8,0.5
			c-0.5,0.6-0.8,1.7-0.2,2.9C26.8,210.6,53.1,212.4,74.7,212.7z M25.3,202.2c3.4-1,5.1-3.8,4.9-7.9c13.1,4.4,21.9,7.4,43.8,7.4
			c20.2,0,30.9-1.7,45.2-7.3c-0.2,4.2,1.5,6.9,4.9,7.9c0,0.1,0,0.4-0.1,0.7c-0.8,1.7-6.7,7.2-49.3,7.8c-42.6-0.6-48.5-6.1-49.3-7.8
			C25.2,202.6,25.2,202.4,25.3,202.2z"/>
		<path class="st1" d="M141.9,226c-5.6-4.9-10.3-13.6-10.5-14c-0.1-0.2-2.9-4.9-6.7-4.7l-0.2,0c-0.9,0.1-1.6,0.5-2.5,1
			c-3.2,1.8-10.8,6-47.2,6c-35.4,0-43.6-4.2-47.1-6.1c-1-0.5-1.7-0.9-2.6-1c-0.1,0-0.2,0-0.2,0l-0.1,0c-3.7,0-6.4,4.3-6.7,4.8
			c0,0.1-4.8,9-10.5,13.9c-1.7,1.5-2.5,3.2-2.1,5.1c0.7,4.1,6.7,7.9,10.6,9.5c1.8,0.7,18.4,6.9,58.8,6.9c40.3,0,57-6.2,58.8-6.9
			c3.9-1.6,9.9-5.4,10.6-9.5C144.3,229.3,143.6,227.5,141.9,226z M142,230.8c-0.5,3.1-5.8,6.5-9.3,8c-1.7,0.7-18,6.8-58,6.8
			c-40,0-56.3-6.1-58-6.8c-3.6-1.4-8.8-4.8-9.3-8c-0.2-1.2,0.3-2.2,1.5-3.3c6-5.2,10.7-14.1,10.9-14.5c0,0,2.3-3.8,4.9-3.8l0.1,0
			c0.1,0,0.1,0,0.1,0c0.5,0,1,0.3,1.8,0.7c3.6,1.9,12.1,6.3,48,6.3c36.9,0,44.8-4.4,48.2-6.3c0.8-0.4,1.2-0.7,1.6-0.7l0.2,0l0-0.5h0
			l0.1,0.5c2.6,0,4.9,3.7,4.9,3.7c0.5,1,5.1,9.5,10.9,14.5C141.8,228.6,142.2,229.6,142,230.8z"/>
		<path class="st1" d="M29.3,56.5c0.1,0.1,0.2,0.2,0.3,0.3c0.2,0.7,0.5,1.5,0.6,2.2c0.3,1.2,0.7,2.5,1.2,3.7
			c8.8,18.7,13.8,34.8,15.8,50.7c1.4,11.5,1.2,23-0.4,34.3c-2,13.3-6.9,23.5-12.6,35.3l-1.2,2.5c0,0.1-0.9,1.4-0.3,3
			c0.6,1.8,2.7,3.1,6.1,4.1c0.2,0.1,20.6,5.2,34.7,5.2c0.4,0,0.9,0,1.3,0c11.8-0.3,29.3-3.3,37.6-5.8c1.6-0.5,2.7-1.7,3.2-3.2
			c0.5-1.6,0.1-3.3-1-4.5c-0.2-0.2-0.5-0.8-0.9-1.6c-0.7-1.3-1.8-3.3-3.8-6.5c-8.1-19-9.3-32.7-8.8-51.5c0.4-13.3,3.2-27.2,8.3-41.2
			c2-5.6,4.3-11.3,6.4-16.7l0-0.1c1.3-3.4,2.7-6.7,4-10.2c0,0,0-0.1,0-0.1c0.5-0.3,0.9-0.7,1.1-1.2c0.2-0.6,0.1-1.3-0.4-2.1
			c-0.7-1.1-0.7-2.3-0.7-3.8c0-0.3,0-0.6,0-0.9c0-1.6,0-3.1,0-4.7l0-0.3c0-4.1,0-8.3-0.5-12.5c-0.7-5.9-0.6-11.1,0.3-15.9
			c0.2-1.1,0.8-4.1-2-5.5c-0.1-0.1-0.3-0.1-0.4-0.2c-0.3-0.2-0.7-0.4-1.1-0.5l-1.7-0.5c-2.1-0.6-4.2-1.2-6.4-1.7
			c-1.1-0.3-2.2,0-3.2,0.6c-0.9,0.7-1.5,1.7-1.6,2.8l-0.1,0.8c-0.2,1.6-0.3,3.2-0.4,4.7c-0.1,0.7-0.1,0.9-0.5,1.1
			c-0.8,0.5-1.2,1.6-1.3,2.4c-0.7,7.8-1.3,16-1.8,22.5l-0.1,1.3c-0.1,1.3-0.2,2.5-0.3,3.9L98.8,48l-2.3-0.1c-2-0.1-3.9-0.2-5.8-0.3
			c-1.3-0.1-2.2-1.1-2.2-2.4l0-7.4c0-9.8,0-19.7,0-29.5c0-2.5-1.2-3.8-3.6-3.9l-1.6-0.1c-1.8-0.1-3.9-0.1-5.9-0.1h-0.1
			c-2.7,0-5.4,0.1-8.2,0.1c-1.4,0-2.7,0-4.1,0.1c-2.3,0-4.1,1.9-4.1,4.1c0,6.2,0,12.5,0,18.7l0,18.5c0,0.5-0.1,1.7-1,1.8
			c-2.4,0.2-4.8,0.3-7.2,0.4l-2,0.1c0-0.2,0-0.4-0.1-0.5L49.8,40c-0.5-6.9-1-13.7-1.6-20.6c-0.1-1.2-0.5-2-1.1-2.3
			c-0.6-0.3-0.6-0.6-0.7-1.6l0-0.4c-0.1-0.9-0.2-1.8-0.3-2.7c-0.1-0.5-0.1-1.1-0.2-1.6c-0.1-1.3-0.8-2.5-1.8-3.2
			c-1-0.7-2.2-0.9-3.5-0.6c-2.6,0.6-5.3,1.6-7.7,2.4l-1.2,0.4c-1.7,0.6-2.6,2-2.6,4.1c0,10.6,0.1,21.3,0,31.9c0,0.6,0,1.2,0,1.8
			c0.1,2.3,0.1,4.4-0.9,6.4c-0.4,0.7,0.1,1.6,0.3,2C28.9,56.1,29.1,56.3,29.3,56.5z M31.3,47.4c0-0.6,0-1.2,0-1.8
			c0-10.6,0-21.3,0-31.9c0-1.5,0.5-1.9,1.2-2.2l1.2-0.4c2.4-0.8,5-1.7,7.5-2.3c0.6-0.2,1.3,0,1.8,0.3c0.5,0.4,0.9,1,1,1.7
			c0.1,0.5,0.1,1.1,0.2,1.7l0,0.1c0.1,0.9,0.2,1.7,0.3,2.6l0,0.4c0.1,1,0.1,2.4,1.6,3.2c0,0.1,0.1,0.4,0.1,0.8
			c0.5,6.8,1.1,13.7,1.6,20.5l0.6,7.5c0,0.3,0.1,0.6,0.1,1l0.2,1.5l0.9-0.1c1-0.1,2-0.1,3-0.2c2.4-0.1,4.9-0.3,7.3-0.4
			c1.7-0.1,2.9-1.6,2.9-3.8l0-18.5c0-6.2,0-12.5,0-18.7c0-1.2,1-2.1,2.1-2.1c1.4,0,2.7,0,4.2-0.1c2.7,0,5.4-0.1,8-0.1
			c2.1,0,4.2,0.1,6,0.1l1.6,0.1c1.3,0,1.7,0.5,1.7,1.9c0,9.8,0,19.7,0,29.5l0,7.4c0,2.3,1.8,4.2,4.1,4.4c1.8,0.1,3.6,0.2,5.4,0.3
			l4.7,0.2l0.2-3.1c0.1-1.3,0.2-2.6,0.3-3.8l0.1-1.3c0.6-8,1.2-15.3,1.8-22.5c0-0.4,0.3-0.8,0.4-0.9c1.1-0.7,1.3-1.7,1.4-2.6
			c0.1-1.4,0.3-2.8,0.4-4.3l0.1-1.3c0.1-0.5,0.3-1,0.8-1.4c0.4-0.3,1-0.4,1.5-0.3c2.1,0.5,4.2,1.1,6.4,1.7l1.6,0.5
			c0.2,0.1,0.5,0.2,0.7,0.3c0.2,0.1,0.3,0.2,0.5,0.3c0.9,0.4,1.3,1.1,0.9,3.3c-1,5.1-1.1,10.5-0.3,16.5c0.5,4.1,0.5,8.2,0.5,12.2
			l0,0.3c0,1.6,0,3.2,0,4.7c0,0.3,0,0.5,0,0.8c0,1.6,0,3.2,1,4.8c0.1,0.2,0.2,0.4,0.2,0.4l0,0c0,0,0,0-0.2,0.1
			c-0.6,0.2-0.8,0.8-0.9,1.2c0,0.1-0.1,0.2-0.1,0.3l-0.1,0l0.1,0c-1.2,3.1-2.4,6.2-3.7,9.3L114,66c-2.2,5.5-4.4,11.2-6.5,16.9
			c-5.2,14.2-8,28.3-8.4,41.8c-0.6,19,0.7,33,9,52.4l0.1,0.1c2,3.2,3,5.2,3.7,6.5c0.5,0.9,0.8,1.5,1.1,1.9c0.6,0.7,0.8,1.7,0.6,2.6
			c-0.3,0.9-1,1.6-1.9,1.9c-8.2,2.5-25.8,5.5-37.1,5.8c-13.7,0.4-35.2-5.1-35.4-5.2c-3.6-1-4.5-2.2-4.7-2.8c-0.2-0.6,0-1.1,0.2-1.3
			l1.3-2.7c5.8-11.9,10.8-22.2,12.8-35.8c1.7-11.5,1.8-23.2,0.4-34.8c-2-16.1-7-32.4-15.9-51.3c-0.5-1-0.8-2.2-1.1-3.4
			c-0.2-0.7-0.4-1.5-0.7-2.3c-0.2-0.5-0.5-0.8-0.7-1.1c-0.1-0.1-0.2-0.2-0.3-0.3c0-0.1-0.1-0.1-0.1-0.2
			C31.5,52.2,31.4,49.8,31.3,47.4z"/>
	</g>
</g>
</svg>
